<svg xmlns="http://www.w3.org/2000/svg" width="70.464" height="146" viewBox="0 0 70.464 146">
  <g id="Group_8702" data-name="Group 8702" transform="translate(-12.72 -29.51)">
    <path id="Path_11834" data-name="Path 11834" d="M79.919,254.986l-63.2-5.205L32.4,206.668l-8.415-45.1,63.2,5.205L71.506,209.888Z" transform="translate(-4 -113.551)" fill="#ffd8f6"/>
    <g id="Group_8535" data-name="Group 8535" transform="translate(52.879 54.807)">
      <path id="Path_11835" data-name="Path 11835" d="M289.3,212c1.69,1.962,5.833,18.617,5.664,27.4-.237,12.292-.912,14.275-.912,14.275l-.077-.013c.523.966,1.858,5.343.6,6.557s-3.473-4.5-3.5-4.329a2.432,2.432,0,0,1-.852,1.542.52.52,0,0,1-.28.14c-.206.013-.357-.188-.447-.374,0,0-.855-2.024.865-5.145,0,0-.2-28.756-9.477-33.025Z" transform="translate(-280.6 -211.72)" fill="#fff"/>
      <path id="Path_11836" data-name="Path 11836" d="M292.46,258.946a.859.859,0,0,1-.158-.015c-.967-.182-1.993-2.088-2.881-3.99a2.705,2.705,0,0,1-.735.976.8.8,0,0,1-.423.208l-.027,0a.776.776,0,0,1-.717-.532c-.042-.1-.882-2.17.836-5.337-.022-1.6-.53-28.657-9.313-32.7a.28.28,0,0,1-.062-.47l8.418-7.025a.28.28,0,0,1,.392.032c1.009,1.171,2.53,6.5,3.59,11.264a76.266,76.266,0,0,1,2.141,16.322c-.224,11.641-.84,14.067-.92,14.335.582,1.291,1.776,5.4.44,6.68A.828.828,0,0,1,292.46,258.946Zm-3.076-5.066c.163,0,.222.128.454.63,1.138,2.462,2,3.764,2.568,3.871a.257.257,0,0,0,.247-.086c1.067-1.025-.041-5.1-.648-6.221a.28.28,0,0,1,.1-.372c.149-.663.656-3.637.856-14.029.164-8.492-3.73-24.292-5.434-26.985l-7.86,6.559c3.733,2.033,6.419,8.127,7.986,18.129a115.419,115.419,0,0,1,1.264,14.953.281.281,0,0,1-.035.137c-1.635,2.968-.86,4.882-.852,4.9.068.141.138.194.165.2a.237.237,0,0,0,.109-.061l.015-.014a2.145,2.145,0,0,0,.754-1.364.287.287,0,0,1,.238-.243A.488.488,0,0,1,289.385,253.88Z" transform="translate(-278.88 -210)" fill="#1d1d1b"/>
    </g>
    <g id="Group_8536" data-name="Group 8536" transform="translate(23.3 54.035)">
      <path id="Path_11837" data-name="Path 11837" d="M77.14,222.507c3.657-3.966,7.667-7.361,11.276-8.287a1.3,1.3,0,0,0,.611-2.142l-6.667-5.224a1.211,1.211,0,0,0-1.713-.01l-.032.033A75.589,75.589,0,0,0,71.052,219.9a8.575,8.575,0,0,0-.436,7.968l.014.029c5.309,11.326,6.807,12.833,6.807,12.833l.066-.048c-.074,1.135.537,5.8,2.2,6.355s1.291-5.755,1.383-5.606a2.359,2.359,0,0,0,1.425,1.046.5.5,0,0,0,.314,0,.467.467,0,0,0,.24-.385,1.1,1.1,0,0,0,0-.325,6.479,6.479,0,0,0-2.727-4.065,1.241,1.241,0,0,1-.331-.383,53,53,0,0,1-3.979-10.058A4.973,4.973,0,0,1,77.14,222.507Z" transform="translate(-69.558 -206.215)" fill="#fff"/>
      <path id="Path_11838" data-name="Path 11838" d="M78.182,245.635a.912.912,0,0,1-.287-.049c-1.764-.586-2.39-4.939-2.4-6.4-.206-.228-1.839-2.218-6.841-12.889l-.013-.028a8.855,8.855,0,0,1,.448-8.232,75.225,75.225,0,0,1,9.6-13.075l.036-.037a1.491,1.491,0,0,1,2.1,0l6.654,5.213a.251.251,0,0,1,.032.029,1.579,1.579,0,0,1-.743,2.6c-3.11.8-6.858,3.56-11.142,8.207h0a4.718,4.718,0,0,0-1.05,4.487,52.4,52.4,0,0,0,3.955,10,.951.951,0,0,0,.256.3,6.774,6.774,0,0,1,2.835,4.25,1.37,1.37,0,0,1,0,.391.743.743,0,0,1-.383.6.277.277,0,0,1-.048.021.788.788,0,0,1-.479,0,2.631,2.631,0,0,1-1.088-.576c-.015,2.185-.155,4.438-.973,5.027A.794.794,0,0,1,78.182,245.635Zm-2.373-6.949a.281.281,0,0,1,.254.3c-.086,1.318.6,5.6,2.008,6.07a.253.253,0,0,0,.254-.029c.482-.347.731-1.955.741-4.782,0-.655,0-.739.22-.8a.286.286,0,0,1,.318.124,2.069,2.069,0,0,0,1.256.922l.019.005a.217.217,0,0,0,.112.007.185.185,0,0,0,.074-.14.268.268,0,0,1,0-.028.814.814,0,0,0,0-.242,6.208,6.208,0,0,0-2.621-3.884,1.512,1.512,0,0,1-.4-.469,52.98,52.98,0,0,1-4-10.114,5.283,5.283,0,0,1,1.175-5.025h0c4.359-4.728,8.2-7.544,11.412-8.369a1.019,1.019,0,0,0,.49-1.664l-6.649-5.209a.249.249,0,0,1-.026-.024.924.924,0,0,0-.656-.276.912.912,0,0,0-.66.269l-.025.026a74.643,74.643,0,0,0-9.526,12.974,8.294,8.294,0,0,0-.422,7.708l.012.026C73.645,235.619,75.383,238.139,75.81,238.686Zm5.3,2.073h0Z" transform="translate(-67.839 -204.496)" fill="#1d1d1b"/>
    </g>
    <g id="Group_8537" data-name="Group 8537" transform="translate(35.54 67.921)">
      <path id="Path_11839" data-name="Path 11839" d="M181.445,305.57c-6.307,6.22,1.4,19.9,1.4,19.9s-2.88,4.1-12.6,4.1-13.077-4.1-13.077-4.1,8.594-9.531,2.639-18.475Z" transform="translate(-156.89 -305.29)" fill="#fff"/>
      <path id="Path_11840" data-name="Path 11840" d="M168.527,328.129c-9.741,0-13.153-4.028-13.293-4.2a.28.28,0,0,1,.009-.365,21.718,21.718,0,0,0,3.507-5.815c1.82-4.549,1.52-8.693-.893-12.317a.28.28,0,0,1,.215-.435l21.636-1.427a.28.28,0,0,1,.215.479c-6.084,6,1.373,19.43,1.449,19.565a.28.28,0,0,1-.015.3C181.236,324.085,178.281,328.129,168.527,328.129Zm-12.7-4.385c.769.761,4.384,3.825,12.7,3.825,8.476,0,11.669-3.158,12.264-3.847a38.221,38.221,0,0,1-3-7.515c-1.42-5.237-.985-9.375,1.252-12.031l-20.461,1.349c2.25,3.652,2.488,7.945.682,12.448A22.266,22.266,0,0,1,155.828,323.744Z" transform="translate(-155.17 -303.569)" fill="#1d1d1b"/>
    </g>
    <g id="Group_8538" data-name="Group 8538" transform="translate(34.822 33.014)">
      <path id="Path_11841" data-name="Path 11841" d="M178.352,78.224c-.074-.221-3.99-.664-9.189-1.945a2.641,2.641,0,0,1-2-2.383l-.084-1.2c.655-.363,2.774-.96,3.533-7.753.42-3.784-1.643-7.87-1.643-7.87s-6.167-2.272-9.93,1.622c-2.663,2.758-2.426,11.975,2.554,14.52a6.4,6.4,0,0,1,.115,2.645c-.471.038-9.574,1.938-9.657,2.186l4.008,7.3,8.55,8.526L176.29,86Z" transform="translate(-151.77 -56.151)" fill="#fff"/>
      <path id="Path_11842" data-name="Path 11842" d="M162.888,92.513a.279.279,0,0,1-.2-.082l-8.55-8.526a.278.278,0,0,1-.048-.063l-4.008-7.3a.28.28,0,0,1-.02-.224c.068-.2.1-.315,4.889-1.357,1.964-.428,4.091-.864,4.794-.987a6.221,6.221,0,0,0-.117-2.209c-2.078-1.121-3.563-3.539-4.084-6.661-.554-3.322.092-6.712,1.57-8.244,3.846-3.979,10.165-1.713,10.229-1.69a.28.28,0,0,1,.153.137c.086.17,2.1,4.2,1.671,8.027-.721,6.448-2.672,7.461-3.519,7.887l.071,1.012a2.353,2.353,0,0,0,1.789,2.13c2.908.717,5.413,1.17,7.07,1.47,2.075.375,2.234.41,2.317.658a.282.282,0,0,1,.005.161l-2.062,7.78a.279.279,0,0,1-.115.161l-11.682,7.869A.279.279,0,0,1,162.888,92.513Zm-8.323-8.976,8.358,8.335,11.4-7.681,1.973-7.447c-.319-.084-1.026-.211-1.819-.355-1.664-.3-4.179-.756-7.1-1.477a2.912,2.912,0,0,1-2.214-2.636l-.084-1.2a.28.28,0,0,1,.144-.265c.048-.026.1-.054.163-.085.759-.381,2.537-1.274,3.228-7.455a16.008,16.008,0,0,0-1.566-7.611,12.975,12.975,0,0,0-3.38-.6,7.737,7.737,0,0,0-6.147,2.186c-1.341,1.389-1.939,4.654-1.42,7.762.5,3,1.922,5.3,3.9,6.314a.281.281,0,0,1,.143.174,6.632,6.632,0,0,1,.119,2.778.28.28,0,0,1-.252.222c-.183.015-2.244.425-4.718.961-2.657.576-4.047.92-4.567,1.081ZM176.459,76.8h0Z" transform="translate(-150.05 -54.511)" fill="#1d1d1b"/>
    </g>
    <path id="Path_11843" data-name="Path 11843" d="M242.035,99.868a3.2,3.2,0,0,1-1.142-.22l.218-.517c.457.193,1.234.255,1.433.056.051-.051.045-.151-.016-.3a3.956,3.956,0,0,1-.212-3.406,2.8,2.8,0,0,1,2.111-1.309l.028,0a5.72,5.72,0,0,1,2.155.226l-.225.513a5.075,5.075,0,0,0-1.873-.182,2.266,2.266,0,0,0-1.7,1.022,3.5,3.5,0,0,0,.237,2.922.775.775,0,0,1-.105.912A1.276,1.276,0,0,1,242.035,99.868Z" transform="translate(-193.339 -55.584)"/>
    <path id="Path_11844" data-name="Path 11844" d="M237.394,146.731a1.82,1.82,0,0,1-1.383-.64l.415-.377a1.488,1.488,0,0,0,1.991.1l.338.447A2.366,2.366,0,0,1,237.394,146.731Z" transform="translate(-189.141 -99.917)"/>
    <path id="Path_11845" data-name="Path 11845" d="M225.728,109.05c-.011.432.228.778.535.774s.561-.357.575-.79-.228-.778-.535-.774-.561.357-.575.79" transform="translate(-180.298 -67.712)"/>
    <path id="Path_11846" data-name="Path 11846" d="M261,106.92c-.011.433.227.779.534.775s.561-.359.576-.79-.228-.779-.535-.775-.561.359-.575.79" transform="translate(-210.625 -65.881)"/>
    <path id="Path_11847" data-name="Path 11847" d="M215.876,97.629l-.321-.46c2.14-1.495,3.341-.3,3.391-.245l-.4.39.2-.195-.2.2C218.507,97.279,217.608,96.42,215.876,97.629Z" transform="translate(-171.552 -57.533)"/>
    <g id="Group_8539" data-name="Group 8539" transform="translate(46.912 49.154)">
      <path id="Path_11848" data-name="Path 11848" d="M238.31,171.67a7.212,7.212,0,0,0,2.943.14" transform="translate(-238.03 -171.39)" fill="#fff"/>
      <path id="Path_11849" data-name="Path 11849" d="M238.447,170.468a7.706,7.706,0,0,1-1.934-.248.28.28,0,0,1,.154-.539,6.986,6.986,0,0,0,2.814.134.28.28,0,0,1,.1.551A6.129,6.129,0,0,1,238.447,170.468Z" transform="translate(-236.31 -169.671)" fill="#1d1d1b"/>
    </g>
    <g id="Group_8540" data-name="Group 8540" transform="translate(34.24 54.807)">
      <path id="Path_11850" data-name="Path 11850" d="M147.9,212.084l4.59,7.043,9.779,4.041,10.21-4.221,2.3-6.946-2.177,11.864-1.515,6.61-6.617-.775a27.086,27.086,0,0,0-4.708-.062l-6.645.492-1.167-10.349Z" transform="translate(-147.62 -211.72)" fill="#353642"/>
      <path id="Path_11851" data-name="Path 11851" d="M169.372,229.035l-.033,0-6.617-.775a26.883,26.883,0,0,0-4.654-.061l-6.645.492a.282.282,0,0,1-.3-.248l-1.162-10.3-4.03-7.649a.28.28,0,0,1,.483-.284l4.543,6.97,9.591,3.963,9.985-4.128,2.264-6.824a.28.28,0,0,1,.542.139L171.162,222.2l-1.517,6.622A.28.28,0,0,1,169.372,229.035Zm-9.327-1.471c.915,0,1.83.046,2.738.137l6.372.746,1.459-6.365,1.447-7.888-1.035,3.121a.281.281,0,0,1-.159.171l-10.21,4.222a.281.281,0,0,1-.214,0l-9.779-4.041a.281.281,0,0,1-.128-.106l-1.29-1.979,1.237,2.349a.277.277,0,0,1,.03.1l1.137,10.081,6.376-.472Q159.032,227.564,160.045,227.564Z" transform="translate(-145.899 -210)" fill="#1d1d1b"/>
    </g>
    <path id="Path_11852" data-name="Path 11852" d="M249.56,336.578a.715.715,0,0,1-.14-.038.075.075,0,0,0,.022.008A.524.524,0,0,1,249.56,336.578Z" transform="translate(-200.67 -263.998)" fill="#9898d8"/>
    <path id="Path_11853" data-name="Path 11853" d="M247.175,427.48a.981.981,0,0,0,.053.42.376.376,0,0,0,.329.233.119.119,0,0,0,.053-.015.131.131,0,0,0,.038-.052,2.165,2.165,0,0,0,.28-1.1.48.48,0,0,0-.1-.28.388.388,0,0,0-.54.031A1.558,1.558,0,0,0,247.175,427.48Z" transform="translate(-198.736 -341.431)" fill="#353642"/>
    <g id="Group_8541" data-name="Group 8541" transform="translate(33.787 91.172)">
      <path id="Path_11854" data-name="Path 11854" d="M152.426,545.784c.271-3.287-5.652-48.832-7.281-59.126s1.7-14.966,1.7-14.966c1.808.376,1.249-.583,2.705-.08,2.68.928,8.234,1.8,9.731,5.8-.353,7.413-1.636,68.356-1.439,68.93" transform="translate(-144.411 -471.182)" fill="#fff"/>
      <path id="Path_11855" data-name="Path 11855" d="M156.09,544.9a.281.281,0,0,1-.265-.19c-.146-.428.3-22.519.5-32,.316-15.06.738-33,.923-36.978-1.214-3.14-5.094-4.263-7.93-5.083-.588-.17-1.144-.331-1.609-.492-.612-.212-.766-.137-1-.024a2.072,2.072,0,0,1-1.479.15c-.522.868-2.985,5.559-1.553,14.611,1.7,10.762,7.55,55.953,7.284,59.193a.28.28,0,1,1-.559-.046c.265-3.215-5.578-48.312-7.279-59.06-1.628-10.289,1.606-14.978,1.745-15.172a.28.28,0,0,1,.285-.112,1.7,1.7,0,0,0,1.312-.069,1.57,1.57,0,0,1,1.427,0c.453.157,1,.315,1.582.484,2.967.858,7.03,2.034,8.32,5.479a.281.281,0,0,1,.018.112c-.366,7.685-1.619,67.366-1.446,68.856a.281.281,0,0,1-.274.342Zm.265-.371a.247.247,0,0,1,.007.024A.206.206,0,0,0,156.356,544.529Z" transform="translate(-142.664 -469.464)" fill="#1d1d1b"/>
    </g>
    <path id="Path_11856" data-name="Path 11856" d="M182.369,995.23l-2.479,6.7a5.242,5.242,0,0,0-.451,1.98,1.774,1.774,0,0,0,1.022,1.634c.966.362,1.933-.474,2.629-1.233,2.242-2.457,4.586-5.083,5.253-8.345a6.439,6.439,0,0,1-6.107-.561" transform="translate(-140.496 -830.368)" fill="#608cff"/>
    <path id="Path_11857" data-name="Path 11857" d="M180.508,993.669l-1.969,5.312-.492,1.313a8.878,8.878,0,0,0-.4,1.261,2.626,2.626,0,0,0,.37,2.167,1.682,1.682,0,0,0,1.891.572,4.739,4.739,0,0,0,1.854-1.4,38.525,38.525,0,0,0,3.027-3.626,12.744,12.744,0,0,0,2.195-4.727.266.266,0,0,0-.385-.3,6.189,6.189,0,0,1-5.842-.561c-.28-.189-.545.266-.266.454a6.727,6.727,0,0,0,6.373.561l-.385-.3c-.607,2.915-2.535,5.291-4.485,7.451a10.977,10.977,0,0,1-1.554,1.57,1.474,1.474,0,0,1-1.781.228,1.848,1.848,0,0,1-.545-1.753,6.319,6.319,0,0,1,.345-1.205c.151-.412.306-.824.458-1.236l2.09-5.638c.118-.318-.39-.456-.506-.14Z" transform="translate(-138.886 -828.877)" fill="#1d1d1b"/>
    <g id="Group_8542" data-name="Group 8542" transform="translate(48.378 91.172)">
      <path id="Path_11858" data-name="Path 11858" d="M250.09,546.338c.2-.575-.967-61.517-1.32-68.93,1.5-4,6.932-4.868,9.612-5.8,1.455-.5.9.456,2.705.08.007,0,3.842,4.67,2.213,14.966s-8.063,55.84-7.793,59.126" transform="translate(-248.49 -471.182)" fill="#fff"/>
      <path id="Path_11859" data-name="Path 11859" d="M248.37,544.9a.281.281,0,0,1-.273-.342c.172-1.467-.99-61.789-1.327-68.855a.28.28,0,0,1,.018-.112c1.295-3.458,5.312-4.632,8.245-5.489.563-.164,1.094-.32,1.537-.473a1.57,1.57,0,0,1,1.427,0,1.7,1.7,0,0,0,1.313.069.289.289,0,0,1,.273.1c.04.046,3.927,4.74,2.274,15.189-1.759,11.118-8.051,55.887-7.79,59.06a.28.28,0,1,1-.559.046c-.282-3.431,6.261-49.5,7.8-59.193,1.462-9.243-1.481-13.827-2.053-14.614a2.084,2.084,0,0,1-1.5-.147c-.234-.113-.388-.188-1,.024-.456.158-.994.315-1.563.481-2.8.819-6.638,1.94-7.857,5.094.183,3.947.565,21.382.864,36.979.141,7.394.591,31.552.439,32A.281.281,0,0,1,248.37,544.9Zm-.265-.371a.2.2,0,0,0-.007.024C248.1,544.544,248.1,544.537,248.105,544.529Z" transform="translate(-246.77 -469.464)" fill="#1d1d1b"/>
    </g>
    <path id="Path_11860" data-name="Path 11860" d="M259.665,995.23l2.478,6.7a5.243,5.243,0,0,1,.453,1.98,1.777,1.777,0,0,1-1.022,1.634c-.967.362-1.934-.474-2.629-1.233-2.242-2.457-4.586-5.083-5.254-8.345a6.447,6.447,0,0,0,6.108-.561" transform="translate(-204.342 -830.368)" fill="#608cff"/>
    <path id="Path_11861" data-name="Path 11861" d="M257.816,993.744l1.847,4.984c.3.814.641,1.624.894,2.456a2.463,2.463,0,0,1-.09,2.05,1.193,1.193,0,0,1-1.6.411,5.71,5.71,0,0,1-1.648-1.431,34.449,34.449,0,0,1-2.831-3.425,12.239,12.239,0,0,1-2.041-4.46l-.385.3a6.728,6.728,0,0,0,6.371-.561c.28-.188.017-.643-.265-.454a6.191,6.191,0,0,1-5.842.561.266.266,0,0,0-.387.3c.65,3.121,2.764,5.644,4.851,7.943a7.75,7.75,0,0,0,1.713,1.582,1.822,1.822,0,0,0,2.067,0,2.237,2.237,0,0,0,.79-1.854,8.4,8.4,0,0,0-.729-2.573l-2.212-5.968c-.116-.314-.625-.178-.507.14Z" transform="translate(-202.747 -828.812)" fill="#1d1d1b"/>
    <g id="Group_8543" data-name="Group 8543" transform="translate(33.499 87.823)">
      <path id="Path_11862" data-name="Path 11862" d="M170.33,447.57a31.07,31.07,0,0,1-25.677,0s-2.577,2.627-1.938,11.109c0,0,5.166-2.327,14.7,2.7h.154c9.531-5.029,14.7-2.7,14.7-2.7C172.908,450.2,170.33,447.57,170.33,447.57Z" transform="translate(-142.332 -447.29)" fill="#353642"/>
      <path id="Path_11863" data-name="Path 11863" d="M155.845,459.941h-.154a.28.28,0,0,1-.131-.032c-9.3-4.908-14.4-2.717-14.454-2.695a.28.28,0,0,1-.395-.235c-.641-8.511,1.909-11.215,2.018-11.326a.28.28,0,0,1,.321-.056,30.791,30.791,0,0,0,25.435,0,.28.28,0,0,1,.321.056c.109.111,2.659,2.815,2.018,11.326a.28.28,0,0,1-.395.235c-.05-.022-5.18-2.2-14.454,2.695A.28.28,0,0,1,155.845,459.941Zm-.085-.561h.016c8.2-4.306,13.165-3.248,14.515-2.814a22.154,22.154,0,0,0-.724-8.2,7.474,7.474,0,0,0-1.041-2.174,31.358,31.358,0,0,1-25.517,0,7.468,7.468,0,0,0-1.041,2.174,22.15,22.15,0,0,0-.724,8.2C142.6,456.132,147.563,455.074,155.761,459.38Z" transform="translate(-140.609 -445.569)" fill="#1d1d1b"/>
    </g>
    <g id="Group_8544" data-name="Group 8544" transform="translate(36.814 62.587)">
      <path id="Path_11864" data-name="Path 11864" d="M178.013,271.411a5.877,5.877,0,1,1-10.272-3.9" transform="translate(-165.98 -267.23)" fill="#353642"/>
      <path id="Path_11865" data-name="Path 11865" d="M170.417,275.848a6.157,6.157,0,0,1-4.605-10.244.28.28,0,1,1,.419.372,5.6,5.6,0,0,0,4.186,9.311h0a5.6,5.6,0,0,0,5.6-5.6.28.28,0,0,1,.561,0A6.164,6.164,0,0,1,170.417,275.848Z" transform="translate(-164.26 -265.509)" fill="#1d1d1b"/>
    </g>
    <g id="Group_8545" data-name="Group 8545" transform="translate(48.789 62.587)">
      <path id="Path_11866" data-name="Path 11866" d="M251.7,271.411a5.877,5.877,0,1,0,10.273-3.9" transform="translate(-251.42 -267.23)" fill="#353642"/>
      <path id="Path_11867" data-name="Path 11867" d="M255.857,275.846a6.164,6.164,0,0,1-6.157-6.156.28.28,0,0,1,.561,0,5.6,5.6,0,0,0,5.6,5.6h0a5.6,5.6,0,0,0,4.186-9.31.28.28,0,0,1,.419-.372,6.157,6.157,0,0,1-4.605,10.242Z" transform="translate(-249.7 -265.509)" fill="#1d1d1b"/>
    </g>
    <path id="Path_11868" data-name="Path 11868" d="M221.545,35.272c.2.767,1.162,1,1.954,1.037s1.724.071,2.16.732c.334.507.242,1.225.631,1.692.523.628,1.567.434,2.243.9a2.632,2.632,0,0,1,.809,1.208,6.349,6.349,0,0,1,.327,2.875,15.164,15.164,0,0,1-1.018,5.046,4.219,4.219,0,0,1-2.1,2.739c-.627,1.159.269,2.648,1.459,3.214a11.358,11.358,0,0,0,3.873.638,13.891,13.891,0,0,1,6.677,2.472,2.12,2.12,0,0,0-.343-2.838c-.873-.7-2.338-.726-2.767-1.759-.629-1.511,1.807-2.981,1.288-4.534-.43-1.291-2.523-1.358-2.969-2.646-.46-1.344,1.289-2.488,1.375-3.9.1-1.58-1.8-2.5-2.437-3.945a8.5,8.5,0,0,1-.387-2.641,2.628,2.628,0,0,0-1.24-2.243c-.936-.429-2.066.14-3.053-.158a5.768,5.768,0,0,1-1.713-1.179,1.789,1.789,0,0,0-1.931-.367c-.311.191-.5.527-.79.755a3.543,3.543,0,0,1-1.411.51,1.743,1.743,0,0,0-1.231.793c-.217.456.128,1.146.624,1.055" transform="translate(-176.136 -1.664)" fill="#608cff"/>
    <path id="Path_11869" data-name="Path 11869" d="M219.77,33.678c.328,1.153,1.706,1.184,2.678,1.261a1.936,1.936,0,0,1,1.417.516c.367.457.28,1.132.586,1.627a1.912,1.912,0,0,0,1.357.767,1.985,1.985,0,0,1,1.383.681,6.019,6.019,0,0,1,.674,3.857,15.11,15.11,0,0,1-.824,4.191,5.359,5.359,0,0,1-1.585,2.7,3.652,3.652,0,0,1-.328.2c-.151.088-.289.14-.369.306a2.046,2.046,0,0,0-.2.8,2.628,2.628,0,0,0,.474,1.524,3.389,3.389,0,0,0,1.235,1.121,5.8,5.8,0,0,0,1.987.549c.69.084,1.385.1,2.076.164a13.258,13.258,0,0,1,1.987.341,13.666,13.666,0,0,1,3.753,1.553q.42.259.841.547a.268.268,0,0,0,.359-.1,2.364,2.364,0,0,0,.317-2.1,2.475,2.475,0,0,0-1.442-1.5,5.147,5.147,0,0,1-1.756-.9,1.317,1.317,0,0,1-.1-1.515c.5-1.072,1.682-2.21,1.121-3.487a2.81,2.81,0,0,0-1.319-1.2,3.966,3.966,0,0,1-1.421-.981,1.5,1.5,0,0,1,.077-1.654,12.035,12.035,0,0,0,1.022-1.857,2.331,2.331,0,0,0-.235-1.962,11.254,11.254,0,0,0-1.353-1.624,5.049,5.049,0,0,1-.62-.831,3.224,3.224,0,0,1-.38-1.224,12.325,12.325,0,0,0-.329-2.607,2.239,2.239,0,0,0-1.582-1.571c-.856-.181-1.731.188-2.579-.011s-1.361-.981-2.076-1.4a2.253,2.253,0,0,0-1.207-.349,1.552,1.552,0,0,0-1.095.561,3.1,3.1,0,0,1-.437.441,1.823,1.823,0,0,1-.561.259,11.731,11.731,0,0,0-1.2.332,1.621,1.621,0,0,0-.9.757,1.089,1.089,0,0,0,.055,1.015.833.833,0,0,0,.866.42.265.265,0,0,0,.184-.324.271.271,0,0,0-.322-.184c-.233.034-.355-.31-.359-.484,0-.331.317-.561.584-.684a6.547,6.547,0,0,1,1.121-.318,2.3,2.3,0,0,0,1.083-.582c.27-.272.491-.624.9-.684a1.683,1.683,0,0,1,1.074.3c.7.42,1.194,1.113,1.993,1.375a9.873,9.873,0,0,0,2.484.022,1.681,1.681,0,0,1,1.487,1.284,12.937,12.937,0,0,1,.3,2.484,3.935,3.935,0,0,0,.359,1.261,4.61,4.61,0,0,0,.573.841c.741.9,2.083,1.868,1.706,3.2-.338,1.193-1.732,2.217-1.313,3.573.376,1.217,1.8,1.385,2.624,2.163.966.908-.013,2.1-.523,2.969a2.814,2.814,0,0,0-.514,1.638,1.851,1.851,0,0,0,1.085,1.448,15.158,15.158,0,0,1,1.787.83,1.835,1.835,0,0,1,.722,1.682,1.746,1.746,0,0,1-.35.89l.357-.071a14.2,14.2,0,0,0-3.617-1.822,15.511,15.511,0,0,0-4-.74c-1.232-.078-2.671-.123-3.631-1.009a2.611,2.611,0,0,1-.8-1.334,1.583,1.583,0,0,1,0-.72,1.522,1.522,0,0,1,.056-.177c.008-.022.02-.045.028-.067s.049-.06,0-.015a3.757,3.757,0,0,1,.373-.219,3.607,3.607,0,0,0,1.065-1.081,7.953,7.953,0,0,0,.671-1.424,15.582,15.582,0,0,0,1.012-4.175,19.272,19.272,0,0,0,.1-2.049,5.263,5.263,0,0,0-.357-1.986A2.666,2.666,0,0,0,227,37.66a9.231,9.231,0,0,0-1.529-.441,1.018,1.018,0,0,1-.554-.383,2.309,2.309,0,0,1-.262-.793,1.806,1.806,0,0,0-.931-1.348,4.2,4.2,0,0,0-1.652-.3,2.774,2.774,0,0,1-1.434-.357.866.866,0,0,1-.363-.489.263.263,0,0,0-.507.14Z" transform="translate(-174.615)" fill="#1d1d1b"/>
    <path id="Path_11870" data-name="Path 11870" d="M145.861,36.786a2.824,2.824,0,0,0-.3-2.573,1.764,1.764,0,0,0-2.383-.42c-.561.449-.713,1.252-1.215,1.766-.7.719-1.833.685-2.835.709s-2.192.3-2.533,1.242c-.4,1.1.68,2.243.551,3.409-.177,1.608-2.43,2.255-2.8,3.828-.413,1.718,1.652,3.5.851,5.075a5.128,5.128,0,0,1-1.479,1.379c-.521.437-.953,1.172-.631,1.77.3.561,1.13.7,1.393,1.288.3.657-.3,1.355-.863,1.808s-1.214,1.058-1.039,1.758a1.264,1.264,0,0,0,1.193.841,4.137,4.137,0,0,0,1.519-.322,55.51,55.51,0,0,1,10-2.079,3.766,3.766,0,0,0-1.121-3.224c-.292-.28-.649-.538-.725-.932-.086-.446.228-.889.175-1.338-.1-.789-1.215-1.128-1.329-1.915-.087-.6.474-1.121.552-1.723.161-1.249-1.711-2.251-1.233-3.416.231-.561.933-.819,1.156-1.383.237-.6-.161-1.261-.123-1.9.055-.915.936-1.523,1.71-2.014s1.626-1.179,1.563-2.094" transform="translate(-100.174 -3.424)" fill="#608cff"/>
    <path id="Path_11871" data-name="Path 11871" d="M144.468,35.241a3.121,3.121,0,0,0-.237-2.645,2.156,2.156,0,0,0-2.072-.959,1.668,1.668,0,0,0-1.037.569,6,6,0,0,0-.65,1.065,1.884,1.884,0,0,1-.868.848,3.4,3.4,0,0,1-1.175.242,8.583,8.583,0,0,0-2.453.28,1.93,1.93,0,0,0-1.383,1.69,12.271,12.271,0,0,0,.626,2.477,1.994,1.994,0,0,1-.7,1.734c-.47.472-1.048.893-1.491,1.421A2.523,2.523,0,0,0,132.4,44a9.6,9.6,0,0,0,.76,2.168,2.261,2.261,0,0,1,.1,2,3.287,3.287,0,0,1-.946.893,3.668,3.668,0,0,0-.947.912,1.573,1.573,0,0,0-.266,1.261,1.627,1.627,0,0,0,.757.884c.262.172.6.336.733.641.177.405-.14.841-.4,1.121-.579.618-1.542,1.106-1.559,2.073S131.662,57.4,132.5,57.3a9.015,9.015,0,0,0,1.581-.444c.521-.164,1.02-.315,1.542-.454a56.775,56.775,0,0,1,6.492-1.261l1.589-.231a.256.256,0,0,0,.184-.184,4,4,0,0,0-1.306-3.585c-.29-.265-.6-.527-.533-.959a2.473,2.473,0,0,0,.123-1.28,2.11,2.11,0,0,0-.6-.812,2.345,2.345,0,0,1-.628-.712,1.141,1.141,0,0,1,.181-.952,2.243,2.243,0,0,0,.335-1.13,2.157,2.157,0,0,0-.307-.933,8.356,8.356,0,0,1-.967-1.587c-.22-.732.527-1.072.922-1.55a1.481,1.481,0,0,0,.328-1.155,5.413,5.413,0,0,1-.178-1.327c.121-.883,1.085-1.381,1.746-1.822a2.727,2.727,0,0,0,1.519-2.209c-.017-.336-.542-.339-.526,0,.042.828-.72,1.4-1.346,1.812a4.359,4.359,0,0,0-1.746,1.606,2.034,2.034,0,0,0-.129,1.273,2.274,2.274,0,0,1,.09,1.232c-.14.339-.492.561-.744.8a1.529,1.529,0,0,0-.5.953,2.684,2.684,0,0,0,.715,1.682,1.88,1.88,0,0,1,.526,1.682,7.026,7.026,0,0,0-.472,1.13,1.269,1.269,0,0,0,.245,1,7.045,7.045,0,0,0,.718.73.917.917,0,0,1,.343.821c-.042.249-.14.486-.17.739a1.171,1.171,0,0,0,.123.7c.226.429.676.7.981,1.065a3.5,3.5,0,0,1,.755,2.648l.184-.184c-2.1.3-4.195.607-6.265,1.058-1.02.223-2.035.482-3.033.793-.5.157-1,.359-1.512.478a1.568,1.568,0,0,1-1.226-.132.735.735,0,0,1-.313-.905,2.465,2.465,0,0,1,.81-.952c.611-.509,1.42-1.282,1.055-2.165a1.811,1.811,0,0,0-.765-.783c-.259-.168-.577-.338-.69-.645a1.154,1.154,0,0,1,.321-1.072,6.214,6.214,0,0,1,.981-.82,2.842,2.842,0,0,0,.841-.914,2.061,2.061,0,0,0,.22-1.041,6.364,6.364,0,0,0-.66-2.083,3.348,3.348,0,0,1-.385-2.014,3.18,3.18,0,0,1,1.109-1.516,7.331,7.331,0,0,0,1.367-1.41,2.424,2.424,0,0,0,.186-2.112c-.216-.691-.7-1.532-.378-2.259a2.071,2.071,0,0,1,1.742-.952,17.859,17.859,0,0,0,2.416-.2,2.421,2.421,0,0,0,1.081-.582,3.876,3.876,0,0,0,.662-1,2,2,0,0,1,.727-.891,1.351,1.351,0,0,1,.992-.083,1.813,1.813,0,0,1,1.274,1.682,3.2,3.2,0,0,1-.154,1.217c-.1.322.4.461.506.14Z" transform="translate(-98.528 -1.815)" fill="#1d1d1b"/>
  </g>
</svg>
