<svg xmlns="http://www.w3.org/2000/svg" width="72.466" height="90" viewBox="0 0 72.466 90">
  <g id="Group_8900" data-name="Group 8900" transform="translate(0.483)">
    <rect id="Rectangle_6135" data-name="Rectangle 6135" width="72" height="90" transform="translate(-0.483)" fill="#fff"/>
    <g id="health_gym_workout_weights_weight_lifting_man" data-name="health, gym, workout, weights, weight lifting, man" transform="translate(0 0)">
      <path id="Path_12989" data-name="Path 12989" d="M380.336,875c-.094,2.823-1.028,5.552-1.19,8.375a.935.935,0,0,0,.088.565.962.962,0,0,0,.736.33,18.93,18.93,0,0,0,5.779-.188,1.3,1.3,0,0,0,.817-.376,1.011,1.011,0,0,0-.112-1.209,9.8,9.8,0,0,0-.963-.886,1.327,1.327,0,0,1-.407-.674,1.684,1.684,0,0,1,.032-.6,36.538,36.538,0,0,1,1.288-5.082" transform="translate(-354.52 -794.697)" fill="#608cff"/>
      <path id="Path_12990" data-name="Path 12990" d="M379.335,874.671c-.148,1.968-.583,3.872-.925,5.811a14.061,14.061,0,0,0-.327,2.707c.014.584.4.775.928.847a18.105,18.105,0,0,0,5.713-.182c.537-.1,1.129-.3,1.129-.948,0-.683-.576-1.09-1.035-1.49a1.939,1.939,0,0,1-.511-.6,1.472,1.472,0,0,1-.022-.964c.094-.535.209-1.066.331-1.594.258-1.117.571-2.22.93-3.309.04-.121-.151-.173-.188-.053a37.016,37.016,0,0,0-1.262,4.909,1.5,1.5,0,0,0,.323,1.492c.471.49,1.788,1.246,1.063,2.051a1.771,1.771,0,0,1-1.077.376q-.753.124-1.506.188a19.018,19.018,0,0,1-2.541.041c-.438-.022-.877-.055-1.312-.112-.188-.025-.513-.052-.637-.215a1.438,1.438,0,0,1-.109-.941c.07-.869.206-1.733.359-2.592a32.311,32.311,0,0,0,.753-5.426.042.042,0,0,0-.084,0Z" transform="translate(-353.562 -794.368)" fill="#a0d195"/>
      <path id="Path_12991" data-name="Path 12991" d="M605.84,866.283a59.787,59.787,0,0,1,1.718,6.743,2.4,2.4,0,0,0,.7,1.538,2.356,2.356,0,0,0,1.35.329l1.76.064a7.32,7.32,0,0,0,2.9-.282c.441-.169.912-.573.773-1.025a1.084,1.084,0,0,0-.267-.394,15.292,15.292,0,0,0-1.754-1.719,2.511,2.511,0,0,1-.557-.522,2.156,2.156,0,0,1-.282-.9q-.434-2.722-.867-5.445" transform="translate(-559.887 -785.339)" fill="#608cff"/>
      <path id="Path_12992" data-name="Path 12992" d="M605.37,865.384c.545,1.952,1.092,3.894,1.5,5.879a5.592,5.592,0,0,0,.621,2.164,2.11,2.11,0,0,0,1.788.652c.936.036,1.882.1,2.817.08a3.745,3.745,0,0,0,2.258-.582.794.794,0,0,0,.144-1.215,13.123,13.123,0,0,0-1.956-1.9,2.073,2.073,0,0,1-.723-1.466q-.138-.859-.273-1.721l-.565-3.538c-.019-.121-.2-.07-.188.051q.418,2.635.837,5.263a3.171,3.171,0,0,0,.242.968,2.463,2.463,0,0,0,.716.73,13.221,13.221,0,0,1,1.694,1.667c.924,1.079-1.079,1.478-1.78,1.533a21.843,21.843,0,0,1-2.432-.028c-.787-.028-1.9.116-2.421-.607a6.138,6.138,0,0,1-.64-2.269,46.123,46.123,0,0,0-1.548-5.682.045.045,0,1,0-.087.024Z" transform="translate(-559.462 -784.428)" fill="#a0d195"/>
      <path id="Path_12993" data-name="Path 12993" d="M377.46,873.794c-.14.955-.242,1.911-.43,2.852s-.4,1.9-.581,2.851a18.1,18.1,0,0,0-.35,2.7c-.025.745.368,1.088,1.078,1.184a18.253,18.253,0,0,0,5.71-.182c.621-.115,1.3-.334,1.337-1.074.04-.764-.565-1.231-1.081-1.681a1.716,1.716,0,0,1-.471-.538,1.324,1.324,0,0,1-.009-.847c.094-.534.212-1.064.335-1.593q.392-1.674.941-3.306c.12-.363-.455-.52-.573-.158a37.062,37.062,0,0,0-1.238,4.908,1.694,1.694,0,0,0,.376,1.67c.376.4,1.67,1.129,1.072,1.8-.227.255-.685.275-1.005.326q-.725.117-1.458.175a19.522,19.522,0,0,1-2.541.034c-.429-.022-.86-.052-1.286-.109-.158-.022-.411-.035-.525-.163-.151-.17-.067-.6-.051-.8.069-.853.2-1.7.343-2.541a24.162,24.162,0,0,0,.659-5.476c-.008-.131-.223-.181-.245-.033Z" transform="translate(-351.764 -793.52)"/>
      <path id="Path_12994" data-name="Path 12994" d="M604.433,863.592c.406,1.976,1.019,3.916,1.411,5.9a5.534,5.534,0,0,0,.645,2.234,2.3,2.3,0,0,0,1.935.729c.936.037,1.882.106,2.817.083a4.019,4.019,0,0,0,2.361-.609,1,1,0,0,0,.188-1.523,14.344,14.344,0,0,0-1.956-1.9,1.92,1.92,0,0,1-.672-1.379c-.093-.581-.184-1.149-.279-1.724l-.571-3.536c-.059-.363-.609-.208-.552.152.277,1.755.55,3.51.832,5.264a3.152,3.152,0,0,0,.262,1.015,2.905,2.905,0,0,0,.81.822,12.363,12.363,0,0,1,1.666,1.661c.692.839-1.29,1.129-1.762,1.159a23.756,23.756,0,0,1-2.44-.035c-.725-.026-1.8.117-2.235-.6a7.8,7.8,0,0,1-.6-2.3,30.871,30.871,0,0,0-1.608-5.516c-.064-.148-.277-.037-.247.105Z" transform="translate(-558.611 -782.612)"/>
      <path id="Path_12995" data-name="Path 12995" d="M392.134,414.37c-1.183,6.364-2.371,12.8-2.09,19.263a45.44,45.44,0,0,1,.136,5.942,41.289,41.289,0,0,1-1.15,5.677,52.348,52.348,0,0,0-1.158,7.288q-.12,1.387-.169,2.781c-.03.885-.219,1.827-.17,2.7a2.005,2.005,0,0,0,.528,1.311,2.353,2.353,0,0,0,1.152.552c1.815.415,4.668-.01,5.425-2.035a104.1,104.1,0,0,0,6.375-42.7" transform="translate(-362.116 -377.413)" fill="#010101"/>
      <path id="Path_12996" data-name="Path 12996" d="M388.87,412.991c-1.486,6.716-2.567,13.614-2.164,20.508a28.874,28.874,0,0,1,.006,5.274,49.511,49.511,0,0,1-1.086,5.061,53.407,53.407,0,0,0-1.334,9.958c-.053,1.318-.621,3.139.314,4.269a3.821,3.821,0,0,0,3.042.915,5.433,5.433,0,0,0,2.961-.888c1.061-.753,1.359-1.976,1.773-3.15a106.086,106.086,0,0,0,5.938-38.672q-.045-1.223-.121-2.447c-.024-.4-.659-.407-.632,0a104.485,104.485,0,0,1-.515,18.807,102.955,102.955,0,0,1-3.987,18.5q-.709,2.258-1.522,4.483a4.31,4.31,0,0,1-.859,1.67,3.481,3.481,0,0,1-1.349.811,5.915,5.915,0,0,1-3.026.2,1.747,1.747,0,0,1-1.565-1.26,7.237,7.237,0,0,1,.065-2.3c.154-1.625.172-3.258.356-4.883q.282-2.466.8-4.9c.332-1.565.77-3.105,1.076-4.676a20.546,20.546,0,0,0,.329-4.826c-.071-1.67-.216-3.334-.223-5.006s.074-3.322.218-4.975c.291-3.333.841-6.63,1.383-9.93.135-.824.272-1.648.4-2.474.026-.175-.232-.256-.273-.075Z" transform="translate(-358.988 -376.069)"/>
      <path id="Path_12997" data-name="Path 12997" d="M502.409,399.218c1.858,1.429,2.635,3.822,3.31,6.066,3.549,11.774,6.244,24.12,6.628,36.412a4.147,4.147,0,0,1-.188,1.694c-.659,1.605-2.483,1.456-3.952,1.325a3.819,3.819,0,0,1-1.215-.266,3.293,3.293,0,0,1-1.462-2.159c-1.964-5.747-3.95-11.6-4.181-17.668a7.744,7.744,0,0,0-.421-2.836,8.679,8.679,0,0,0-1.089-1.644c-4.252-5.683-4.494-13.4-3.664-20.457a2.484,2.484,0,0,0-.445-2.214" transform="translate(-460.139 -362.104)" fill="#010101"/>
      <path id="Path_12998" data-name="Path 12998" d="M499.377,396.356c2.353,2.049,3.011,5.407,3.834,8.272.987,3.456,1.906,6.932,2.7,10.435a129.57,129.57,0,0,1,3.134,21.412c.049.878.105,1.762.108,2.641a2.3,2.3,0,0,1-.818,2.018,2.982,2.982,0,0,1-1.648.415,9.264,9.264,0,0,1-1.963-.148c-1.637-.329-1.933-2.331-2.39-3.676-.576-1.694-1.139-3.4-1.646-5.12a45.288,45.288,0,0,1-1.976-10.508,19.374,19.374,0,0,0-.168-2.384,5.011,5.011,0,0,0-1-2.15A20.53,20.53,0,0,1,495.2,413.7a24.751,24.751,0,0,1-1.97-8.817,41.648,41.648,0,0,1,.018-4.6q.062-1.108.171-2.211c.07-.717.207-1.444.206-2.164a2.17,2.17,0,0,0-.59-1.626c-.282-.277-.722.16-.436.436a2.4,2.4,0,0,1,.351,2.07c-.087.781-.165,1.564-.223,2.353a44.8,44.8,0,0,0-.119,4.753,26.974,26.974,0,0,0,1.694,9.065,18.771,18.771,0,0,0,2.121,3.99,9.369,9.369,0,0,1,1.45,2.258,9.529,9.529,0,0,1,.3,2.629,46.19,46.19,0,0,0,2,10.827c.52,1.778,1.1,3.537,1.694,5.292.4,1.2.71,2.969,1.9,3.67a4.545,4.545,0,0,0,1.985.435,7.263,7.263,0,0,0,1.779-.039,2.54,2.54,0,0,0,2.17-2.427,20.443,20.443,0,0,0-.059-2.663q-.067-1.4-.171-2.789c-.139-1.862-.334-3.721-.569-5.574-.47-3.685-1.1-7.347-1.868-10.982-.774-3.67-1.682-7.308-2.689-10.916-.483-1.732-.987-3.46-1.533-5.176a13.644,13.644,0,0,0-1.821-3.971,6.14,6.14,0,0,0-1.416-1.4c-.139-.1-.314.125-.188.239Z" transform="translate(-457.214 -359.133)"/>
      <path id="Path_12999" data-name="Path 12999" d="M809.084,130.809l-3.257-.316a1.934,1.934,0,0,1-.686-.154,1.757,1.757,0,0,1-.753-1.239,11.239,11.239,0,0,1,0-5.352,2.228,2.228,0,0,1,.93-1.526,2.184,2.184,0,0,1,.9-.2,10.745,10.745,0,0,1,2.69.167,1.635,1.635,0,0,1,1.536,1.193,9.8,9.8,0,0,1,.169,6.681,1.357,1.357,0,0,1-.39.659.516.516,0,0,1-.7-.031" transform="translate(-739.459 -112.553)"/>
      <path id="Path_13000" data-name="Path 13000" d="M808.209,129.993l-2.533-.275a5.421,5.421,0,0,1-1.247-.177,1.369,1.369,0,0,1-.775-.991,10.582,10.582,0,0,1-.2-4.958,2.887,2.887,0,0,1,.966-2.043,4.772,4.772,0,0,1,2.628-.2c.823.078,1.9.149,2.316.981a7.866,7.866,0,0,1,.677,2.3,9.938,9.938,0,0,1,.057,2.716,9.619,9.619,0,0,1-.264,1.366c-.105.388-.483,1.788-1.129,1.157-.069-.066-.172.038-.1.1.452.446.965-.027,1.149-.477a8.609,8.609,0,0,0,.565-2.9,9.873,9.873,0,0,0-.351-3.068c-.211-.753-.443-1.652-1.223-2a7.173,7.173,0,0,0-2.869-.387,2.178,2.178,0,0,0-2.055.8,6.186,6.186,0,0,0-.669,2.664,11.343,11.343,0,0,0,.149,3.147c.144.767.33,1.759,1.208,1.983a10.693,10.693,0,0,0,1.709.174l1.99.171a.044.044,0,0,0,0-.088Z" transform="translate(-738.584 -111.781)"/>
      <path id="Path_13001" data-name="Path 13001" d="M805.648,123.689a1.237,1.237,0,0,0-.209-.169,1.348,1.348,0,0,0-.182.08,2.228,2.228,0,0,0-.93,1.526,11.239,11.239,0,0,0,0,5.352,1.79,1.79,0,0,0,.753,1.239h0l.044-.011a.333.333,0,0,0,.051.053,1.672,1.672,0,0,0,.393.094.594.594,0,0,0,.255-.112,1.357,1.357,0,0,0,.391-.659,9.81,9.81,0,0,0-.17-6.681,2.047,2.047,0,0,0-.4-.712Z" transform="translate(-739.405 -113.933)" fill="#a0d195"/>
      <path id="Path_13002" data-name="Path 13002" d="M804.259,122.343c-.941-.853-1.58,1.443-1.694,2.017a11.42,11.42,0,0,0,.094,4.84,2.1,2.1,0,0,0,.743,1.354c.049.03.339.143.172.081a1.021,1.021,0,0,0,.612.11c.547-.135.708-.885.836-1.339a10.018,10.018,0,0,0,.118-4.86,5.044,5.044,0,0,0-.885-2.2c-.132-.151-.351.07-.219.22a4.54,4.54,0,0,1,.768,1.9,9.73,9.73,0,0,1,.055,4.291,9.21,9.21,0,0,1-.261.964c-.087.264-.45,1.071-.856.641a.158.158,0,0,0-.151-.04c-.054.011-.029.02.073.026a.6.6,0,0,1-.183-.13,1.292,1.292,0,0,1-.319-.45,4.309,4.309,0,0,1-.263-.906,11.118,11.118,0,0,1,.036-4.761c.066-.288.582-2.006,1.1-1.538C804.188,122.7,804.409,122.477,804.259,122.343Z" transform="translate(-737.906 -112.696)" fill="#a0d195"/>
      <path id="Path_13003" data-name="Path 13003" d="M806.022,127.58l-2.5-.359a10.443,10.443,0,0,1-1.139-.153,1.025,1.025,0,0,1-.684-.753,9.878,9.878,0,0,1-.261-4.865,3,3,0,0,1,.816-1.954,2.237,2.237,0,0,1,1.211-.245,10.666,10.666,0,0,1,1.263.033c.73.061,1.765.1,2.173.814a6.86,6.86,0,0,1,.664,2.221,9.788,9.788,0,0,1,.069,2.738,9.06,9.06,0,0,1-.253,1.3c-.053.2-.351,1.44-.753,1.063a.294.294,0,0,0-.416.416c.581.588,1.286.033,1.529-.572a9,9,0,0,0,.584-2.959,9.88,9.88,0,0,0-.36-3.131,2.966,2.966,0,0,0-1.333-2.133,7.364,7.364,0,0,0-2.986-.422,2.392,2.392,0,0,0-2.258.911,6.437,6.437,0,0,0-.7,2.784,11.557,11.557,0,0,0,.153,3.211c.16.86.4,1.906,1.38,2.146a9.6,9.6,0,0,0,1.772.146l1.99.1c.2.01.247-.32.047-.348Z" transform="translate(-736.35 -109.495)"/>
      <path id="Path_13004" data-name="Path 13004" d="M721.189,92.048l-5.928-.8a3.484,3.484,0,0,1-1.242-.327,3.252,3.252,0,0,1-1.3-2.314,20.569,20.569,0,0,1,.355-9.779,4.089,4.089,0,0,1,1.8-2.729,4.012,4.012,0,0,1,1.654-.308,19.668,19.668,0,0,1,4.915.483,3.807,3.807,0,0,1,2.035.971,3.758,3.758,0,0,1,.7,1.311,17.927,17.927,0,0,1-.136,12.224,2.49,2.49,0,0,1-.758,1.183.939.939,0,0,1-1.275-.1" transform="translate(-656.321 -70.693)" fill="#fff"/>
      <path id="Path_13005" data-name="Path 13005" d="M715.571,78.073a2.269,2.269,0,0,0-.37-.323,2.575,2.575,0,0,0-.337.133,4.08,4.08,0,0,0-1.8,2.729,20.568,20.568,0,0,0-.355,9.779,3.256,3.256,0,0,0,1.3,2.314h0l.082-.019a.656.656,0,0,0,.088.1,3.1,3.1,0,0,0,.712.188,1.075,1.075,0,0,0,.47-.188,2.443,2.443,0,0,0,.753-1.183,17.921,17.921,0,0,0,.136-12.224A3.587,3.587,0,0,0,715.571,78.073Z" transform="translate(-656.312 -72.47)" fill="#608cff"/>
      <path id="Path_13006" data-name="Path 13006" d="M714.242,76.445c-.116-.117-.3-.345-.48-.368a1.3,1.3,0,0,0-.534.215,2.96,2.96,0,0,0-1,.965,9.306,9.306,0,0,0-1.129,3.336,20.771,20.771,0,0,0-.049,7.972,4.05,4.05,0,0,0,1.223,2.612,1.92,1.92,0,0,0,.3.165l.041-.006c.051-.024.057-.009.019.042.071.031.125.062.206.094a1.168,1.168,0,0,0,1.2-.089,2.609,2.609,0,0,0,.8-1.252,16.6,16.6,0,0,0,.6-1.9,18.172,18.172,0,0,0,.2-8,8.547,8.547,0,0,0-1.4-3.787c-.131-.152-.349.069-.22.22a5.245,5.245,0,0,1,.865,1.874,17.588,17.588,0,0,1,.483,1.936,17.867,17.867,0,0,1-.319,7.994,12.708,12.708,0,0,1-.659,1.943,1.753,1.753,0,0,1-.551.729.9.9,0,0,1-1.073-.081.155.155,0,0,0-.152-.04q-.1.011.034.031l-.111-.067a2.794,2.794,0,0,1-.418-.391,2.919,2.919,0,0,1-.436-.8,9.593,9.593,0,0,1-.426-1.829,20.344,20.344,0,0,1-.226-4.443,20.094,20.094,0,0,1,.741-4.386,6.492,6.492,0,0,1,.659-1.605,3.011,3.011,0,0,1,.565-.684,2.188,2.188,0,0,1,.455-.313c.274-.142.365-.08.577.135a.156.156,0,0,0,.212-.221Z" transform="translate(-654.874 -70.953)" fill="#608cff"/>
      <path id="Path_13007" data-name="Path 13007" d="M718.14,88.85l-4.969-.79A5.028,5.028,0,0,1,710.9,87.5a2.842,2.842,0,0,1-.879-1.62,19.457,19.457,0,0,1,.142-9.568c.324-1.242.8-2.759,2.2-3.113a8.323,8.323,0,0,1,2.3-.116,19.182,19.182,0,0,1,2.467.243,10.207,10.207,0,0,1,2.1.5,2.524,2.524,0,0,1,1.462,1.573,16.717,16.717,0,0,1,1,4.507,17.907,17.907,0,0,1-.275,5.047,17.536,17.536,0,0,1-.693,2.481c-.188.515-.885,2.039-1.612,1.188-.248-.29-.653.127-.416.416a1.228,1.228,0,0,0,1.538.225,3.11,3.11,0,0,0,1.147-1.82,18.161,18.161,0,0,0,.478-10.408c-.372-1.482-.8-3.112-2.33-3.751a10.932,10.932,0,0,0-2.493-.6,20.267,20.267,0,0,0-2.813-.237,6.221,6.221,0,0,0-2.432.277A3.119,3.119,0,0,0,710.3,74.12a13.04,13.04,0,0,0-1.279,4.8,20.873,20.873,0,0,0,.066,5.539c.231,1.6.565,3.6,2.428,3.984,1.028.214,2.1.27,3.145.385l3.428.376c.2.022.245-.317.047-.348Z" transform="translate(-653.225 -67.665)"/>
      <path id="Path_13008" data-name="Path 13008" d="M518.776,142.331A14.1,14.1,0,0,0,525,141.6a6.24,6.24,0,0,0,3.651-3.839,17.4,17.4,0,0,0,.249-6.8c-.123-1.167-.3-2.327-.479-3.482a6.377,6.377,0,0,1-.149-1.755,6.058,6.058,0,0,1,.679-1.614,2.736,2.736,0,0,0,.215-1.178,6.24,6.24,0,0,0-.107-.659,1.658,1.658,0,0,1,.146-.83,1.786,1.786,0,0,0-.659-1.932,2.914,2.914,0,0,0-4.272.743,5.227,5.227,0,0,0-.37,1.23,6.826,6.826,0,0,0-.209,1.694,13.652,13.652,0,0,1,.094,1.7,9.292,9.292,0,0,1-.368,1.752,33.311,33.311,0,0,0-1.054,6.764c-.018.265.045.781-.173.92a.508.508,0,0,1-.359.031c-.183-.022-.363-.061-.542-.094-.537-.11-1.072-.237-1.607-.351a46.965,46.965,0,0,0-5.881-.95c-.327-.027-.408.532-.078.578,1.747.247,3.5.442,5.232.788.881.176,1.755.415,2.642.553.43.067.979.127,1.188-.352a4.123,4.123,0,0,0,.142-1.3c.04-.57.081-1.14.133-1.71a24.2,24.2,0,0,1,.517-3.4,29,29,0,0,0,.709-2.9,6.048,6.048,0,0,0-.014-1.522,5.616,5.616,0,0,1,.078-1.8c.2-1.008.475-2.137,1.63-2.419a2.688,2.688,0,0,1,2.471.637,1.223,1.223,0,0,1,.266,1.189,3.187,3.187,0,0,0-.2.578,1.9,1.9,0,0,0,.094.659,2.334,2.334,0,0,1-.188,1.52,6.962,6.962,0,0,0-.586,1.236,7.569,7.569,0,0,0,.179,2.963,34.773,34.773,0,0,1,.505,6.874,7.964,7.964,0,0,1-.823,3.521,5.74,5.74,0,0,1-2.064,2.062c-2.055,1.242-4.517,1.343-6.854,1.308a.152.152,0,0,0,0,.3Z" transform="translate(-476.248 -109.75)"/>
      <path id="Path_13009" data-name="Path 13009" d="M464.236,178.573c-.1-1.217-.571-2.379-.691-3.594a3.191,3.191,0,0,1,1.309-3.193,3.577,3.577,0,0,1,2.174-.222,2.945,2.945,0,0,1,1.332.437,3.125,3.125,0,0,1,1,1.694,22.524,22.524,0,0,1,.6,2.368,4.609,4.609,0,0,1,.075,1.9,2.253,2.253,0,0,1-1.492,1.406.743.743,0,0,0-.376.16.559.559,0,0,0-.112.363,9.89,9.89,0,0,0,.057,2.284c.188.919-1.71.5-2.641.385a1.82,1.82,0,0,1-1.3-.552c-.538-.729.39-2.076.077-3.431" transform="translate(-430.963 -157.396)" fill="#fff"/>
      <path id="Path_13010" data-name="Path 13010" d="M461.876,175.325c-.114-1.882-1.269-4.153-.058-5.889a2.642,2.642,0,0,1,2.784-.79,2.119,2.119,0,0,1,1.348.616,3.944,3.944,0,0,1,.659,1.435,11.809,11.809,0,0,1,.7,3.412,1.631,1.631,0,0,1-.659,1.361,2.046,2.046,0,0,1-.63.348,1.225,1.225,0,0,0-.565.252c-.245.255-.205.678-.218,1a9.7,9.7,0,0,0,.033,1.56c.038.307.157.48-.188.557a3.208,3.208,0,0,1-1.013-.019c-.709-.079-2.233-.052-2.291-.987a7.592,7.592,0,0,1,.205-1.463,3.97,3.97,0,0,0-.035-1.453c-.061-.271-.455-.152-.409.113a4.809,4.809,0,0,1-.193,1.888,2.656,2.656,0,0,0-.085,1.3c.27.941,1.4.983,2.2,1.1.625.094,1.608.332,2.172-.082a.684.684,0,0,0,.267-.659,15.082,15.082,0,0,1-.072-2c.008-.188-.023-.362.158-.493a1.705,1.705,0,0,1,.314-.094,2.557,2.557,0,0,0,.6-.324,2.29,2.29,0,0,0,.92-1.223,7.655,7.655,0,0,0-.452-3.757c-.3-1.072-.63-2.3-1.748-2.774a4.3,4.3,0,0,0-3.411.011,3.137,3.137,0,0,0-1.431,2.693c-.072,1.506.637,2.9.832,4.363.023.17.288.183.277,0Z" transform="translate(-428.464 -154.149)"/>
      <path id="Path_13011" data-name="Path 13011" d="M507.677,153.119a.406.406,0,0,0-.087.3c.015.078.084.142.164.094l.02-.015c.019-.014.016-.017-.01-.01l.04.046a.211.211,0,0,0,.1.075.188.188,0,0,0,.226-.081c.036-.063-.052-.135-.1-.079-.1.105-.15-.1-.258-.094a.11.11,0,0,0-.063.026.142.142,0,0,0-.024.024c.034.011.042,0,.025-.021a1.106,1.106,0,0,0,.02-.133.769.769,0,0,0,.023-.1.042.042,0,0,0-.071-.029Z" transform="translate(-470.88 -140.734)" fill="#fff"/>
      <path id="Path_13012" data-name="Path 13012" d="M497.437,207.794a.222.222,0,0,0-.215-.042.265.265,0,0,0-.149.122.258.258,0,0,0-.021.188.21.21,0,0,0,.25.149.182.182,0,0,0,.107-.264.255.255,0,0,0-.078-.077l.038.029-.008-.008.028.037a.043.043,0,0,1-.009-.016l.018.043a.068.068,0,0,1,0-.012l.007.048a.127.127,0,0,1,0-.026l-.006.047a.069.069,0,0,1,.006-.019l-.018.041c.008-.014,0-.008-.015.018.012-.012.008-.009-.015.009a.307.307,0,0,0,.049-.035l.018-.016.012-.009a.156.156,0,0,0,.026-.036.145.145,0,0,0-.023-.173Z" transform="translate(-461.329 -190.228)"/>
      <path id="Path_13013" data-name="Path 13013" d="M517.478,207.38a.227.227,0,0,0-.289.152.232.232,0,0,0,.009.157.2.2,0,0,0,.084.1.2.2,0,0,0,.188,0l.037-.027a.128.128,0,0,0,.037-.058.162.162,0,0,0,.009-.117.235.235,0,0,0-.048-.084.222.222,0,0,0-.044-.034l.037.028-.007-.006.029.037a.058.058,0,0,1-.008-.012l.019.043a.079.079,0,0,1,0-.013l.007.047a.042.042,0,0,1,0-.015l-.007.047a.078.078,0,0,1,0-.014l-.018.042a.08.08,0,0,1,.009-.014l-.027.035.014-.013-.035.027a.218.218,0,0,0,.049-.039l.016-.018a.153.153,0,0,0,.039-.146.15.15,0,0,0-.1-.1Z" transform="translate(-479.57 -189.891)"/>
      <path id="Path_13014" data-name="Path 13014" d="M492.35,198.137c.127-.033.238-.1.369-.124a3.317,3.317,0,0,1,.4.02.179.179,0,0,0,.089-.33.8.8,0,0,0-.989.26.12.12,0,0,0,.135.175Z" transform="translate(-456.942 -181.063)"/>
      <path id="Path_13015" data-name="Path 13015" d="M515.2,198.52a.558.558,0,0,0-.629-.094c-.157.1-.109.391.1.376.078-.006.15-.036.227-.045a1.416,1.416,0,0,1,.2.009.146.146,0,0,0,.1-.247Z" transform="translate(-477.119 -181.736)"/>
      <path id="Path_13016" data-name="Path 13016" d="M509.824,207.454c.06.316.119.633.182.95.038.188.335.108.289-.08-.078-.311-.16-.622-.241-.934C510.015,207.24,509.8,207.3,509.824,207.454Z" transform="translate(-472.905 -189.833)"/>
      <path id="Path_13017" data-name="Path 13017" d="M503.29,225.283a.941.941,0,0,0,.282.3.514.514,0,0,0,.432.1.206.206,0,0,0,.049-.376,1.711,1.711,0,0,0-.3-.083.544.544,0,0,1-.212-.144.164.164,0,0,0-.256.2Z" transform="translate(-466.967 -205.897)"/>
      <path id="Path_13018" data-name="Path 13018" d="M503.852,250.577a1.421,1.421,0,0,0,.977.036,1.9,1.9,0,0,0,.88-.312c.137-.106.018-.332-.136-.33a.588.588,0,0,0-.228.069,3.559,3.559,0,0,1-.446.1,5.834,5.834,0,0,1-.985.211.123.123,0,0,0-.061.228Z" transform="translate(-467.444 -228.483)"/>
      <path id="Path_13019" data-name="Path 13019" d="M460.241,165.179a1.112,1.112,0,0,1-.045.97,2.535,2.535,0,0,0-.329.573,2.4,2.4,0,0,0,.115.877.668.668,0,0,0-.3-.354.559.559,0,0,0-.505,0,.651.651,0,0,0-.17.874c.109.253.361.277.565.423a2.015,2.015,0,0,1-.9,1.137,17.836,17.836,0,0,0-.717-2.008,3.744,3.744,0,0,1-.4-2.028,2.343,2.343,0,0,1,1.392-1.785.913.913,0,0,0,.248-.127,1.114,1.114,0,0,0,.126-.14,2.053,2.053,0,0,1,1.258-.6,5.921,5.921,0,0,1,1.976,0,2.586,2.586,0,0,1,.855.273.893.893,0,0,1,.388.391.47.47,0,0,1-.081.519.475.475,0,0,1,.617.33.58.58,0,0,1-.361.638,1.266,1.266,0,0,1-.471.055,15.043,15.043,0,0,1-3.26-.261.082.082,0,0,0,.065.089" transform="translate(-425.531 -149.618)" fill="#010101"/>
      <path id="Path_13020" data-name="Path 13020" d="M457.725,162.829a1.1,1.1,0,0,1-.121.9,3.035,3.035,0,0,0-.287.431,1.919,1.919,0,0,0,.056,1.111l.416-.115a.788.788,0,0,0-1.363-.275.923.923,0,0,0-.083.819c.121.376.4.47.708.659l-.1-.257a1.782,1.782,0,0,1-.8.993l.347.142c-.268-.893-.659-1.733-.941-2.616a2.313,2.313,0,0,1,.577-2.6c.282-.232.643-.309.9-.556a2.064,2.064,0,0,1,1.139-.592,5.636,5.636,0,0,1,1.625-.056,3.388,3.388,0,0,1,.8.164c.188.07.753.355.534.635a.26.26,0,0,0,.251.431q.506.324.067.418a.43.43,0,0,1-.348.094c-.112.01-.232,0-.345,0-.316,0-.633-.008-.949-.02a14.124,14.124,0,0,1-1.9-.212.25.25,0,0,0-.3.3.348.348,0,0,0,.181.233c.272.163.5-.241.245-.419l.051.055-.307.3a9.657,9.657,0,0,0,1.944.259c.345.017.691.024,1.035.027a2.414,2.414,0,0,0,.916-.075.761.761,0,0,0-.426-1.46l.251.432c.777-1-.789-1.548-1.523-1.643a6.067,6.067,0,0,0-2.007.069,2.779,2.779,0,0,0-.736.252,5.658,5.658,0,0,0-.618.505c-.224.158-.482.235-.7.4a2.588,2.588,0,0,0-1.035,2.021,4.215,4.215,0,0,0,.394,1.684c.289.689.54,1.384.765,2.1a.239.239,0,0,0,.347.142,2.308,2.308,0,0,0,1-1.281.232.232,0,0,0-.105-.258c-.205-.125-.429-.183-.516-.442-.125-.376.446-.7.608-.255a.216.216,0,0,0,.416-.115,1.813,1.813,0,0,1-.094-.818,5.924,5.924,0,0,1,.3-.594,1.233,1.233,0,0,0-.05-1.012c-.06-.125-.25-.035-.218.094Z" transform="translate(-423.129 -147.241)"/>
      <path id="Path_13021" data-name="Path 13021" d="M416.069,267.987a26.609,26.609,0,0,0-10.148-.79,4.812,4.812,0,0,0-3.447,1.506,4.227,4.227,0,0,0-.67,1.846,11.637,11.637,0,0,0,.986,6.879,5.5,5.5,0,0,1,.659,1.75,10.642,10.642,0,0,0,.063,1.165c.209.966,1.236,1.506,2.179,1.8a22.16,22.16,0,0,0,9.841.326,5.426,5.426,0,0,0,2.2-.666,1.974,1.974,0,0,0,.969-1.953,11.092,11.092,0,0,0-.422-1.066,3.714,3.714,0,0,1,.03-1.869,18.581,18.581,0,0,0,.659-4.78,4.44,4.44,0,0,0-2.407-3.911" transform="translate(-374.916 -243.931)" fill="#fff"/>
      <path id="Path_13022" data-name="Path 13022" d="M413.037,265.288a27.169,27.169,0,0,0-6.31-1.048,26.467,26.467,0,0,0-3.174.047,9.737,9.737,0,0,0-2.707.471,3.613,3.613,0,0,0-1.809,1.364,5.818,5.818,0,0,0-.723,2.616,11.8,11.8,0,0,0,.871,5.7c.188.444.418.867.617,1.305a4.034,4.034,0,0,1,.3,1.641,2.293,2.293,0,0,0,1.059,1.85,6.937,6.937,0,0,0,2.386.916,17.3,17.3,0,0,0,3.164.426,29.814,29.814,0,0,0,6.211-.44,4.1,4.1,0,0,0,2.364-1.035,2.065,2.065,0,0,0,.565-2.028,4.911,4.911,0,0,1-.478-1.764,12.374,12.374,0,0,1,.342-1.928,15.243,15.243,0,0,0,.452-3.436,4.792,4.792,0,0,0-2.568-4.461c-.26-.11-.489.267-.225.386a4.3,4.3,0,0,1,2.267,3.807,11.619,11.619,0,0,1-.3,2.948,18.532,18.532,0,0,0-.5,2.684,2.786,2.786,0,0,0,.18,1.187,2.256,2.256,0,0,1,.335,1.4,2.373,2.373,0,0,1-1.9,1.56,19.032,19.032,0,0,1-2.729.406c-.929.094-1.861.161-2.795.168a15.636,15.636,0,0,1-5.545-.816,2.409,2.409,0,0,1-1.651-1.431c-.106-.423-.021-.875-.084-1.306a4.29,4.29,0,0,0-.4-1.18,12.715,12.715,0,0,1-1.35-5.167c-.037-1.618.084-3.707,1.687-4.556a7.316,7.316,0,0,1,2.607-.664,26.5,26.5,0,0,1,9.752.686.161.161,0,0,0,.085-.31Z" transform="translate(-371.841 -241.386)"/>
      <path id="Path_13023" data-name="Path 13023" d="M307.7,130c-4.686-.416-12.93-1.562-13.05-7.618-.07-3.494,1.266-6.832,2.642-9.975a5.152,5.152,0,0,0,.587-2.113c-.018-.918-.528-1.862-.188-2.714.394-.978,1.642-1.223,2.692-1.325.689-.067,1.53-.065,1.894.525.25.406.171.968.47,1.339a5.32,5.32,0,0,0,.448.4,1.765,1.765,0,0,1-.241,2.343,2.964,2.964,0,0,0-.5.6,2.017,2.017,0,0,0-.168.56,41.316,41.316,0,0,0-.739,9.022c0,.166.027.361.173.441a.481.481,0,0,0,.237.04l6.587-.03a.758.758,0,0,1,.387.066.729.729,0,0,1,.269.355,7.889,7.889,0,0,1,.356,5.586,3.928,3.928,0,0,1-1.622,2.308" transform="translate(-277.983 -98.27)" fill="#fff"/>
      <path id="Path_13024" data-name="Path 13024" d="M304.71,127.282c-3.125-.5-6.409-.827-9.249-2.343a6.639,6.639,0,0,1-3.12-3.105,6.23,6.23,0,0,1-.419-2.64,16.631,16.631,0,0,1,.664-4.1,34.462,34.462,0,0,1,1.342-3.764c.466-1.129,1.223-2.357,1.194-3.617-.023-1.1-.824-2.5.354-3.257a3.509,3.509,0,0,1,1.334-.441,4.289,4.289,0,0,1,1.605-.051c.646.15.689.636.837,1.183a1.475,1.475,0,0,0,.282.583c.193.229.476.359.618.631a1.582,1.582,0,0,1-.259,1.533c-.349.5-.742.773-.875,1.4a38.628,38.628,0,0,0-.8,8.264c0,.445-.146,1.322.328,1.594a1.565,1.565,0,0,0,.757.076l1.317-.006,2.447-.011,1.129,0a7.167,7.167,0,0,1,1.317-.006c.641.129.82,1.352.933,1.919a7.717,7.717,0,0,1,.111,2.2,4.768,4.768,0,0,1-1.783,3.688.256.256,0,0,0,.258.442c2.141-1.29,2.423-4.523,1.911-6.724a5,5,0,0,0-.659-1.765c-.354-.474-1.013-.331-1.523-.329l-4.8.024c-.274,0-.941.116-1.1-.094-.188-.243-.079-.885-.079-1.188q0-1.135.059-2.268a41.314,41.314,0,0,1,.518-4.705c.058-.345.108-.7.188-1.035a2.2,2.2,0,0,1,.608-.941,2.577,2.577,0,0,0,.616-1.315,1.607,1.607,0,0,0-.328-1.272c-.216-.25-.513-.384-.637-.708-.1-.265-.109-.559-.213-.825-.391-1.009-1.585-.98-2.485-.871a3.4,3.4,0,0,0-2.511,1.122c-.78,1.129.145,2.457-.069,3.676a9.54,9.54,0,0,1-.79,2.087c-.282.659-.565,1.317-.827,1.991-.974,2.508-1.859,5.364-1.556,8.093a6.1,6.1,0,0,0,2.312,4.1c2.715,2.179,6.5,2.766,9.868,3.028.376.029.753.04,1.129.047.16,0,.205-.261.039-.288Z" transform="translate(-274.95 -95.69)"/>
      <path id="Path_13025" data-name="Path 13025" d="M363.469,261.869a7.294,7.294,0,0,0,.452-2.729.229.229,0,0,0-.457,0c-.119.889-.14,1.8-.23,2.7-.013.14.194.151.235.032Z" transform="translate(-340.111 -236.592)"/>
      <path id="Path_13026" data-name="Path 13026" d="M327.465,98.579c-.463,1.042-.93-.282-.678-.811a2.618,2.618,0,0,1,1.218-1.223,1.184,1.184,0,0,1,.941-.1.2.2,0,0,0,.094.024c.05-.006.084-.052.114-.094a.889.889,0,0,1,1.377-.038.521.521,0,0,1,.737-.078,1.432,1.432,0,0,1,.429.7,1.71,1.71,0,0,1,.137.954.626.626,0,0,1-.715.5.6.6,0,0,1-.354-.343,1.378,1.378,0,0,1-.089-.5.963.963,0,0,1-.138.9.539.539,0,0,1-.678.008.659.659,0,0,1-.21-.667.767.767,0,0,1-.354.807.576.576,0,0,1-.789-.269.592.592,0,0,0-.108-.249c-.066-.062-.215-.025-.2.064" transform="translate(-307.03 -89.027)" fill="#fff"/>
      <path id="Path_13027" data-name="Path 13027" d="M322.931,96.981A2.571,2.571,0,0,1,324.1,94.39a1.254,1.254,0,0,1,.8-.206c.153.019.271.081.42.018.117-.05.164-.152.253-.233a.645.645,0,0,1,.917.056.263.263,0,0,0,.369,0c.363-.455.7.4.785.664a1.226,1.226,0,0,1,.084.659q-.071.352-.507.269a.812.812,0,0,1-.175-.54l-.445.06a.523.523,0,0,1-.11.54q-.113.333-.3.062a.26.26,0,0,1-.163-.358l-.482-.066c.029.282-.16.822-.55.579-.162-.1-.165-.389-.331-.5a.372.372,0,0,0-.565.212c-.12.3.36.424.478.132l.028-.071-.173.173c-.169.05.241.443.31.484a.872.872,0,0,0,.646.083.986.986,0,0,0,.644-1.088c-.026-.248-.437-.362-.482-.065-.083.545.225,1.135.847,1.078.687-.062.726-.778.63-1.317-.045-.25-.459-.194-.445.06.026.481.2,1.091.788,1.108a.942.942,0,0,0,.88-.927,2.245,2.245,0,0,0-.664-1.682.791.791,0,0,0-1.106.078h.369a1.176,1.176,0,0,0-1.392-.254c-.111.058-.259.255-.359.282.146-.045-.1-.051-.169-.061A1.569,1.569,0,0,0,324,93.8a2.742,2.742,0,0,0-1.434,3.222c.052.188.376.158.353-.048Z" transform="translate(-303.177 -86.527)"/>
      <path id="Path_13028" data-name="Path 13028" d="M599.828,282.91a9.377,9.377,0,0,1-1-.349,5.838,5.838,0,0,0-.951-.21.271.271,0,0,0-.208.493,3.774,3.774,0,0,0,1.009.262,4.938,4.938,0,0,0,1.1.135.169.169,0,0,0,.045-.331Z" transform="translate(-552.368 -257.813)"/>
      <path id="Path_13029" data-name="Path 13029" d="M629.131,123.313a.647.647,0,0,0,.1.741.582.582,0,0,0,.732.065.532.532,0,0,0,.119-.711,1.422,1.422,0,0,0,.114.837.606.606,0,0,0,.722.3.615.615,0,0,0,.33-.487.646.646,0,1,1,.251.224.627.627,0,0,0,.8.188.759.759,0,0,0,.266-.486,1.858,1.858,0,0,0-.739-1.931,2.837,2.837,0,0,0-.885-.319,2.7,2.7,0,0,0-1.818.045,2.964,2.964,0,0,0-1.21,2.056" transform="translate(-579.881 -112.194)" fill="#fff"/>
      <path id="Path_13030" data-name="Path 13030" d="M626.836,120.515a.769.769,0,0,0,.633,1.173.73.73,0,0,0,.613-1.11.2.2,0,0,0-.376.1c-.048.576.129,1.391.864,1.383s.761-.867.659-1.4c-.051-.273-.471-.157-.417.116a1.442,1.442,0,0,0,.711,1.2.739.739,0,0,0,.9-.213,2.035,2.035,0,0,0-.438-2.5,3.4,3.4,0,0,0-3-.515,2.9,2.9,0,0,0-1.464,2.3.226.226,0,0,0,.436.12,4.059,4.059,0,0,1,.69-1.539,1.921,1.921,0,0,1,1.976-.386,1.705,1.705,0,0,1,1.491,1.113,1.5,1.5,0,0,1,.034.907c-.225.51-.6.26-.758-.052a2.115,2.115,0,0,1-.152-.55l-.417.116c.051.262.054,1.252-.521.726a1,1,0,0,1-.188-.825l-.376.1a.324.324,0,0,1-.376.481.538.538,0,0,1-.266-.641.139.139,0,0,0-.253-.106Z" transform="translate(-577.704 -109.466)"/>
      <path id="Path_13031" data-name="Path 13031" d="M288.046,114.185c-6.055-.648-12.148-1.022-18.216-1.54s-12.125-1.129-18.175-1.812q-5.092-.579-10.176-1.232c-.676-.087-.671.978,0,1.062,12.072,1.506,24.2,2.685,36.339,3.43,3.4.21,6.818.407,10.228.417C288.259,114.511,288.25,114.207,288.046,114.185Z" transform="translate(-229.356 -101.32)"/>
      <path id="Path_13032" data-name="Path 13032" d="M363.416,124.71a1.189,1.189,0,0,1,.753-1.184c-.264.012-.432-.335-.327-.577a.763.763,0,0,1,.646-.392,1.388,1.388,0,0,1,1.178.48,1.648,1.648,0,0,1,.268,1.506,2.634,2.634,0,0,1-.92,1.276" transform="translate(-340.273 -113.055)" fill="#fff"/>
      <path id="Path_13033" data-name="Path 13033" d="M362.31,122.267a1.009,1.009,0,0,1,.688-.962c.2-.065.24-.4,0-.444q-.194-.449.193-.483a.8.8,0,0,1,.295-.007,1.084,1.084,0,0,1,.463.153,1.181,1.181,0,0,1,.545,1c.017.775-.491,1.176-.912,1.734-.154.205.134.412.321.321,1.268-.619,1.635-2.76.311-3.508a1.4,1.4,0,0,0-1.711.145.663.663,0,0,0,.436,1.094l-.116-.429a1.412,1.412,0,0,0-.766,1.382.128.128,0,0,0,.255,0Z" transform="translate(-339.04 -110.612)"/>
      <path id="Path_13034" data-name="Path 13034" d="M638.2,150.887a1.751,1.751,0,0,0,.313-.84c.025-.268-.057-.6-.316-.674l.428-.174a1.036,1.036,0,0,0,.3-.166.348.348,0,0,0,.126-.309.429.429,0,0,0-.172-.241c-.464-.369-1.44-.71-1.763.008" transform="translate(-588.224 -136.173)" fill="#fff"/>
      <path id="Path_13035" data-name="Path 13035" d="M635.751,148.428c.345-.47.681-1.419,0-1.771l-.053.409c.354-.137.916-.254,1.028-.687.094-.376-.231-.631-.513-.8-.626-.376-1.583-.5-1.9.319-.111.282.313.419.471.2.27-.386.7-.309,1.083-.127.147.07.372.154.327.318-.052.188-.513.3-.667.368-.2.086-.094.345.054.409.431.181.094.985-.048,1.234-.083.146.125.259.22.128Z" transform="translate(-585.665 -133.654)"/>
      <path id="Path_13036" data-name="Path 13036" d="M173.386,41.248l-5.928-.8a3.46,3.46,0,0,1-1.242-.327,3.247,3.247,0,0,1-1.3-2.314,20.552,20.552,0,0,1,.355-9.778,4.083,4.083,0,0,1,1.8-2.729A4.024,4.024,0,0,1,168.725,25a19.707,19.707,0,0,1,4.915.482,3.822,3.822,0,0,1,2.036.971,3.762,3.762,0,0,1,.7,1.312,17.926,17.926,0,0,1-.137,12.224,2.5,2.5,0,0,1-.758,1.183.938.938,0,0,1-1.276-.1" transform="translate(-160.067 -24.673)" fill="#fff"/>
      <path id="Path_13037" data-name="Path 13037" d="M167.768,27.317A2.342,2.342,0,0,0,167.4,27a2.4,2.4,0,0,0-.337.132,4.079,4.079,0,0,0-1.8,2.729,20.553,20.553,0,0,0-.356,9.772,3.253,3.253,0,0,0,1.3,2.314h0l.081-.019a.651.651,0,0,0,.088.1,3.106,3.106,0,0,0,.713.188,1.094,1.094,0,0,0,.47-.188,2.492,2.492,0,0,0,.758-1.183,17.932,17.932,0,0,0,.136-12.224A3.617,3.617,0,0,0,167.768,27.317Z" transform="translate(-160.059 -26.495)" fill="#608cff"/>
      <path id="Path_13038" data-name="Path 13038" d="M166.392,25.646c-.116-.117-.3-.346-.479-.369a1.285,1.285,0,0,0-.535.216,2.937,2.937,0,0,0-.995.965,9.416,9.416,0,0,0-1.135,3.336,20.8,20.8,0,0,0-.049,7.972,4.052,4.052,0,0,0,1.223,2.613,2.044,2.044,0,0,0,.3.164l.041-.006c.051-.023.056-.008.018.042.072.031.125.062.206.094a1.159,1.159,0,0,0,1.2-.094,2.62,2.62,0,0,0,.8-1.252,16.826,16.826,0,0,0,.6-1.9,18.179,18.179,0,0,0,.2-8,8.489,8.489,0,0,0-1.4-3.783c-.13-.153-.349.068-.22.219a5.23,5.23,0,0,1,.865,1.875,17.52,17.52,0,0,1,.486,1.935,17.913,17.913,0,0,1-.314,8,12.154,12.154,0,0,1-.664,1.942,1.747,1.747,0,0,1-.551.73.9.9,0,0,1-1.073-.081.157.157,0,0,0-.152-.04c-.065.008-.055.019.034.032l-.111-.068a2.792,2.792,0,0,1-.418-.391,2.9,2.9,0,0,1-.435-.8,9.648,9.648,0,0,1-.427-1.828,20.421,20.421,0,0,1-.225-4.443,20.031,20.031,0,0,1,.741-4.385,6.442,6.442,0,0,1,.659-1.605,3.015,3.015,0,0,1,.559-.685,2.252,2.252,0,0,1,.455-.313c.274-.142.365-.079.577.135a.156.156,0,1,0,.218-.222Z" transform="translate(-158.573 -24.934)" fill="#608cff"/>
      <path id="Path_13039" data-name="Path 13039" d="M170.335,38.045l-4.97-.79A5.047,5.047,0,0,1,163.1,36.7a2.851,2.851,0,0,1-.878-1.62,19.457,19.457,0,0,1,.142-9.568c.324-1.243.8-2.759,2.2-3.114a8.319,8.319,0,0,1,2.3-.115,19.03,19.03,0,0,1,2.467.236,10.175,10.175,0,0,1,2.1.5,2.522,2.522,0,0,1,1.462,1.573,16.67,16.67,0,0,1,1,4.51,17.879,17.879,0,0,1-.275,5.048,17.44,17.44,0,0,1-.693,2.481c-.188.515-.885,2.039-1.613,1.188-.247-.29-.653.127-.416.416a1.227,1.227,0,0,0,1.538.225,3.1,3.1,0,0,0,1.147-1.82,18.172,18.172,0,0,0,.479-10.408c-.372-1.481-.8-3.112-2.33-3.751a10.888,10.888,0,0,0-2.494-.6,20.255,20.255,0,0,0-2.809-.239,6.233,6.233,0,0,0-2.431.277,3.137,3.137,0,0,0-1.494,1.392,13.04,13.04,0,0,0-1.28,4.8,20.879,20.879,0,0,0,.067,5.54c.232,1.6.565,3.6,2.427,3.983,1.029.215,2.1.27,3.146.385l3.428.376c.2.022.245-.317.047-.348Z" transform="translate(-156.969 -21.637)"/>
      <path id="Path_13040" data-name="Path 13040" d="M125.813,67.479l-3.244-.436a1.887,1.887,0,0,1-.679-.179,1.779,1.779,0,0,1-.712-1.266,11.248,11.248,0,0,1,.195-5.35,2.23,2.23,0,0,1,.985-1.492,2.2,2.2,0,0,1,.905-.168,10.764,10.764,0,0,1,2.688.263,2.1,2.1,0,0,1,1.114.532,2.062,2.062,0,0,1,.376.717,9.807,9.807,0,0,1-.075,6.687,1.36,1.36,0,0,1-.414.646.512.512,0,0,1-.7-.056" transform="translate(-120.621 -55.108)"/>
      <path id="Path_13041" data-name="Path 13041" d="M125.1,66.636l-2.515-.365a10.2,10.2,0,0,1-1.068-.163,1.315,1.315,0,0,1-.92-1.061,10.552,10.552,0,0,1-.023-4.987c.166-.731.371-1.666,1.1-2.03a5.03,5.03,0,0,1,2.651-.064c.847.119,1.838.237,2.22,1.109a8.3,8.3,0,0,1,.586,2.411,9.83,9.83,0,0,1-.083,2.715c-.074.428-.649,3.175-1.466,2.323-.065-.069-.168.035-.1.1.454.483.988-.031,1.183-.481a9.054,9.054,0,0,0,.659-2.832,9.852,9.852,0,0,0-.221-3c-.172-.744-.366-1.7-1.1-2.087a6.825,6.825,0,0,0-2.823-.519c-.823-.025-1.666-.026-2.172.72a6.084,6.084,0,0,0-.753,2.552,11.385,11.385,0,0,0,.009,3.15c.114.792.252,1.848,1.151,2.111a10.842,10.842,0,0,0,1.7.235l1.983.244c.049.006.061-.08.011-.088Z" transform="translate(-119.898 -54.308)"/>
      <path id="Path_13042" data-name="Path 13042" d="M122.708,59.827a1.287,1.287,0,0,0-.2-.177,1.338,1.338,0,0,0-.188.072,2.232,2.232,0,0,0-.985,1.492,11.248,11.248,0,0,0-.195,5.35,1.779,1.779,0,0,0,.712,1.266h0l.044-.009a.339.339,0,0,0,.048.055,1.661,1.661,0,0,0,.391.1.586.586,0,0,0,.26-.1,1.35,1.35,0,0,0,.414-.646,9.807,9.807,0,0,0,.075-6.687A2.055,2.055,0,0,0,122.708,59.827Z" transform="translate(-120.585 -56.073)" fill="#608cff"/>
      <path id="Path_13043" data-name="Path 13043" d="M121.361,58.366c-.167-.163-.231-.247-.446-.188a1.382,1.382,0,0,0-.611.443,3.956,3.956,0,0,0-.708,1.707,11.424,11.424,0,0,0-.094,4.755c.094.492.252,1.245.761,1.493.036.018.1.04.137.059.079.045-.017,0,0,.011a.867.867,0,0,0,.659.094c.52-.183.693-.913.836-1.373a9.99,9.99,0,0,0,.272-4.773,4.988,4.988,0,0,0-.807-2.231c-.126-.155-.345.066-.219.22a4.582,4.582,0,0,1,.694,1.93,9.726,9.726,0,0,1-.1,4.291,8.927,8.927,0,0,1-.3.955c-.1.263-.487,1.048-.881.6a.158.158,0,0,0-.152-.04c-.054.009-.029.018.072.024a.709.709,0,0,1-.253-.221,1.577,1.577,0,0,1-.282-.548,5.866,5.866,0,0,1-.2-.918,10.991,10.991,0,0,1-.114-2.391,10.809,10.809,0,0,1,.4-2.361c.086-.293.644-1.774,1.112-1.317C121.285,58.725,121.505,58.505,121.361,58.366Z" transform="translate(-119.129 -54.722)" fill="#608cff"/>
      <path id="Path_13044" data-name="Path 13044" d="M122.747,64.27l-2.493-.448c-.351-.063-.719-.088-1.064-.179a1.091,1.091,0,0,1-.746-.9,10.317,10.317,0,0,1-.028-4.856c.146-.646.316-1.546.965-1.882a2.622,2.622,0,0,1,1.223-.148,10.3,10.3,0,0,1,1.308.094c.753.105,1.694.188,2.036.971a8.07,8.07,0,0,1,.565,2.321,9.778,9.778,0,0,1-.071,2.652,9.6,9.6,0,0,1-.3,1.219c-.061.2-.4,1.417-.792,1.016-.267-.271-.671.137-.416.416.551.6,1.281.066,1.54-.519a9.181,9.181,0,0,0,.694-2.95,9.913,9.913,0,0,0-.231-3.062,3.093,3.093,0,0,0-1.217-2.224,7.128,7.128,0,0,0-2.943-.553,2.457,2.457,0,0,0-2.377.835,6.36,6.36,0,0,0-.788,2.672,11.638,11.638,0,0,0,.014,3.215c.129.892.321,1.99,1.323,2.273a9.763,9.763,0,0,0,1.763.207l1.986.181a.178.178,0,0,0,.047-.348Z" transform="translate(-117.509 -52.071)"/>
      <path id="Path_13045" data-name="Path 13045" d="M433.17,359a8.941,8.941,0,0,0,.477,2.034c.109.309.261.605.36.917a.855.855,0,0,1-.089.815c-.062.089-.17.139-.228.237a.369.369,0,0,0-.035.369c.017.045.079.068.1.106.175.282.276.376.212.733-.084.458-.327.907,0,1.326.065.085.213,0,.147-.087-.376-.515.147-1.1.04-1.663-.034-.18-.178-.252-.224-.392-.123-.376.157-.479.272-.76.188-.47-.193-1.061-.353-1.477a13.337,13.337,0,0,1-.586-2.169c-.01-.052-.1-.041-.094.012Z" transform="translate(-403.466 -327.209)"/>
      <path id="Path_13046" data-name="Path 13046" d="M445.183,449.316a12.2,12.2,0,0,0-.867,1.058,9.888,9.888,0,0,1-1.078.872c-.267.21.074.614.354.458a4.194,4.194,0,0,0,1.169-1.074,2.427,2.427,0,0,0,.649-1.223c.008-.126-.145-.16-.227-.094Z" transform="translate(-412.499 -409.038)" fill="#608cff"/>
      <path id="Path_13047" data-name="Path 13047" d="M567.418,442.866a3.568,3.568,0,0,0,1.626,2.088c.181.083.407-.146.231-.3a7.461,7.461,0,0,1-.866-.753c-.3-.346-.506-.758-.768-1.129-.074-.105-.271-.046-.223.094Z" transform="translate(-525.074 -403.095)" fill="#608cff"/>
      <path id="Path_13048" data-name="Path 13048" d="M529.172,513.836a21.617,21.617,0,0,0-.493,4.64,33.217,33.217,0,0,1-.535,4.863.2.2,0,1,0,.376.1,15.843,15.843,0,0,0,.606-4.705c.055-1.634.1-3.244.312-4.867.019-.152-.224-.177-.262-.036Z" transform="translate(-489.496 -467.433)" fill="#608cff"/>
      <path id="Path_13049" data-name="Path 13049" d="M414.863,914.4a1.93,1.93,0,0,0,1.476.171c.263-.064.146-.487-.111-.4a2.3,2.3,0,0,1-1.265,0,.131.131,0,0,0-.1.238Z" transform="translate(-386.826 -830.169)"/>
      <path id="Path_13050" data-name="Path 13050" d="M414.911,925.313a1.674,1.674,0,0,0,1.651.155c.2-.094.057-.406-.147-.348a2.224,2.224,0,0,1-.692.13,3,3,0,0,1-.692-.146C414.92,925.074,414.808,925.232,414.911,925.313Z" transform="translate(-386.888 -840.083)"/>
      <path id="Path_13051" data-name="Path 13051" d="M415.363,936.812a1.2,1.2,0,0,0,1.349.129c.194-.1.024-.384-.17-.292a1.131,1.131,0,0,1-1.025-.038C415.394,936.555,415.249,936.706,415.363,936.812Z" transform="translate(-387.297 -850.5)"/>
      <path id="Path_13052" data-name="Path 13052" d="M654.1,911.052a2.49,2.49,0,0,0,1.694-.26c.181-.109.065-.417-.147-.348-.256.083-.494.2-.759.26s-.524.071-.786.112c-.122.019-.111.208,0,.235Z" transform="translate(-603.524 -826.798)"/>
      <path id="Path_13053" data-name="Path 13053" d="M657.091,922.18a1.778,1.778,0,0,0,1.506-.071c.226-.1.028-.457-.2-.339a2.257,2.257,0,0,1-1.246.172.129.129,0,0,0-.065.238Z" transform="translate(-606.258 -837.044)"/>
      <path id="Path_13054" data-name="Path 13054" d="M661.263,929.907c.486.414,1.15.057,1.506-.358a.188.188,0,0,0-.265-.265c-.315.247-.635.638-1.082.419C661.3,929.642,661.139,929.805,661.263,929.907Z" transform="translate(-610.054 -843.832)"/>
      <path id="Path_13055" data-name="Path 13055" d="M479.378,300.359a19.232,19.232,0,0,0,.446-4.253,5.5,5.5,0,0,1-.039-1.066c.1-.45.91-.376,1.287-.4a18.148,18.148,0,0,1,2.285-.011q.548.032,1.094.094a5.493,5.493,0,0,1,1.237.2c.52.2.489.783.539,1.248q.065.592.1,1.186a16.835,16.835,0,0,1,.019,2.232,2.554,2.554,0,0,1-.261,1.181c-.282.417-.9.4-1.35.411a21.3,21.3,0,0,1-2.475-.111q-.621-.051-1.24-.112c-.268-.027-1.476-.024-1.514-.369-.012-.115-.195-.116-.182,0,.063.565,1.035.481,1.43.522.971.1,1.946.188,2.917.24a11.235,11.235,0,0,0,1.412-.006,1.765,1.765,0,0,0,.948-.246c.543-.412.505-1.424.516-2.027a23.126,23.126,0,0,0-.159-3.081c-.069-.593-.112-1.113-.769-1.263a14.457,14.457,0,0,0-2.81-.291c-.487-.012-.976-.006-1.462.022a5.447,5.447,0,0,0-1.428.142c-.274.094-.3.261-.287.534.027.565.049,1.125.036,1.688a20.415,20.415,0,0,1-.387,3.514c-.012.064.085.094.094.027Z" transform="translate(-445.236 -268.757)"/>
      <path id="Path_13056" data-name="Path 13056" d="M493.933,307.662c.653.015,1.305.037,1.955.085.342.025.681.056,1.021.094.376.041.9.028,1.165.362a2.338,2.338,0,0,1,.188,1.068,9.416,9.416,0,0,1,.022.978,9.146,9.146,0,0,1-.082.965,1.842,1.842,0,0,1-.086.517c-.178.357-.376.306-.674.32-.6.027-1.206.052-1.81.048-.565,0-1.928.146-2.07-.589a3.119,3.119,0,0,1,.156-1.041c.046-.228.094-.454.126-.685.086-.616-.159-1.4.16-1.95a.063.063,0,0,0-.108-.064,1.5,1.5,0,0,0-.182.885,6.507,6.507,0,0,1-.071,1.443c-.085.463-.457,1.412-.112,1.831s1.288.306,1.733.317c.483.011.966,0,1.449-.012a4.815,4.815,0,0,0,1.218-.058c.5-.168.442-1.051.476-1.481a6.079,6.079,0,0,0-.142-2.422c-.209-.556-.859-.521-1.358-.571a25.975,25.975,0,0,0-2.976-.132.047.047,0,1,0,0,.094Z" transform="translate(-458.017 -280.66)"/>
      <path id="Path_13057" data-name="Path 13057" d="M506.458,318.6c.327.008.654.023.981.048s1.109.008,1.288.349a2.33,2.33,0,0,1,.038,1.154,1.352,1.352,0,0,1-.131.548c-.158.229-.5.221-.745.219a6.625,6.625,0,0,1-.967-.128,2.008,2.008,0,0,1-.484-.073.4.4,0,0,1-.152-.555c.194-.511-.087-1.1.188-1.576a.073.073,0,1,0-.125-.073,2,2,0,0,0-.109,1.107,3.481,3.481,0,0,1-.188.728.488.488,0,0,0,.008.3c.146.312.7.267.987.309a3.208,3.208,0,0,0,1.363.062c.685-.211.615-1.446.471-1.992-.081-.314-.247-.376-.552-.419a15.523,15.523,0,0,0-1.869-.109.051.051,0,0,0,0,.1Z" transform="translate(-469.471 -290.546)"/>
      <path id="Path_13058" data-name="Path 13058" d="M519.3,329.115c-.146-.017-.292-.032-.438-.045a.559.559,0,0,0-.319.012.165.165,0,0,0,0,.295.941.941,0,0,0,.615.115c.131-.019.33-.094.271-.261-.03-.084-.162-.05-.136.037s-.3.088-.339.086-.33-.041-.341-.1.123-.066.153-.065l.157.008.376.011c.061,0,.057-.086,0-.094Z" transform="translate(-480.724 -300.124)"/>
      <path id="Path_13059" data-name="Path 13059" d="M213.554,240.9a15.3,15.3,0,0,0,.148,9.013,9.466,9.466,0,0,0,4.779,5.463c1.2.51,2-.609,1.938-1.727a2.621,2.621,0,0,0-.458-1.617.884.884,0,0,0-1.273.206c-1.668,1.816-.775,5.194,1.145,6.464a2.908,2.908,0,0,0,3.606-.226,2.221,2.221,0,0,0-.015-3.085.273.273,0,0,0-.423.055,4.076,4.076,0,0,0,3.019,6.065c.273.029.337-.431.065-.481a3.777,3.777,0,0,1-2.663-1.806,3.6,3.6,0,0,1,.044-3.506l-.423.055a1.676,1.676,0,0,1-.071,2.408,2.381,2.381,0,0,1-2.747.134,4.249,4.249,0,0,1-1.406-5.432,1.965,1.965,0,0,1,.263-.353.5.5,0,0,1,.611-.074c.125.094.177.612.2.741.105.6.151,1.4-.453,1.769-.481.295-1.073-.118-1.488-.365a8.093,8.093,0,0,1-1.2-.875,10.1,10.1,0,0,1-2.986-4.858,15.932,15.932,0,0,1,.056-7.9C213.855,240.807,213.6,240.735,213.554,240.9Z" transform="translate(-203.968 -220.184)" fill="#608cff"/>
      <path id="Path_13060" data-name="Path 13060" d="M422.161,79.714a14.863,14.863,0,0,1,1.54,2.7c.094.207.4.028.306-.178a14.3,14.3,0,0,0-1.6-2.666c-.107-.142-.351-.007-.244.142Z" transform="translate(-393.47 -74.066)" fill="#608cff"/>
      <path id="Path_13061" data-name="Path 13061" d="M486.7,71.3c-.012,1.157-.045,2.316-.025,3.472a.161.161,0,0,0,.321,0c.02-1.157-.012-2.316-.024-3.472a.136.136,0,0,0-.272,0Z" transform="translate(-451.93 -66.509)" fill="#608cff"/>
      <path id="Path_13062" data-name="Path 13062" d="M526.74,71.167a22.345,22.345,0,0,0-1.832,4.261c-.073.234.3.337.367.1a24,24,0,0,1,1.687-4.235c.076-.149-.142-.282-.225-.132Z" transform="translate(-486.563 -66.443)" fill="#608cff"/>
      <path id="Path_13063" data-name="Path 13063" d="M582,87.373l-1.58,2.507c-.141.222.215.431.352.206l1.539-2.532C582.428,87.355,582.12,87.177,582,87.373Z" transform="translate(-536.828 -81.11)" fill="#608cff"/>
      <path id="Path_13064" data-name="Path 13064" d="M645.78,332.326c1.588.334,3.228-.762,4.333-1.8a8.608,8.608,0,0,0,2.412-4.011.172.172,0,1,0-.33-.094,8.54,8.54,0,0,1-2.112,3.665c-1.029,1.048-2.682,2.284-4.235,1.992-.16-.03-.23.212-.069.246Z" transform="translate(-595.986 -297.626)" fill="#608cff"/>
      <path id="Path_13065" data-name="Path 13065" d="M679.234,393.14a6.752,6.752,0,0,0,3.334-2.266c.13-.163-.1-.4-.231-.232a6.756,6.756,0,0,1-3.177,2.23C678.992,392.929,679.062,393.192,679.234,393.14Z" transform="translate(-626.221 -355.868)" fill="#608cff"/>
      <path id="Path_13066" data-name="Path 13066" d="M718.178,324.845c1.342,1.223,1.124,3.336.507,4.872a7.03,7.03,0,0,1-1.394,2.179c-.522.556-1.632,1.668-2.468,1.4l.175.23a.938.938,0,0,1,.789-.984,1.175,1.175,0,0,1,1.231.709c.557,1.075-.159,2.272-.853,3.088A7.919,7.919,0,0,1,710.9,339.1c-.358.034-.359.6,0,.565,2.62-.254,5.5-1.867,6.564-4.381a2.344,2.344,0,0,0-.864-3.112,1.469,1.469,0,0,0-2.079,1.362.248.248,0,0,0,.175.23c.934.288,1.928-.6,2.557-1.194a7.46,7.46,0,0,0,1.714-2.478c.71-1.67,1.01-4.172-.57-5.458-.151-.124-.369.082-.219.218Z" transform="translate(-654.819 -296.085)" fill="#608cff"/>
      <path id="Path_13067" data-name="Path 13067" d="M197.331,30.926c1.522,1.783,1.6,4.31,1.634,6.539a13.991,13.991,0,0,1-1.833,7.424.231.231,0,0,0,.4.234,13.766,13.766,0,0,0,1.967-7.84c-.056-2.286-.27-4.838-2-6.522C197.388,30.655,197.235,30.813,197.331,30.926Z" transform="translate(-189.608 -29.871)"/>
      <path id="Path_13068" data-name="Path 13068" d="M746.439,81.1a11.913,11.913,0,0,1,1.919,7.295,17.278,17.278,0,0,1-.439,3.482,10.186,10.186,0,0,1-.565,1.716c-.236.536-.575.992-.852,1.506a.214.214,0,0,0,.333.258,6.819,6.819,0,0,0,1.552-3.272,17.016,17.016,0,0,0,.455-3.687,11.248,11.248,0,0,0-2.175-7.469c-.1-.126-.32.04-.227.174Z" transform="translate(-687.238 -75.309)"/>
    </g>
  </g>
</svg>
