<svg xmlns="http://www.w3.org/2000/svg" width="63.339" height="146" viewBox="0 0 63.339 146">
  <g id="Group_8704" data-name="Group 8704" transform="translate(-43.53 -37.234)">
    <ellipse id="Ellipse_367" data-name="Ellipse 367" cx="31.669" cy="38.581" rx="31.669" ry="38.581" transform="translate(43.53 44.663)" fill="#ffd8f6"/>
    <g id="Group_8489" data-name="Group 8489" transform="translate(62.73 39.677)">
      <path id="Path_11688" data-name="Path 11688" d="M211.389,81.108a2.454,2.454,0,0,0-.356-.695c-2.6-4.236-6.411-2.5-9.373-4.15a10.163,10.163,0,0,0-2.355-.22l-.22-3.106c.659-.366,2.744-.282,3.508-7.121.424-3.813-1.6-8.613-1.6-8.613s-6.213-2.289-10.006,1.634c-2.683,2.779-4.034,10.84.988,13.4,0,0,1.977,2.611,1.706,3.89a3.591,3.591,0,0,0-.911.141c-2.965,1.648-6.769-.083-9.373,4.15a2.417,2.417,0,0,0-.356.695L181.5,85.789l15.885,11.589,15.532-11.589Z" transform="translate(-181.218 -56.256)" fill="#fff"/>
      <path id="Path_11689" data-name="Path 11689" d="M195.668,95.943a.282.282,0,0,1-.166-.054L179.616,84.3a.283.283,0,0,1-.1-.316l1.538-4.674a2.69,2.69,0,0,1,.39-.764c1.728-2.8,3.955-3.089,6.108-3.367a9.081,9.081,0,0,0,3.362-.872,2.113,2.113,0,0,1,.792-.155c.007-.981-1.124-2.718-1.637-3.408a6.508,6.508,0,0,1-3.344-4.953,11.348,11.348,0,0,1,2.34-8.867,8.449,8.449,0,0,1,6.64-2.374,13.139,13.139,0,0,1,3.667.671.283.283,0,0,1,.163.155c.084.2,2.05,4.913,1.623,8.755-.693,6.207-2.522,6.9-3.4,7.231l-.091.035.188,2.656c1.916.07,2.143.2,2.231.248a9.065,9.065,0,0,0,3.359.871c2.154.277,4.381.563,6.11,3.368a2.734,2.734,0,0,1,.39.765l1.529,4.68a.282.282,0,0,1-.1.314L195.837,95.887A.282.282,0,0,1,195.668,95.943ZM180.115,83.965l15.551,11.345,15.2-11.343L209.4,79.478h0a2.172,2.172,0,0,0-.315-.615l-.013-.019c-1.588-2.583-3.588-2.84-5.706-3.113a9.631,9.631,0,0,1-3.563-.938,9.39,9.39,0,0,0-2.227-.185.282.282,0,0,1-.273-.262l-.22-3.107a.282.282,0,0,1,.145-.267,2.437,2.437,0,0,1,.324-.139c.774-.293,2.385-.9,3.04-6.766.374-3.37-1.236-7.605-1.535-8.356-.855-.279-6.249-1.851-9.59,1.6A10.726,10.726,0,0,0,187.28,65.7a6.025,6.025,0,0,0,3.1,4.574.282.282,0,0,1,.1.081c.21.278,2.046,2.753,1.757,4.119a.282.282,0,0,1-.254.223,3.453,3.453,0,0,0-.807.112,9.639,9.639,0,0,1-3.554.933c-2.118.273-4.118.53-5.705,3.112l-.013.02a2.127,2.127,0,0,0-.314.614Z" transform="translate(-179.5 -54.539)" fill="#1d1d1b"/>
    </g>
    <path id="Path_11690" data-name="Path 11690" d="M288.8,99.912a3.231,3.231,0,0,1-1.15-.222l.22-.52c.46.194,1.242.257,1.443.057.051-.051.046-.152-.016-.3a3.98,3.98,0,0,1-.215-3.43,2.819,2.819,0,0,1,2.128-1.319l.029,0a5.77,5.77,0,0,1,2.171.228l-.226.517a5.116,5.116,0,0,0-1.887-.183,2.284,2.284,0,0,0-1.718,1.031,3.526,3.526,0,0,0,.24,2.943.782.782,0,0,1-.107.919A1.286,1.286,0,0,1,288.8,99.912Z" transform="translate(-209.651 -48.884)"/>
    <path id="Path_11691" data-name="Path 11691" d="M284.157,146.738a1.836,1.836,0,0,1-1.395-.644l.418-.38a1.5,1.5,0,0,0,2.008.106l.34.451A2.385,2.385,0,0,1,284.157,146.738Z" transform="translate(-205.451 -93.161)"/>
    <path id="Path_11692" data-name="Path 11692" d="M272.478,109.056c-.01.435.23.784.539.779s.565-.36.58-.8-.23-.784-.539-.779-.565.36-.58.8" transform="translate(-196.619 -60.997)"/>
    <path id="Path_11693" data-name="Path 11693" d="M307.788,106.926c-.011.436.23.785.539.781s.565-.361.579-.8-.229-.785-.538-.781-.565.361-.58.8" transform="translate(-226.943 -59.167)"/>
    <path id="Path_11694" data-name="Path 11694" d="M262.638,97.638l-.323-.463c2.156-1.506,3.366-.3,3.416-.247l-.406.393.2-.2-.2.2C265.29,97.285,264.383,96.42,262.638,97.638Z" transform="translate(-187.892 -50.83)"/>
    <g id="Group_8490" data-name="Group 8490" transform="translate(51.526 62.524)">
      <path id="Path_11695" data-name="Path 11695" d="M109.48,233.916c3.606-3.831,7.576-7.1,11.179-7.967a1.237,1.237,0,0,0,.579-2.083L116.03,218.7a1.236,1.236,0,0,0-1.747,0l0,0c-3.118,3.133-8.3,8.162-10.943,12.6a8.136,8.136,0,0,0-.318,7.766l.016.03c5.491,11.1,7.018,12.587,7.018,12.587l.064-.045c-.056,1.106.626,5.664,2.3,6.22s1.206-5.6,1.3-5.452a2.434,2.434,0,0,0,1.445,1.039.511.511,0,0,0,.315,0,.435.435,0,0,0,.233-.373,1.089,1.089,0,0,0,0-.318,6.53,6.53,0,0,0-2.8-4,1.253,1.253,0,0,1-.337-.378,52.151,52.151,0,0,1-4.143-9.842A4.678,4.678,0,0,1,109.48,233.916Z" transform="translate(-101.898 -218.057)" fill="#fff"/>
      <path id="Path_11696" data-name="Path 11696" d="M110.884,256.464a.936.936,0,0,1-.295-.05c-1.772-.588-2.467-4.839-2.5-6.265-.22-.236-1.894-2.217-7.05-12.639l-.013-.024a8.39,8.39,0,0,1,.325-8.042c2.457-4.122,7.123-8.792,10.212-11.883l.774-.775.012-.012a1.5,1.5,0,0,1,1.062-.434h0a1.508,1.508,0,0,1,1.073.446l5.206,5.163a1.519,1.519,0,0,1-.712,2.558c-3.1.745-6.815,3.4-11.04,7.886a4.4,4.4,0,0,0-.98,4.348,51.752,51.752,0,0,0,4.119,9.787.96.96,0,0,0,.261.293A6.831,6.831,0,0,1,114.251,251a1.373,1.373,0,0,1,0,.387.718.718,0,0,1-.384.6.28.28,0,0,1-.044.018.789.789,0,0,1-.48,0,2.709,2.709,0,0,1-1.094-.571c.017,2.112-.09,4.286-.89,4.871A.8.8,0,0,1,110.884,256.464Zm-2.481-6.819a.282.282,0,0,1,.256.3c-.066,1.284.695,5.468,2.109,5.938a.26.26,0,0,0,.262-.029c.468-.342.689-1.9.656-4.633-.008-.633-.009-.73.21-.8a.289.289,0,0,1,.322.121,2.145,2.145,0,0,0,1.277.918l.017,0a.227.227,0,0,0,.116.007.153.153,0,0,0,.063-.119.26.26,0,0,1,0-.033.812.812,0,0,0,0-.235,6.265,6.265,0,0,0-2.686-3.813,1.522,1.522,0,0,1-.412-.462,52.345,52.345,0,0,1-4.168-9.9A4.963,4.963,0,0,1,107.534,232h0c4.3-4.569,8.11-7.277,11.319-8.048a.954.954,0,0,0,.446-1.607l-5.208-5.164a.949.949,0,0,0-.675-.281h0a.947.947,0,0,0-.673.278l-.776.778c-3.069,3.071-7.706,7.711-10.126,11.773a7.825,7.825,0,0,0-.307,7.5l.012.023C106.191,246.646,107.971,249.113,108.4,249.645Zm5.337,2.089h0Z" transform="translate(-100.158 -216.339)" fill="#1d1d1b"/>
    </g>
    <g id="Group_8491" data-name="Group 8491" transform="translate(83.982 62.065)">
      <path id="Path_11697" data-name="Path 11697" d="M345.175,235.283a52.2,52.2,0,0,1-4.143,9.842,1.246,1.246,0,0,1-.337.377,6.533,6.533,0,0,0-2.8,4,1.089,1.089,0,0,0,0,.318.435.435,0,0,0,.233.373.521.521,0,0,0,.315,0,2.443,2.443,0,0,0,1.445-1.035c.1-.141-.373,6.008,1.3,5.452s2.358-5.114,2.3-6.22l.064.045s1.526-1.485,7.018-12.587l.014-.028a8.134,8.134,0,0,0-.316-7.766c-2.648-4.441-7.826-9.471-10.943-12.6a1.237,1.237,0,0,0-1.749,0h0l-5.209,5.164a1.238,1.238,0,0,0,.58,2.083c3.6.867,7.573,4.136,11.179,7.968A4.678,4.678,0,0,1,345.175,235.283Z" transform="translate(-331.724 -214.802)" fill="#fff"/>
      <path id="Path_11698" data-name="Path 11698" d="M339.274,253.21a.8.8,0,0,1-.478-.159c-.8-.585-.907-2.762-.89-4.874a2.724,2.724,0,0,1-1.1.57.8.8,0,0,1-.477,0,.293.293,0,0,1-.046-.019.719.719,0,0,1-.383-.6,1.366,1.366,0,0,1,0-.385,6.833,6.833,0,0,1,2.905-4.182.959.959,0,0,0,.263-.293,51.89,51.89,0,0,0,4.118-9.786h0a4.4,4.4,0,0,0-.98-4.343c-4.222-4.487-7.936-7.14-11.039-7.887a1.521,1.521,0,0,1-.713-2.558l5.209-5.164a1.521,1.521,0,0,1,2.148,0l.77.771c3.09,3.092,7.759,7.765,10.217,11.888a8.386,8.386,0,0,1,.327,8.036l-.015.031c-5.156,10.423-6.83,12.4-7.049,12.638-.03,1.426-.725,5.676-2.5,6.265A.937.937,0,0,1,339.274,253.21Zm-1.091-6.054a.278.278,0,0,1,.083.013c.215.068.214.165.206.8-.032,2.729.189,4.287.656,4.628a.259.259,0,0,0,.262.029c1.414-.47,2.174-4.654,2.109-5.938a.282.282,0,0,1,.256-.3c.429-.527,2.207-2.991,6.854-12.386l.015-.03a7.822,7.822,0,0,0-.307-7.494c-2.422-4.063-7.061-8.706-10.131-11.778l-.77-.771a.956.956,0,0,0-1.349,0l-5.21,5.165a.956.956,0,0,0,.448,1.608c3.211.773,7.019,3.481,11.318,8.049a4.964,4.964,0,0,1,1.107,4.9,52.5,52.5,0,0,1-4.167,9.9,1.519,1.519,0,0,1-.414.463,6.264,6.264,0,0,0-2.685,3.814.794.794,0,0,0,0,.233.291.291,0,0,1,0,.033.153.153,0,0,0,.062.118.237.237,0,0,0,.118-.007l.016,0a2.154,2.154,0,0,0,1.277-.915A.29.29,0,0,1,338.183,247.156Z" transform="translate(-330.011 -213.088)" fill="#1d1d1b"/>
    </g>
    <path id="Path_11699" data-name="Path 11699" d="M292.411,336.578a.764.764,0,0,1-.141-.038c.008,0,.016.008.024.008A.514.514,0,0,1,292.411,336.578Z" transform="translate(-213.617 -257.043)" fill="#9898d8"/>
    <g id="Group_8492" data-name="Group 8492" transform="translate(62.948 97.088)">
      <path id="Path_11700" data-name="Path 11700" d="M191.471,539.175c.249-3.02-2.16-34.781-6.292-56.569-.94-4.956-2.533-10.511-2.038-15.533.26-2.632.508-3.954.513-3.954a39.9,39.9,0,0,1,4.921,1.332c2.7.935,8.378,1.812,9.884,5.839-.357,7.468-1.731,68.867-1.533,69.446" transform="translate(-182.765 -462.838)" fill="#fff"/>
      <path id="Path_11701" data-name="Path 11701" d="M195.2,538.3a.283.283,0,0,1-.267-.191c-.146-.429.331-22.687.544-32.237.337-15.151.783-33.219.972-37.255-1.219-3.154-5.158-4.286-8.039-5.114-.605-.174-1.177-.338-1.653-.5a39.731,39.731,0,0,0-4.6-1.263c-.083.5-.266,1.7-.458,3.646-.387,3.923.511,8.158,1.379,12.253.235,1.108.457,2.155.655,3.2,4.116,21.7,6.551,53.54,6.3,56.645a.282.282,0,0,1-.563-.046c.254-3.09-2.18-34.831-6.288-56.493-.2-1.038-.418-2.082-.652-3.187-.877-4.138-1.784-8.416-1.389-12.426.136-1.374.267-2.377.354-2.977.048-.333.088-.582.116-.749.053-.311.082-.483.324-.483a.276.276,0,0,1,.056.006,40.272,40.272,0,0,1,4.956,1.341c.463.16,1.028.323,1.626.494,3.012.866,7.137,2.052,8.432,5.513a.28.28,0,0,1,.018.113c-.372,7.787-1.707,67.914-1.54,69.37a.283.283,0,0,1-.276.344Zm.267-.374c0,.008.005.016.007.025A.184.184,0,0,0,195.472,537.927Z" transform="translate(-181.044 -461.12)" fill="#1d1d1b"/>
    </g>
    <path id="Path_11702" data-name="Path 11702" d="M225.243,995.23l-2.5,6.745a5.282,5.282,0,0,0-.456,2,1.79,1.79,0,0,0,1.029,1.646c.974.364,1.947-.477,2.649-1.243,2.259-2.475,4.62-5.122,5.294-8.407a6.5,6.5,0,0,1-6.154-.565" transform="translate(-153.516 -822.723)" fill="#608cff"/>
    <path id="Path_11703" data-name="Path 11703" d="M223.461,993.636l-1.977,5.352q-.244.661-.49,1.322a9.1,9.1,0,0,0-.4,1.271,2.645,2.645,0,0,0,.371,2.183,1.694,1.694,0,0,0,1.906.576,4.769,4.769,0,0,0,1.867-1.412,39.043,39.043,0,0,0,3.051-3.653,12.836,12.836,0,0,0,2.21-4.763.268.268,0,0,0-.388-.3,6.237,6.237,0,0,1-5.885-.565c-.282-.191-.548.268-.267.458a6.778,6.778,0,0,0,6.419.565l-.4-.3c-.611,2.937-2.554,5.33-4.519,7.506a11.055,11.055,0,0,1-1.566,1.581,1.485,1.485,0,0,1-1.795.23,1.861,1.861,0,0,1-.548-1.766,6.281,6.281,0,0,1,.347-1.214c.151-.415.306-.83.46-1.245l2.112-5.681c.119-.321-.393-.459-.51-.141Z" transform="translate(-151.99 -821.199)" fill="#1d1d1b"/>
    <g id="Group_8493" data-name="Group 8493" transform="translate(78.237 97.086)">
      <path id="Path_11704" data-name="Path 11704" d="M292.853,539.716c.2-.579-1.178-61.977-1.533-69.446,1.508-4.027,7.187-4.9,9.884-5.839a39.947,39.947,0,0,1,4.921-1.332s-.044,2.468.322,6.72c.385,4.5-1.309,11.956-2.118,16.394-4.42,24.181-6.265,49.937-6.018,52.952" transform="translate(-291.038 -462.818)" fill="#fff"/>
      <path id="Path_11705" data-name="Path 11705" d="M291.136,538.281a.283.283,0,0,1-.276-.344c.166-1.448-1.169-61.575-1.54-69.371a.287.287,0,0,1,.018-.112c1.3-3.46,5.42-4.646,8.431-5.512.6-.172,1.164-.335,1.625-.495a40.387,40.387,0,0,1,4.957-1.341.283.283,0,0,1,.339.282c0,.025-.039,2.506.321,6.691.325,3.787-.822,9.709-1.659,14.034-.169.873-.329,1.7-.463,2.435-4.461,24.408-6.248,50.024-6.015,52.878a.282.282,0,1,1-.563.046c-.235-2.869,1.552-28.572,6.022-53.025.135-.74.295-1.566.464-2.441.831-4.292,1.968-10.169,1.65-13.878-.285-3.311-.322-5.567-.324-6.4a39.813,39.813,0,0,0-4.546,1.252c-.475.164-1.047.329-1.653.5-2.88.828-6.818,1.961-8.038,5.114.318,6.851,1.764,68.766,1.516,69.492A.282.282,0,0,1,291.136,538.281Zm-.267-.374a.194.194,0,0,0-.007.025C290.863,537.924,290.866,537.916,290.869,537.908Z" transform="translate(-289.32 -461.1)" fill="#1d1d1b"/>
    </g>
    <path id="Path_11706" data-name="Path 11706" d="M305.708,995.23l2.5,6.745a5.28,5.28,0,0,1,.455,2,1.788,1.788,0,0,1-1.029,1.646c-.973.364-1.947-.477-2.649-1.243-2.259-2.475-4.619-5.122-5.292-8.407a6.487,6.487,0,0,0,6.152-.565" transform="translate(-219.989 -822.723)" fill="#608cff"/>
    <path id="Path_11707" data-name="Path 11707" d="M303.851,993.747l1.861,5.021c.3.82.645,1.637.9,2.474a2.481,2.481,0,0,1-.089,2.066,1.2,1.2,0,0,1-1.611.414,5.765,5.765,0,0,1-1.659-1.442,34.514,34.514,0,0,1-2.852-3.451,12.307,12.307,0,0,1-2.056-4.493l-.39.3a6.778,6.778,0,0,0,6.421-.565c.282-.189.016-.648-.267-.458a6.237,6.237,0,0,1-5.885.565.268.268,0,0,0-.39.3c.654,3.145,2.785,5.686,4.887,8a7.8,7.8,0,0,0,1.726,1.594,1.833,1.833,0,0,0,2.081,0,2.254,2.254,0,0,0,.8-1.868,8.461,8.461,0,0,0-.734-2.593l-2.228-6.013c-.117-.316-.63-.179-.511.141Z" transform="translate(-218.387 -821.169)" fill="#1d1d1b"/>
    <g id="Group_8494" data-name="Group 8494" transform="translate(62.942 73.168)">
      <path id="Path_11708" data-name="Path 11708" d="M212.894,316.454a11.5,11.5,0,0,1-1.216-5.1c-.021-3.431-.424-9.146-2.269-13.414-2.782-6.446-19.166-4.777-21.635,0-1.518,2.938-2.06,8.345-2.259,12.073a16.39,16.39,0,0,1-1.723,6.47c-1.027,2.055-.739,6.447-.739,6.447s5.617,1.348,15.222,6.415h.154c9.6-5.066,14.393-5.613,14.393-5.613S213.925,318.5,212.894,316.454Z" transform="translate(-182.732 -293.43)" fill="#353642"/>
      <path id="Path_11709" data-name="Path 11709" d="M196.7,327.916h-.154a.281.281,0,0,1-.132-.033c-9.455-4.987-15.1-6.376-15.156-6.39a.283.283,0,0,1-.216-.256c-.012-.182-.281-4.493.768-6.592a16.015,16.015,0,0,0,1.693-6.359c.211-3.945.779-9.262,2.29-12.187.691-1.337,2.454-2.52,4.963-3.329a23.844,23.844,0,0,1,7.834-1.042c4.81.168,8.217,1.767,9.348,4.388,1.949,4.509,2.273,10.409,2.292,13.525a11.281,11.281,0,0,0,1.186,4.971c1.063,2.115,0,7.249-.048,7.466a.283.283,0,0,1-.244.222,21.44,21.44,0,0,0-3.57.9,68.231,68.231,0,0,0-10.723,4.678A.281.281,0,0,1,196.7,327.916Zm-.084-.565h.014c8.519-4.488,13.206-5.421,14.225-5.582.183-.954.924-5.181.058-6.9h0a11.847,11.847,0,0,1-1.246-5.221c-.046-7.425-1.586-11.777-2.246-13.3-1.041-2.412-4.266-3.888-8.849-4.048-5.512-.192-11.018,1.631-12.276,4.065-1.465,2.836-2.02,8.068-2.228,11.958a16.572,16.572,0,0,1-1.752,6.582c-.857,1.716-.759,5.221-.719,6.1A78.291,78.291,0,0,1,196.617,327.351Zm14.477-5.33h0Z" transform="translate(-181.004 -291.715)" fill="#1d1d1b"/>
    </g>
    <g id="Group_8495" data-name="Group 8495" transform="translate(77.354 55.793)">
      <path id="Path_11710" data-name="Path 11710" d="M285.07,170.811a6.1,6.1,0,0,0,3.767-.141" transform="translate(-284.788 -170.388)" fill="#fff"/>
      <path id="Path_11711" data-name="Path 11711" d="M284.832,169.59a4.493,4.493,0,0,1-1.587-.236.282.282,0,0,1,.213-.523,5.95,5.95,0,0,0,3.581-.15.282.282,0,0,1,.16.542A8.352,8.352,0,0,1,284.832,169.59Z" transform="translate(-283.07 -168.669)" fill="#1d1d1b"/>
    </g>
    <path id="Path_11712" data-name="Path 11712" d="M240.45,53.233a9.6,9.6,0,0,0,3.9,3.331c1.807.835,3.791.946,5.7,1.4a6.115,6.115,0,0,1,3.992,2.446,5.853,5.853,0,0,1,.714,2.528,17.581,17.581,0,0,1,.011,2.847,7.333,7.333,0,0,1-.82,2.943,6.466,6.466,0,0,1-1.86,2.135.363.363,0,0,0-.126.483.354.354,0,0,0,.483.127,7.3,7.3,0,0,0,2.879-4.555,14.543,14.543,0,0,0,.185-3.084,9.466,9.466,0,0,0-.407-2.79,4.886,4.886,0,0,0-1.445-2.152,7.2,7.2,0,0,0-2.271-1.271c-1.878-.675-3.914-.706-5.806-1.329a8.857,8.857,0,0,1-4.519-3.424c-.253-.374-.864-.021-.61.356Z" transform="translate(-169.063 -13.292)" fill="#1d1d1b"/>
    <path id="Path_11713" data-name="Path 11713" d="M169.669,55.854c-2.457-.273-4.651,1.822-5.463,4.157s-.616,4.879-.633,7.351c-.048,6.464-3.152,9.972-6.164,15.691,0,0,5.129-3.016,6.6-4.694s8.516-1.179,9.28-3.174c.48-1.255-3-6.364-3.09-7.706-.388-6.171,1.461-5.582,1.6-8.828Z" transform="translate(-97.8 -15.971)" fill="#608cff"/>
    <path id="Path_11714" data-name="Path 11714" d="M168.1,53.992a5.4,5.4,0,0,0-4.79,2.542,11.081,11.081,0,0,0-1.577,6.388c-.016,1.2.041,2.4-.014,3.6a17.22,17.22,0,0,1-.424,3.146,22.239,22.239,0,0,1-2.158,5.412c-.988,1.848-2.1,3.632-3.106,5.474q-.212.385-.415.774a.267.267,0,0,0,.361.363c.89-.524,1.764-1.073,2.628-1.638.723-.473,1.437-.959,2.132-1.473a14,14,0,0,0,1.737-1.452c.09-.093.172-.195.268-.282a1.22,1.22,0,0,1,.253-.186,3.537,3.537,0,0,1,.762-.347,14.135,14.135,0,0,1,2.118-.5c.8-.141,1.6-.258,2.4-.4a13.221,13.221,0,0,0,2.118-.517,2.885,2.885,0,0,0,1.412-.909,1.574,1.574,0,0,0,.106-1.391A11.987,11.987,0,0,0,171.1,70.6c-.36-.743-.747-1.471-1.13-2.206a19.754,19.754,0,0,1-.892-1.871c-.045-.117-.089-.236-.124-.357-.014-.051-.027-.1-.038-.151,0-.028-.024-.162-.017-.079-.049-.576-.061-1.159-.056-1.738a11.543,11.543,0,0,1,.249-2.522,7.339,7.339,0,0,1,.25-.847c.095-.263.158-.408.268-.652a14.451,14.451,0,0,0,.572-1.327,5.456,5.456,0,0,0,.2-.76,5.043,5.043,0,0,0,.113-1.008c0-.162-.141-.282-.23-.408l-.535-.706-1.179-1.553-.222-.291a.282.282,0,0,0-.363-.1.268.268,0,0,0-.095.363l1.867,2.451.264.346-.037-.141a5.762,5.762,0,0,1-.243,1.5c-.032.1-.066.2-.1.305-.017.047-.035.093-.054.141l-.025.064c0,.011-.01.021-.014.031-.027.068.013-.028,0,.01-.079.184-.162.363-.247.542a11.562,11.562,0,0,0-.517,1.255,8.918,8.918,0,0,0-.364,1.793,17.9,17.9,0,0,0-.037,2.775,3.625,3.625,0,0,0,.106.856,6.3,6.3,0,0,0,.26.686c.539,1.255,1.233,2.443,1.836,3.671a14.771,14.771,0,0,1,.761,1.742,4.341,4.341,0,0,1,.184.695c.01.062,0-.016,0,.031V73.4c-.008.038-.018.073-.03.11s0,0,0,.01a.34.34,0,0,1-.032.065,1.363,1.363,0,0,1-.079.123c.031-.044-.04.047-.055.064-.037.04-.075.075-.114.11s-.041.035-.062.052.014-.008-.023.017-.1.068-.141.1a2.908,2.908,0,0,1-.319.172,7.869,7.869,0,0,1-1.644.5c-1.357.3-2.742.446-4.095.733a8.924,8.924,0,0,0-1.735.515,3.028,3.028,0,0,0-.614.347,4.774,4.774,0,0,0-.508.493,21.5,21.5,0,0,1-3.334,2.542q-1.4.928-2.841,1.789l-.152.09.361.363c.988-1.879,2.1-3.69,3.135-5.544A26.293,26.293,0,0,0,161.55,70.8a17.654,17.654,0,0,0,.606-2.965,27.538,27.538,0,0,0,.121-3.43c-.017-2.231-.071-4.66.966-6.7a5.441,5.441,0,0,1,4.192-3.187,4.025,4.025,0,0,1,.678.017.265.265,0,1,0,.039-.53h-.039Z" transform="translate(-96.233 -14.373)" fill="#1d1d1b"/>
    <path id="Path_11715" data-name="Path 11715" d="M245.851,41.491c-.424-2.605,4.767-2.464,7.4-2.244a10.591,10.591,0,0,1,6.919,3.444c2.816,3.139,3.476,7.615,3.821,11.819s.565,8.622,2.775,12.214c0,0-.535-4.264-5.948-4.438s-6.238-.782-6.238-.782l-.253-3.517s3.107-1.882,3.508-7.121-5.988-5.7-5.988-5.7S246.313,44.334,245.851,41.491Z" transform="translate(-173.732 -1.636)" fill="#608cff"/>
    <path id="Path_11716" data-name="Path 11716" d="M244.47,39.785a1.157,1.157,0,0,1,.219-.921l.049-.059c.027-.03.055-.058.085-.086a1.414,1.414,0,0,1,.208-.169,2.9,2.9,0,0,1,.493-.267,8.363,8.363,0,0,1,2.941-.5,26.085,26.085,0,0,1,3.083.092A10.308,10.308,0,0,1,259,42.057a13.5,13.5,0,0,1,1.91,3.906,41.1,41.1,0,0,1,1.34,8.965,25.354,25.354,0,0,0,2.077,9.271q.261.523.565,1.021c.126.2.528.141.493-.133a4.653,4.653,0,0,0-.4-1.312,5.507,5.507,0,0,0-1.927-2.269,6.264,6.264,0,0,0-1.855-.835,12.1,12.1,0,0,0-2.725-.313,29.584,29.584,0,0,1-4.348-.415,6.434,6.434,0,0,1-.83-.209l-.112-.041c-.083-.03.054.031-.023-.008a.684.684,0,0,0-.076-.041h-.008l.13.227-.217-3.08-.031-.436-.131.229a4.779,4.779,0,0,0,.847-.706,8.642,8.642,0,0,0,1.614-2.242,11.594,11.594,0,0,0,1.147-4.106,5.285,5.285,0,0,0-.616-3.287,6.616,6.616,0,0,0-4.211-2.738,9.122,9.122,0,0,0-1.351-.232c-.068,0-.058-.028.014,0a.629.629,0,0,0-.141-.023q-.39-.069-.775-.161a12.4,12.4,0,0,1-2.578-.878,4.351,4.351,0,0,1-2.129-1.822,2.241,2.241,0,0,1-.186-.6c-.058-.336-.565-.193-.511.141a3.588,3.588,0,0,0,1.694,2.259,10.119,10.119,0,0,0,2.722,1.193,13.76,13.76,0,0,0,1.717.4c.078.011.154.018.23.027l.093.011h.055c.064.007-.072-.011.017,0l.322.052a7.138,7.138,0,0,1,4.014,1.922,4.183,4.183,0,0,1,1.116,2.542,8.532,8.532,0,0,1-.157,2.138,11.074,11.074,0,0,1-.548,2.019,8.74,8.74,0,0,1-1.538,2.6,6.828,6.828,0,0,1-.7.706l-.128.107-.059.047c-.068.056.03-.02-.02.017s-.107.079-.162.117l-.058.037a.266.266,0,0,0-.131.229l.239,3.376c.011.141.008.282.148.373a.714.714,0,0,0,.109.055,4.478,4.478,0,0,0,.874.26,18.84,18.84,0,0,0,2.1.3c.551.054,1.1.093,1.656.126.668.038,1.337.044,2,.09a5.92,5.92,0,0,1,4.36,2.087,5.512,5.512,0,0,1,.446.692c.059.112.116.225.168.34.011.027.024.052.035.079.024.056-.008-.02.01.023s.044.11.065.167a5.013,5.013,0,0,1,.222.795c0,.034.011.095,0-.028l.494-.141c-1.721-2.81-2.218-6.133-2.513-9.359a50.074,50.074,0,0,0-1.271-9.288,14.661,14.661,0,0,0-1.855-4.153,10.827,10.827,0,0,0-7.526-4.742,22.312,22.312,0,0,0-3.325-.168,10.646,10.646,0,0,0-3.2.424,2.283,2.283,0,0,0-1.73,1.6,2.079,2.079,0,0,0,.007.668.268.268,0,0,0,.326.185A.274.274,0,0,0,244.47,39.785Z" transform="translate(-172.097)" fill="#1d1d1b"/>
    <g id="Group_8496" data-name="Group 8496" transform="translate(64.317 62.198)">
      <path id="Path_11717" data-name="Path 11717" d="M221.118,217.954l-1.421-1.823a.251.251,0,0,0-.345-.052,65.563,65.563,0,0,1-9.449,5.562l-.065.03a6.908,6.908,0,0,1-5.767.006l-.066-.03a65.642,65.642,0,0,1-9.449-5.562.251.251,0,0,0-.345.052l-1.419,1.823a.253.253,0,0,0-.027.27c.515,1.011,3.553,7.214,3.376,12.747a.253.253,0,0,0,.243.262h21.131a.253.253,0,0,0,.253-.253s0-.007,0-.01c-.178-5.532,2.859-11.736,3.375-12.747A.253.253,0,0,0,221.118,217.954Z" transform="translate(-192.457 -215.75)" fill="#353642"/>
      <path id="Path_11718" data-name="Path 11718" d="M215.8,229.8H194.658a.535.535,0,0,1-.513-.556c.173-5.414-2.757-11.452-3.346-12.607a.538.538,0,0,1,.056-.572l1.419-1.822a.531.531,0,0,1,.73-.109,64.517,64.517,0,0,0,9.4,5.534l.068.03a6.62,6.62,0,0,0,5.533,0l.066-.03a64.494,64.494,0,0,0,9.4-5.537.532.532,0,0,1,.731.112l1.419,1.82a.535.535,0,0,1,.053.582c-.587,1.152-3.516,7.189-3.342,12.605,0,0,0,.016,0,.019a.535.535,0,0,1-.535.535Zm-21.092-.536h0Zm-3.4-12.866c.618,1.215,3.564,7.317,3.4,12.837h21.06c-.166-5.527,2.785-11.634,3.4-12.842l-1.393-1.788a64.939,64.939,0,0,1-9.475,5.573l-.061.028a7.181,7.181,0,0,1-6,.005l-.064-.029a64.987,64.987,0,0,1-9.473-5.572Zm24.49,12.837Zm3.381-12.826h0Zm-.005-.029h0Zm-26.5-1.785h0Zm.041-.007h0Zm25.039,0h0Z" transform="translate(-190.742 -214.029)" fill="#1d1d1b"/>
    </g>
    <g id="Group_8497" data-name="Group 8497" transform="translate(66.154 70.394)">
      <path id="Path_11719" data-name="Path 11719" d="M217.063,277.823a5.657,5.657,0,1,1-9.884-3.753" transform="translate(-205.468 -273.787)" fill="#353642"/>
      <path id="Path_11720" data-name="Path 11720" d="M209.689,282.049a5.939,5.939,0,0,1-4.439-9.885.282.282,0,0,1,.422.375,5.374,5.374,0,0,0,4.016,8.945h0a5.374,5.374,0,0,0,5.369-5.379.282.282,0,0,1,.282-.283h0a.282.282,0,0,1,.282.282,5.939,5.939,0,0,1-5.934,5.944Z" transform="translate(-203.75 -272.069)" fill="#1d1d1b"/>
    </g>
    <g id="Group_8498" data-name="Group 8498" transform="translate(78.821 70.394)">
      <path id="Path_11721" data-name="Path 11721" d="M295.46,277.823a5.657,5.657,0,1,0,9.884-3.753" transform="translate(-295.178 -273.788)" fill="#353642"/>
      <path id="Path_11722" data-name="Path 11722" d="M299.4,282.049h-.005a5.939,5.939,0,0,1-5.934-5.944.282.282,0,0,1,.565,0,5.374,5.374,0,1,0,9.391-3.566.282.282,0,0,1,.422-.375,5.939,5.939,0,0,1-4.439,9.885Z" transform="translate(-293.46 -272.069)" fill="#1d1d1b"/>
    </g>
  </g>
</svg>
