<svg xmlns="http://www.w3.org/2000/svg" width="74.807" height="146" viewBox="0 0 74.807 146">
  <g id="Group_8703" data-name="Group 8703" transform="translate(-13.38 -38.722)">
    <path id="Path_11723" data-name="Path 11723" d="M41.381,100.64,64.787,136.8l23.4,36.149-37.4,4.571L13.38,182.1l14.006-40.729Z" transform="translate(0 -53.233)" fill="#ffd8f6"/>
    <g id="Group_8500" data-name="Group 8500" transform="translate(39.88 79.587)">
      <path id="Path_11724" data-name="Path 11724" d="M225.327,332.05c-1.4,7.913,5.147,15.976,5.147,15.976s-3.36,5.5-13.087,5.5-13.086-5.5-13.086-5.5a23.557,23.557,0,0,0,5.148-15.976Z" transform="translate(-204.019 -331.769)" fill="#fff"/>
      <path id="Path_11725" data-name="Path 11725" d="M215.667,352.09a18.28,18.28,0,0,1-10.347-2.8,10.36,10.36,0,0,1-2.978-2.838.281.281,0,0,1,.03-.332,23.468,23.468,0,0,0,5.078-15.771.281.281,0,0,1,.28-.3h15.879a.281.281,0,0,1,.276.329c-1.364,7.692,5.023,15.67,5.088,15.75a.281.281,0,0,1,.022.323,10.364,10.364,0,0,1-2.979,2.838A18.283,18.283,0,0,1,215.667,352.09Zm-12.735-5.766a10.713,10.713,0,0,0,2.728,2.52,19.99,19.99,0,0,0,20.014,0,10.7,10.7,0,0,0,2.733-2.526,29.992,29.992,0,0,1-3-4.909c-1.316-2.706-2.732-6.745-2.125-10.8H208.026A24.141,24.141,0,0,1,202.932,346.323Z" transform="translate(-202.3 -330.05)" fill="#1d1d1b"/>
    </g>
    <g id="Group_8501" data-name="Group 8501" transform="translate(41.071 40.447)">
      <path id="Path_11726" data-name="Path 11726" d="M228.118,53.026c5.758,9.077.365,20.926.951,21.257,2.946,1.637,6.573.569,8.175,2.289.158.21-12.212,9.722-12.212,9.722s-12.344-9.562-12.191-9.773c1.832-1.894,4.447-.6,7.39-2.244.586-.331-4.807-12.18.951-21.257Z" transform="translate(-212.553 -52.739)" fill="#fff"/>
      <path id="Path_11727" data-name="Path 11727" d="M223.272,84.855a.28.28,0,0,1-.172-.059c-.031-.024-3.122-2.419-6.155-4.809-1.782-1.4-3.2-2.532-4.2-3.352-.6-.488-1.059-.872-1.368-1.141-.481-.42-.7-.611-.523-.857a.3.3,0,0,1,.025-.03,5.264,5.264,0,0,1,3.671-1.321,8.98,8.98,0,0,0,3.685-.919,13.811,13.811,0,0,0-.348-1.528c-.969-3.752-3.238-12.537,1.3-19.688a.281.281,0,0,1,.237-.13h0l6.936.006a.28.28,0,0,1,.236.13c4.536,7.15,2.267,15.936,1.3,19.688a13.862,13.862,0,0,0-.348,1.528,11.272,11.272,0,0,0,4.215,1.008c1.556.16,3.027.311,3.93,1.281l.019.022c.186.247-.035.439-.52.859-.309.268-.769.65-1.369,1.136-1.007.816-2.424,1.938-4.209,3.335-3.039,2.378-6.136,4.76-6.167,4.784A.28.28,0,0,1,223.272,84.855ZM211.465,74.822c1.071,1.01,7.426,6,11.808,9.4,4.39-3.377,10.756-8.341,11.828-9.347a6.273,6.273,0,0,0-3.4-.934,11.454,11.454,0,0,1-4.529-1.13c-.32-.181-.215-.588.177-2.1.945-3.658,3.15-12.195-1.147-19.117l-6.626-.005c-4.3,6.922-2.091,15.458-1.147,19.116.392,1.516.5,1.924.178,2.1a9.437,9.437,0,0,1-4.006,1.043A5.081,5.081,0,0,0,211.465,74.822Zm16.081-2.382h0Z" transform="translate(-210.793 -51.02)" fill="#1d1d1b"/>
    </g>
    <path id="Path_11728" data-name="Path 11728" d="M229.1,58.9a11.9,11.9,0,0,0,2.166,4.5,3.97,3.97,0,0,1,.842,1.326,2.517,2.517,0,0,1,.027,1.063,2.831,2.831,0,0,1-.454,1.222,2.552,2.552,0,0,1-1.846.951,5.779,5.779,0,0,1-2.1-.281,3.116,3.116,0,0,1-1.727-.955c-.666-.871-.362-2.1-.52-3.191-.174-1.182-.92-2.223-1.114-3.41a4.638,4.638,0,0,1,.995-3.491c.756-.986-2.619-8.7,2.89-10.307s2.567.875,2.567.875C228.077,51.69,229.1,58.9,229.1,58.9Z" transform="translate(-181.355 -6.068)" fill="#608cff"/>
    <path id="Path_11729" data-name="Path 11729" d="M227.179,57.222a12.494,12.494,0,0,0,1.659,3.824c.195.3.407.582.63.858a5.187,5.187,0,0,1,.588.829,2.447,2.447,0,0,1-.048,1.989,2.025,2.025,0,0,1-1.389,1.142,4.276,4.276,0,0,1-2.143-.088,3.946,3.946,0,0,1-1.751-.746,2.213,2.213,0,0,1-.593-1.62,11.73,11.73,0,0,0-.116-1.922,11.783,11.783,0,0,0-.69-1.912,4.769,4.769,0,0,1-.421-1.95,4.364,4.364,0,0,1,.544-1.9c.14-.26.323-.485.477-.735a.8.8,0,0,0,.091-.22,2.072,2.072,0,0,0,.043-.581,16.711,16.711,0,0,0-.2-1.714,13.578,13.578,0,0,1-.125-4.36,4.468,4.468,0,0,1,.822-1.948,3.982,3.982,0,0,1,1.964-1.306,16.365,16.365,0,0,1,1.776-.452,4.487,4.487,0,0,1,1.051-.114h.084c.027,0,.086.011.024,0,.048.008.094.021.14.031s.036.015.007,0a.2.2,0,0,0,.042.022c.008,0,.06.045.014,0s0,.008.014.017-.041-.062-.014-.015-.01-.042,0-.018c.017.091,0-.046,0,.02s.02-.042,0,.017c-.01.029-.018.062-.028.093s.032-.062,0-.01l-.021.042c-.017.034-.036.066-.056.1l-.063.091c-.011.017-.024.032-.036.049.034-.046.02-.024,0,0a4.27,4.27,0,0,1-.3.321c-.062.062-.13.116-.192.178a1.487,1.487,0,0,0-.2.313c-.14.237-.258.48-.373.727A17.158,17.158,0,0,0,227,52.707a25.783,25.783,0,0,0,.14,4.226q.015.14.034.269a.265.265,0,0,0,.324.184.269.269,0,0,0,.184-.323c-.008-.058.011.093,0,0-.008-.063-.015-.126-.022-.188-.027-.227-.048-.454-.066-.682q-.1-1.174-.091-2.354a18.994,18.994,0,0,1,1.016-6.51,10.362,10.362,0,0,1,.71-1.543.96.96,0,0,1,.115-.192c.027-.027.058-.05.084-.076a3.263,3.263,0,0,0,.6-.7c.189-.32.233-.748-.149-.945a1.5,1.5,0,0,0-.757-.115,7.605,7.605,0,0,0-1.331.229,7.3,7.3,0,0,0-2.964,1.17,4.3,4.3,0,0,0-1.358,1.9,9.876,9.876,0,0,0-.254,4.664c.046.368.1.735.152,1.1.046.328.079.54.114.857a5.123,5.123,0,0,1,.045.7.949.949,0,0,1-.007.14.393.393,0,0,1,0,.058c.01-.091,0-.014,0,.01l-.025.1c-.007.029-.038.066,0,0a.422.422,0,0,1-.024.043,4.9,4.9,0,0,0-1.042,3.726,9.406,9.406,0,0,0,.689,2.007,5.541,5.541,0,0,1,.466,1.964,8.42,8.42,0,0,0,.14,1.934,2.292,2.292,0,0,0,1.206,1.456,6.94,6.94,0,0,0,2.089.62,3.91,3.91,0,0,0,2.12-.188,2.457,2.457,0,0,0,1.368-1.375,3.018,3.018,0,0,0,.1-2.174,9.912,9.912,0,0,0-1.2-1.731,11.449,11.449,0,0,1-1.045-1.875,12.555,12.555,0,0,1-.679-2A.26.26,0,0,0,227.179,57.222Z" transform="translate(-179.684 -4.321)" fill="#1d1d1b"/>
    <path id="Path_11730" data-name="Path 11730" d="M260.41,72.574v0h.676Z" transform="translate(-212.378 -29.1)"/>
    <path id="Path_11731" data-name="Path 11731" d="M315.41,173.76" transform="translate(-259.664 -116.096)"/>
    <path id="Path_11732" data-name="Path 11732" d="M256.34,41.924c.909-1.854,5.922-1.275,8.7-.5,3.529.99,5.33,4.56,6.236,7.843a19.161,19.161,0,0,1,.606,3.064,4.232,4.232,0,0,1,1.1,3.487c-.227,1.083-1.041,2.031-1.272,3.114a13.963,13.963,0,0,0-.107,1.877,2.431,2.431,0,0,1-.732,1.727,3.751,3.751,0,0,1-1.623.7,8.206,8.206,0,0,1-2.763.335,3.008,3.008,0,0,1-2.525-1.8c-.512-1.354.536-2.212,1.295-3.165a12.862,12.862,0,0,0,1.272-1.912,12.109,12.109,0,0,0,.689-1.543l.53-5.576s-4.208.959-6.452-1.572A10.848,10.848,0,0,1,258.669,43,22.74,22.74,0,0,0,256.34,41.924Z" transform="translate(-208.88 -1.69)" fill="#608cff"/>
    <path id="Path_11733" data-name="Path 11733" d="M255.016,40.367a1.939,1.939,0,0,1,1.289-.877,8,8,0,0,1,2.289-.227,18.3,18.3,0,0,1,2.612.245,17.561,17.561,0,0,1,2.4.539,7.7,7.7,0,0,1,4.113,3.434,17.077,17.077,0,0,1,2.082,5.553c.069.323.128.645.177.971.022.14.042.289.06.435a2.292,2.292,0,0,0,.027.237.525.525,0,0,0,.13.222,4.95,4.95,0,0,1,.825,1.452,3.263,3.263,0,0,1,.178,1.568,5.156,5.156,0,0,1-.581,1.53,8.37,8.37,0,0,0-.669,1.529,7.5,7.5,0,0,0-.153,1.874,2.819,2.819,0,0,1-.369,1.469,2.333,2.333,0,0,1-1.292.842,12.56,12.56,0,0,1-1.784.412,4.747,4.747,0,0,1-1.752,0,2.626,2.626,0,0,1-2.027-1.824c-.229-.955.5-1.683,1.056-2.334a12.667,12.667,0,0,0,1.909-2.977,6.6,6.6,0,0,0,.359-.877.864.864,0,0,0,.025-.14c.013-.13.024-.26.036-.389l.151-1.6.317-3.337.02-.209a.265.265,0,0,0-.332-.254c-.14.032-.281.055-.421.074l-.094.014-.067.008c-.09.011-.181.02-.271.028-.209.02-.421.034-.63.039a7.251,7.251,0,0,1-3.068-.5,6.74,6.74,0,0,1-2.946-2.946,10.077,10.077,0,0,1-1.2-2.857c-.018-.079-.028-.163-.051-.241-.041-.149-.18-.2-.3-.262a22.757,22.757,0,0,0-2.205-1,.262.262,0,0,0-.322.183h0a.266.266,0,0,0,.184.323,19.973,19.973,0,0,1,2.258,1.032l-.121-.157a7.145,7.145,0,0,0,.44,1.478,12.231,12.231,0,0,0,1.983,3.333,5.573,5.573,0,0,0,1.309,1.192,5.711,5.711,0,0,0,1.417.634,8.365,8.365,0,0,0,2.752.307,8.526,8.526,0,0,0,1.5-.18l-.334-.252-.33,3.479-.175,1.85c-.007.066-.008.14-.02.2a1.473,1.473,0,0,1-.111.281,11.245,11.245,0,0,1-1.035,2,15.3,15.3,0,0,1-1.225,1.606,4.441,4.441,0,0,0-.923,1.439,2.645,2.645,0,0,0,1.48,3,5.752,5.752,0,0,0,4.145.066,3.944,3.944,0,0,0,1.832-.842,2.687,2.687,0,0,0,.734-1.7,11.778,11.778,0,0,1,.185-2.244,15.076,15.076,0,0,1,.851-1.849,3.935,3.935,0,0,0,.411-1.964,4.579,4.579,0,0,0-.638-1.932,6.734,6.734,0,0,0-.595-.842l.077.187a19.651,19.651,0,0,0-1.422-5.479,11.426,11.426,0,0,0-2.606-3.957,7.344,7.344,0,0,0-1.964-1.335,10.206,10.206,0,0,0-2.1-.651,18.758,18.758,0,0,0-4.428-.481,6.992,6.992,0,0,0-2.16.328,2.274,2.274,0,0,0-1.337,1.035C254.406,40.4,254.859,40.67,255.016,40.367Z" transform="translate(-207.323)" fill="#1d1d1b"/>
    <path id="Path_11734" data-name="Path 11734" d="M293.066,108.244a3.211,3.211,0,0,1-1.143-.22l.218-.517a1.821,1.821,0,0,0,1.434.057c.051-.05.045-.15-.017-.3a3.959,3.959,0,0,1-.212-3.41,2.8,2.8,0,0,1,2.113-1.31l.028,0a5.731,5.731,0,0,1,2.157.226l-.225.514a5.085,5.085,0,0,0-1.875-.182,2.269,2.269,0,0,0-1.705,1.023,3.508,3.508,0,0,0,.237,2.926.774.774,0,0,1-.1.911A1.276,1.276,0,0,1,293.066,108.244Z" transform="translate(-239.471 -54.853)"/>
    <path id="Path_11735" data-name="Path 11735" d="M285.669,150.76a1.821,1.821,0,0,1-1.538-.814l.457-.325a1.49,1.49,0,0,0,1.967.341l.283.485A2.416,2.416,0,0,1,285.669,150.76Z" transform="translate(-232.772 -95.342)"/>
    <path id="Path_11736" data-name="Path 11736" d="M276.758,117.421c-.011.432.229.78.536.776s.561-.359.575-.791-.229-.78-.536-.776-.561.358-.575.791" transform="translate(-226.433 -66.979)"/>
    <path id="Path_11737" data-name="Path 11737" d="M312.058,115.3c-.01.433.229.78.536.776s.561-.358.575-.791-.227-.78-.534-.774-.561.358-.577.79" transform="translate(-256.782 -65.157)"/>
    <path id="Path_11738" data-name="Path 11738" d="M266.906,106l-.321-.46c2.142-1.5,3.343-.3,3.393-.246l-.4.39.2-.2-.2.2C269.54,105.651,268.639,104.791,266.906,106Z" transform="translate(-217.687 -56.803)"/>
    <g id="Group_8502" data-name="Group 8502" transform="translate(27.492 63.948)">
      <path id="Path_11739" data-name="Path 11739" d="M135.069,227.567c-9.865,2.665-13.312,35.649-13.312,35.649,1.174,3.367-.007,5.221-.007,5.221-.121.17-.3.342-.5.295a.516.516,0,0,1-.254-.184,2.43,2.43,0,0,1-.584-1.666c.008-.175-3.128,5.1-4.172,3.686s1.006-5.5,1.683-6.37h-.079s-.391-2.077,1.488-14.238c1.11-7.187,5.224-26.2,10.209-29.4Z" transform="translate(-115.672 -220.279)" fill="#fff"/>
      <path id="Path_11740" data-name="Path 11740" d="M115,269.368a.817.817,0,0,1-.674-.354c-1.1-1.489.759-5.338,1.549-6.516-.043-.309-.277-2.861,1.492-14.3a135.79,135.79,0,0,1,3.659-16.233c2.2-7.435,4.446-11.93,6.676-13.36a.28.28,0,0,1,.372.062l5.53,7.007a.28.28,0,0,1-.147.445c-9.369,2.531-12.924,33.743-13.1,35.346,1.17,3.418-.005,5.324-.056,5.4l-.008.012c-.314.443-.634.444-.8.405l-.023-.006a.793.793,0,0,1-.385-.275,2.7,2.7,0,0,1-.563-1.087c-1.193,1.727-2.522,3.434-3.508,3.452Zm1.415-7.1a.28.28,0,0,1,.04.387c-.787,1.006-2.559,4.841-1.679,6.03a.262.262,0,0,0,.23.126c.577-.011,1.648-1.152,3.183-3.394.353-.515.407-.594.622-.522a.287.287,0,0,1,.192.284,2.142,2.142,0,0,0,.516,1.47l.013.016a.234.234,0,0,0,.1.078c.026,0,.1-.043.2-.177.059-.1,1.058-1.872-.024-4.973a.284.284,0,0,1-.014-.122,144.669,144.669,0,0,1,2.963-16.862c2.717-11.125,6.132-17.48,10.155-18.9l-5.114-6.48c-4.589,3.387-8.622,20.95-9.874,29.062C116.334,258.562,116.37,261.583,116.417,262.263Z" transform="translate(-113.987 -218.56)" fill="#1d1d1b"/>
    </g>
    <g id="Group_8503" data-name="Group 8503" transform="translate(59.827 63.948)">
      <path id="Path_11741" data-name="Path 11741" d="M352.024,220.56c4.984,3.2,9.1,22.212,10.209,29.4,1.878,12.16,1.487,14.238,1.487,14.238h-.079c.677.867,2.728,4.961,1.683,6.37s-4.18-3.862-4.173-3.686a2.43,2.43,0,0,1-.584,1.666.518.518,0,0,1-.251.188c-.2.048-.384-.125-.505-.295,0,0-1.181-1.854,0-5.221,0,0-3.446-32.986-13.312-35.649Z" transform="translate(-346.22 -220.279)" fill="#fff"/>
      <path id="Path_11742" data-name="Path 11742" d="M363.157,269.367h-.017c-.986-.019-2.316-1.726-3.508-3.452a2.7,2.7,0,0,1-.562,1.087.8.8,0,0,1-.379.279l-.028.008c-.163.039-.484.037-.8-.4l-.008-.012c-.051-.08-1.226-1.987-.049-5.4-.176-1.606-3.731-32.817-13.1-35.345a.281.281,0,0,1-.147-.445l5.524-7.011a.281.281,0,0,1,.372-.063c2.229,1.43,4.475,5.925,6.674,13.36a136.018,136.018,0,0,1,3.66,16.233c1.767,11.438,1.533,13.991,1.49,14.3.79,1.178,2.653,5.029,1.549,6.517A.818.818,0,0,1,363.157,269.367Zm-3.7-4.5c.136,0,.227.134.511.549,1.534,2.238,2.6,3.378,3.181,3.389a.258.258,0,0,0,.23-.126c.881-1.187-.892-5.023-1.679-6.03a.28.28,0,0,1,.04-.387c.047-.674.084-3.692-1.5-13.98-1.254-8.112-5.29-25.675-9.874-29.062l-5.109,6.484c4.024,1.422,7.439,7.776,10.155,18.9a144.742,144.742,0,0,1,2.963,16.863.28.28,0,0,1-.014.122c-1.086,3.095-.094,4.865-.03,4.973.089.123.167.173.2.176a.236.236,0,0,0,.1-.079l.015-.019a2.143,2.143,0,0,0,.516-1.474.287.287,0,0,1,.194-.28A.362.362,0,0,1,359.458,264.868Z" transform="translate(-344.501 -218.56)" fill="#1d1d1b"/>
    </g>
    <path id="Path_11743" data-name="Path 11743" d="M296.68,344.957a.849.849,0,0,1-.14-.036c.007,0,.014.007.022.007A.57.57,0,0,1,296.68,344.957Z" transform="translate(-243.441 -263.247)" fill="#9898d8"/>
    <path id="Path_11744" data-name="Path 11744" d="M294.3,435.847a.982.982,0,0,0,.052.421.376.376,0,0,0,.331.233.1.1,0,0,0,.052-.015.119.119,0,0,0,.038-.052,2.139,2.139,0,0,0,.281-1.1.462.462,0,0,0-.1-.281.39.39,0,0,0-.541.029A1.552,1.552,0,0,0,294.3,435.847Z" transform="translate(-241.513 -340.657)" fill="#353642"/>
    <g id="Group_8504" data-name="Group 8504" transform="translate(36.536 99.145)">
      <path id="Path_11745" data-name="Path 11745" d="M189.811,547.035c.269-3.289-7.172-52.313-8.8-62.616s1.028-12.939,1.035-12.939a39.41,39.41,0,0,1,4.89,1.321c2.681.93,8.321,1.8,9.819,5.8-.355,7.42-1.72,68.412-1.523,68.989" transform="translate(-180.197 -471.199)" fill="#fff"/>
      <path id="Path_11746" data-name="Path 11746" d="M193.494,546.151a.281.281,0,0,1-.266-.19c-.145-.427.329-22.538.54-32.024.334-15.051.778-33,.966-37.009-1.212-3.131-5.122-4.256-7.981-5.078-.6-.174-1.173-.337-1.647-.5a39.249,39.249,0,0,0-4.691-1.278c-.431.574-2.28,3.642-.865,12.587,1.558,9.848,9.081,59.312,8.8,62.683a.28.28,0,1,1-.559-.046c.258-3.15-6.918-50.657-8.8-62.549-1.51-9.542.611-12.6,1.051-13.113a.332.332,0,0,1,.261-.15.274.274,0,0,1,.056.006,39.82,39.82,0,0,1,4.925,1.331c.461.16,1.024.322,1.62.493,2.99.86,7.085,2.038,8.372,5.474a.28.28,0,0,1,.018.112c-.37,7.735-1.7,67.467-1.53,68.914a.281.281,0,0,1-.274.342Zm.266-.371c0,.008.005.016.007.024A.188.188,0,0,0,193.76,545.78Z" transform="translate(-178.462 -469.48)" fill="#1d1d1b"/>
    </g>
    <path id="Path_11747" data-name="Path 11747" d="M229.5,1003.6l-2.481,6.694a5.246,5.246,0,0,0-.452,1.982,1.777,1.777,0,0,0,1.021,1.636c.968.362,1.936-.473,2.633-1.234,2.244-2.459,4.588-5.088,5.257-8.352a6.44,6.44,0,0,1-6.112-.561" transform="translate(-183.283 -829.533)" fill="#608cff"/>
    <path id="Path_11748" data-name="Path 11748" d="M227.673,1002.022l-1.971,5.316-.485,1.313a8.845,8.845,0,0,0-.4,1.262,2.633,2.633,0,0,0,.369,2.169,1.683,1.683,0,0,0,1.894.571,4.738,4.738,0,0,0,1.854-1.4,38.219,38.219,0,0,0,3.031-3.629,12.766,12.766,0,0,0,2.2-4.731.268.268,0,0,0-.387-.3,6.2,6.2,0,0,1-5.847-.561c-.281-.189-.544.266-.265.454a6.733,6.733,0,0,0,6.378.561l-.387-.3c-.607,2.919-2.538,5.3-4.489,7.458a10.965,10.965,0,0,1-1.556,1.57,1.475,1.475,0,0,1-1.783.229,1.851,1.851,0,0,1-.544-1.755,6.373,6.373,0,0,1,.345-1.206c.15-.412.3-.825.457-1.236l2.093-5.645c.118-.318-.391-.456-.508-.14Z" transform="translate(-181.708 -828.025)" fill="#1d1d1b"/>
    <g id="Group_8505" data-name="Group 8505" transform="translate(52.686 99.145)">
      <path id="Path_11749" data-name="Path 11749" d="M297.113,547.59c.2-.577-1.168-61.568-1.523-68.989,1.5-4,7.14-4.87,9.819-5.8a39.409,39.409,0,0,1,4.89-1.321c.007,0,2.665,2.636,1.035,12.939s-9.071,59.327-8.8,62.616" transform="translate(-295.309 -471.199)" fill="#fff"/>
      <path id="Path_11750" data-name="Path 11750" d="M295.394,546.151a.281.281,0,0,1-.274-.342c.166-1.447-1.16-61.178-1.53-68.914a.283.283,0,0,1,.018-.112c1.288-3.435,5.382-4.614,8.371-5.474.6-.172,1.159-.334,1.619-.493a39.863,39.863,0,0,1,4.926-1.331.275.275,0,0,1,.056-.006.332.332,0,0,1,.261.15c.44.516,2.561,3.571,1.051,13.113-1.881,11.893-9.057,59.4-8.8,62.549a.281.281,0,1,1-.559.046c-.277-3.369,7.245-52.834,8.8-62.683,1.415-8.944-.434-12.013-.865-12.587a39.278,39.278,0,0,0-4.693,1.279c-.472.164-1.042.328-1.646.5-2.859.823-6.768,1.948-7.98,5.078.316,6.8,1.754,68.306,1.506,69.034A.281.281,0,0,1,295.394,546.151Zm-.266-.371a.167.167,0,0,0-.007.024A.232.232,0,0,1,295.128,545.78Z" transform="translate(-293.59 -469.48)" fill="#1d1d1b"/>
    </g>
    <path id="Path_11751" data-name="Path 11751" d="M309.938,1003.6l2.481,6.694a5.219,5.219,0,0,1,.452,1.982,1.779,1.779,0,0,1-1.021,1.636c-.968.362-1.936-.473-2.632-1.234-2.244-2.459-4.59-5.088-5.259-8.352a6.444,6.444,0,0,0,6.113-.561" transform="translate(-249.82 -829.533)" fill="#608cff"/>
    <path id="Path_11752" data-name="Path 11752" d="M308.128,1002.114l1.856,4.988c.3.815.641,1.626.894,2.458a2.469,2.469,0,0,1-.088,2.054,1.2,1.2,0,0,1-1.6.411,5.719,5.719,0,0,1-1.65-1.434,34.122,34.122,0,0,1-2.833-3.428,12.249,12.249,0,0,1-2.042-4.463l-.386.3a6.733,6.733,0,0,0,6.377-.561c.281-.188.017-.644-.265-.455a6.2,6.2,0,0,1-5.846.561.268.268,0,0,0-.387.3c.651,3.124,2.766,5.649,4.855,7.951a7.779,7.779,0,0,0,1.714,1.582,1.821,1.821,0,0,0,2.068,0,2.24,2.24,0,0,0,.793-1.856,8.406,8.406,0,0,0-.729-2.575l-2.214-5.973c-.116-.314-.626-.178-.508.14Z" transform="translate(-248.263 -827.977)" fill="#1d1d1b"/>
    <g id="Group_8506" data-name="Group 8506" transform="translate(36.466 95.563)">
      <path id="Path_11753" data-name="Path 11753" d="M209.076,445.94a21.83,21.83,0,0,1-25.7,0s-3.982,4.031-3.344,12.521c0,0,6.575-2.329,16.116,2.706h.153c9.538-5.034,16.116-2.706,16.116-2.706C213.058,449.971,209.076,445.94,209.076,445.94Z" transform="translate(-179.685 -445.659)" fill="#353642"/>
      <path id="Path_11754" data-name="Path 11754" d="M194.579,459.727h-.153a.28.28,0,0,1-.131-.032c-9.307-4.911-15.827-2.712-15.892-2.689a.281.281,0,0,1-.373-.244c-.64-8.519,3.258-12.571,3.424-12.739a.28.28,0,0,1,.364-.03,21.549,21.549,0,0,0,25.368,0,.28.28,0,0,1,.364.03c.166.168,4.065,4.22,3.424,12.739a.28.28,0,0,1-.373.243c-.065-.023-6.587-2.221-15.891,2.69A.28.28,0,0,1,194.579,459.727Zm-.084-.561h.014a26.218,26.218,0,0,1,11.7-3.241,15.573,15.573,0,0,1,4.23.446,19.177,19.177,0,0,0-1.421-8.932,11.9,11.9,0,0,0-1.713-2.849,22.078,22.078,0,0,1-25.606,0,11.9,11.9,0,0,0-1.713,2.849,19.176,19.176,0,0,0-1.42,8.932,15.617,15.617,0,0,1,4.229-.446A26.227,26.227,0,0,1,194.5,459.166Z" transform="translate(-177.96 -443.94)" fill="#1d1d1b"/>
    </g>
    <g id="Group_8507" data-name="Group 8507" transform="translate(41.08 63.948)">
      <path id="Path_11755" data-name="Path 11755" d="M237.253,220.611,225.2,229,212.85,220.56l1.861,11.847,1.732,5.6h16.3l1.376-5.852Z" transform="translate(-212.57 -220.28)" fill="#353642"/>
      <path id="Path_11756" data-name="Path 11756" d="M231.023,236.573h-16.3a.28.28,0,0,1-.268-.2l-1.732-5.6a.275.275,0,0,1-.009-.039l-1.861-11.847a.28.28,0,0,1,.435-.275l12.194,8.335,11.891-8.283a.281.281,0,0,1,.431.3l-3.135,11.549-1.374,5.843A.28.28,0,0,1,231.023,236.573Zm-16.091-.561H230.8l1.325-5.636,2.935-10.813-11.416,7.953a.281.281,0,0,1-.319,0l-11.817-8.078,1.758,11.186Z" transform="translate(-210.85 -218.561)" fill="#1d1d1b"/>
    </g>
    <g id="Group_8508" data-name="Group 8508" transform="translate(42.517 71.682)">
      <path id="Path_11757" data-name="Path 11757" d="M231.561,278.5a4.231,4.231,0,1,1-7.4-2.805" transform="translate(-222.819 -275.409)" fill="#353642"/>
      <path id="Path_11758" data-name="Path 11758" d="M225.611,281.289a4.511,4.511,0,0,1-3.374-7.505.281.281,0,1,1,.42.373,3.95,3.95,0,0,0,2.955,6.572h0a3.95,3.95,0,0,0,3.948-3.952.28.28,0,0,1,.28-.281h0a.28.28,0,0,1,.281.28,4.511,4.511,0,0,1-4.509,4.514Z" transform="translate(-221.1 -273.69)" fill="#1d1d1b"/>
    </g>
    <g id="Group_8509" data-name="Group 8509" transform="translate(54.798 71.681)">
      <path id="Path_11759" data-name="Path 11759" d="M310.65,278.5a4.231,4.231,0,1,0,7.4-2.805" transform="translate(-310.369 -275.409)" fill="#353642"/>
      <path id="Path_11760" data-name="Path 11760" d="M313.161,281.289h0a4.511,4.511,0,0,1-4.509-4.514.281.281,0,0,1,.281-.28h0a.28.28,0,0,1,.28.281,3.95,3.95,0,0,0,3.948,3.952h0a3.95,3.95,0,0,0,2.955-6.572.281.281,0,1,1,.42-.372,4.511,4.511,0,0,1-3.374,7.505Z" transform="translate(-308.65 -273.689)" fill="#1d1d1b"/>
    </g>
  </g>
</svg>
