<svg xmlns="http://www.w3.org/2000/svg" width="68.586" height="146" viewBox="0 0 68.586 146">
  <g id="Group_8701" data-name="Group 8701" transform="translate(-32.276 -28.774)">
    <rect id="Rectangle_5991" data-name="Rectangle 5991" width="63.249" height="84.952" transform="translate(32.276 48.283) rotate(-3.69)" fill="#ffd8f6"/>
    <g id="Group_8511" data-name="Group 8511" transform="translate(54.68 68.611)">
      <path id="Path_11761" data-name="Path 11761" d="M216.252,313.824a24.669,24.669,0,0,0,2.139,14.307s-2.911,5.557-12.735,5.557-13.216-5.557-13.216-5.557,4.17-5.292,2.364-16.131Z" transform="translate(-192.157 -311.717)" fill="#fff"/>
      <path id="Path_11762" data-name="Path 11762" d="M203.94,332.254a18.463,18.463,0,0,1-10.449-2.826,10.466,10.466,0,0,1-3.009-2.866.283.283,0,0,1,.019-.323c.041-.052,4.069-5.339,2.307-15.909a.283.283,0,0,1,.3-.329l21.448,1.824a.283.283,0,0,1,.257.319,24.63,24.63,0,0,0,2.105,14.131.283.283,0,0,1,0,.27,9.244,9.244,0,0,1-2.77,2.878C212.337,330.715,209.089,332.254,203.94,332.254ZM191.07,326.42a10.793,10.793,0,0,0,2.764,2.556,17.926,17.926,0,0,0,10.106,2.712c8.724,0,11.907-4.473,12.41-5.281a25.477,25.477,0,0,1-2.133-14.042L193.425,310.6C194.939,320.271,191.764,325.431,191.07,326.42Z" transform="translate(-190.44 -309.999)" fill="#1d1d1b"/>
    </g>
    <g id="Group_8512" data-name="Group 8512" transform="translate(73.284 53.222)">
      <path id="Path_11763" data-name="Path 11763" d="M336.992,223.625a52.349,52.349,0,0,1-4.156,9.875,1.251,1.251,0,0,1-.339.378,6.551,6.551,0,0,0-2.8,4.01,1.093,1.093,0,0,0-.007.319.441.441,0,0,0,.235.374.523.523,0,0,0,.316,0,2.451,2.451,0,0,0,1.449-1.038c.1-.149-.375,6.027,1.306,5.469s2.366-5.131,2.309-6.24l.064.045s1.531-1.49,7.04-12.627l.014-.028a8.16,8.16,0,0,0-.317-7.791c-2.657-4.455-7.85-9.5-10.978-12.644a1.241,1.241,0,0,0-1.755,0h0l-5.226,5.18a1.242,1.242,0,0,0,.582,2.089c3.615.868,7.6,4.149,11.213,7.993A4.692,4.692,0,0,1,336.992,223.625Z" transform="translate(-323.492 -203.08)" fill="#fff"/>
      <path id="Path_11764" data-name="Path 11764" d="M331.068,241.614a.8.8,0,0,1-.48-.16c-.8-.587-.91-2.771-.893-4.89a2.726,2.726,0,0,1-1.1.572.8.8,0,0,1-.479,0,.288.288,0,0,1-.046-.019.726.726,0,0,1-.386-.6,1.371,1.371,0,0,1,.01-.39,6.852,6.852,0,0,1,2.914-4.189.966.966,0,0,0,.264-.294,52.069,52.069,0,0,0,4.131-9.818h0a4.411,4.411,0,0,0-.99-4.355c-4.235-4.5-7.961-7.165-11.073-7.912a1.525,1.525,0,0,1-.716-2.566l5.226-5.18a1.513,1.513,0,0,1,1.077-.446h0a1.514,1.514,0,0,1,1.078.447l.767.768c3.1,3.1,7.786,7.793,10.254,11.931a8.413,8.413,0,0,1,.328,8.061l-.015.029c-5.172,10.456-6.852,12.443-7.072,12.679-.03,1.431-.727,5.695-2.5,6.285A.939.939,0,0,1,331.068,241.614Zm-1.094-6.074a.28.28,0,0,1,.08.012c.218.066.217.164.21.8-.033,2.74.189,4.3.658,4.646a.261.261,0,0,0,.263.029c1.419-.471,2.181-4.668,2.115-5.956a.284.284,0,0,1,.257-.3c.43-.529,2.214-3,6.876-12.425l.014-.029a7.848,7.848,0,0,0-.307-7.519c-2.432-4.078-7.088-8.737-10.169-11.82l-.767-.769a.95.95,0,0,0-.677-.28h0a.95.95,0,0,0-.677.28l-5.227,5.181a.959.959,0,0,0,.449,1.613c3.221.774,7.041,3.49,11.353,8.075a4.978,4.978,0,0,1,1.117,4.915h0a52.675,52.675,0,0,1-4.18,9.93,1.528,1.528,0,0,1-.416.464,6.282,6.282,0,0,0-2.693,3.826.816.816,0,0,0-.006.24.248.248,0,0,1,0,.025.158.158,0,0,0,.064.121.239.239,0,0,0,.118-.007l.016,0a2.161,2.161,0,0,0,1.282-.918A.292.292,0,0,1,329.974,235.541Zm5.3-13.632h0Z" transform="translate(-321.775 -201.364)" fill="#1d1d1b"/>
    </g>
    <g id="Group_8513" data-name="Group 8513" transform="translate(52.398 30.767)">
      <path id="Path_11765" data-name="Path 11765" d="M205.418,69.408c-.084-.251.038-.878-.12-1.091-2.612-4.25-10.785-3.952-12-3.99l-.221-3.116c.661-.367,2.8-.97,3.571-7.836.425-3.825-1.66-7.954-1.66-7.954s-6.237-2.3-10.038,1.632c-2.691,2.789-2.451,12.1,2.582,14.677a6.47,6.47,0,0,1,.116,2.673c-.477.038-9.035-.4-10.317,4.31a2.41,2.41,0,0,0-.357.7l-.643,5.349,14.246,7.849,16.381-8.5Z" transform="translate(-176.047 -44.48)" fill="#fff"/>
      <path id="Path_11766" data-name="Path 11766" d="M188.859,81.253a.282.282,0,0,1-.137-.035l-14.246-7.849a.284.284,0,0,1-.145-.282l.643-5.349a.291.291,0,0,1,.011-.053,2.684,2.684,0,0,1,.368-.735c.831-2.922,4.377-4.466,10.262-4.466h.077a6.319,6.319,0,0,0-.123-2.2c-2.1-1.132-3.6-3.577-4.128-6.732-.56-3.358.092-6.785,1.586-8.333,3.884-4.022,10.275-1.724,10.34-1.7a.282.282,0,0,1,.155.138c.087.172,2.118,4.249,1.689,8.113-.729,6.516-2.7,7.54-3.557,7.971l.189,2.671h.139c6.2.043,10.178,1.427,11.835,4.111a1.406,1.406,0,0,1,.135.791,1.8,1.8,0,0,0,.018.367v0l1.538,4.7a.283.283,0,0,1-.139.34l-16.381,8.5A.283.283,0,0,1,188.859,81.253Zm-13.942-8.288,13.946,7.684L204.9,72.329l-1.463-4.471a1.82,1.82,0,0,1-.047-.55,1.652,1.652,0,0,0-.034-.463l-.012-.018c-1.545-2.513-5.367-3.808-11.362-3.85-.175,0-.312,0-.408-.005a.283.283,0,0,1-.274-.263l-.221-3.116a.284.284,0,0,1,.145-.268c.048-.027.1-.054.165-.085.767-.386,2.564-1.288,3.262-7.535.374-3.371-1.273-7.04-1.582-7.693a13.116,13.116,0,0,0-3.418-.607,7.809,7.809,0,0,0-6.213,2.206c-1.355,1.4-1.959,4.7-1.435,7.846.506,3.034,1.943,5.359,3.942,6.381a.283.283,0,0,1,.144.176,6.7,6.7,0,0,1,.12,2.807.283.283,0,0,1-.255.224c-.049,0-.128,0-.3,0h-.034c-5.556,0-9.011,1.455-9.731,4.1a.283.283,0,0,1-.046.094,2.116,2.116,0,0,0-.307.59Z" transform="translate(-174.33 -42.842)" fill="#1d1d1b"/>
    </g>
    <path id="Path_11767" data-name="Path 11767" d="M277.316,88.209a3.237,3.237,0,0,1-1.153-.222l.22-.522c.462.195,1.246.257,1.448.057.051-.051.046-.153-.016-.3a4,4,0,0,1-.214-3.442,2.827,2.827,0,0,1,2.134-1.322l.029,0a5.782,5.782,0,0,1,2.178.228l-.227.519a5.131,5.131,0,0,0-1.893-.183,2.291,2.291,0,0,0-1.722,1.033A3.543,3.543,0,0,0,278.338,87a.784.784,0,0,1-.107.922A1.29,1.29,0,0,1,277.316,88.209Z" transform="translate(-209.34 -46.059)"/>
    <path id="Path_11768" data-name="Path 11768" d="M272.678,135.022a1.84,1.84,0,0,1-1.4-.646l.419-.381a1.5,1.5,0,0,0,2.013.106l.341.452A2.392,2.392,0,0,1,272.678,135.022Z" transform="translate(-205.149 -90.315)"/>
    <path id="Path_11769" data-name="Path 11769" d="M261,97.337c-.01.438.232.788.543.783s.567-.361.581-.8-.231-.788-.541-.782-.567.361-.582.8" transform="translate(-196.323 -58.166)"/>
    <path id="Path_11770" data-name="Path 11770" d="M296.3,95.209c-.011.436.231.788.541.783s.567-.363.581-.8-.229-.788-.54-.783-.567.363-.582.8" transform="translate(-226.622 -56.338)"/>
    <path id="Path_11771" data-name="Path 11771" d="M251.149,85.923l-.324-.464c2.163-1.511,3.376-.3,3.427-.248l-.407.394.2-.2-.2.2C253.809,85.569,252.9,84.7,251.149,85.923Z" transform="translate(-187.591 -48.005)"/>
    <g id="Group_8514" data-name="Group 8514" transform="translate(66.174 46.938)">
      <path id="Path_11772" data-name="Path 11772" d="M273.58,159.142a6.122,6.122,0,0,0,3.779-.142" transform="translate(-273.297 -158.717)" fill="#fff"/>
      <path id="Path_11773" data-name="Path 11773" d="M273.348,157.923a4.506,4.506,0,0,1-1.592-.236.283.283,0,0,1,.213-.525,5.969,5.969,0,0,0,3.593-.151.283.283,0,1,1,.161.543A8.378,8.378,0,0,1,273.348,157.923Z" transform="translate(-271.58 -156.999)" fill="#1d1d1b"/>
    </g>
    <g id="Group_8515" data-name="Group 8515" transform="translate(42.643 58.986)">
      <path id="Path_11774" data-name="Path 11774" d="M126.332,247.971c-9.808,3.209-13.357,32.048-13.357,32.048,1.362,3.333.276,5.265.276,5.265-.111.176-.287.361-.492.322a.51.51,0,0,1-.266-.172,2.441,2.441,0,0,1-.675-1.648c-.011-.174-2.9,5.307-4.027,3.947s.723-5.6,1.361-6.513l-.079,0s-.5-2.076.748-14.438c.741-7.306,3.651-16.464,5.9-22.732Z" transform="translate(-107.156 -243.771)" fill="#fff"/>
      <path id="Path_11775" data-name="Path 11775" d="M106.529,286.516a.825.825,0,0,1-.65-.319c-1.2-1.443.482-5.424,1.218-6.654-.06-.311-.43-2.875.749-14.5.738-7.278,3.625-16.416,5.916-22.8a.283.283,0,0,1,.365-.17l10.61,3.917a.283.283,0,0,1-.01.535c-9.289,3.039-12.946,30.134-13.154,31.741,1.355,3.378.279,5.358.232,5.441l-.008.013a.778.778,0,0,1-.785.449l-.02,0a.79.79,0,0,1-.405-.258,2.718,2.718,0,0,1-.626-1.069c-1.118,1.806-2.378,3.608-3.37,3.678Zm1.1-7.239a.283.283,0,0,1,.061.389c-.741,1.057-2.328,5.018-1.375,6.169a.257.257,0,0,0,.237.114c.576-.04,1.595-1.242,3.027-3.57.35-.57.4-.643.613-.588a.29.29,0,0,1,.216.262,2.16,2.16,0,0,0,.6,1.47l.015.017a.228.228,0,0,0,.1.072c.025,0,.1-.048.19-.188.055-.106.96-1.945-.294-5.014a.282.282,0,0,1-.019-.142,116.585,116.585,0,0,1,3.009-14.862c2.669-9.615,5.975-15.375,9.834-17.143L114.2,242.7c-2.265,6.34-5.068,15.277-5.79,22.4C107.35,275.549,107.545,278.595,107.629,279.277Z" transform="translate(-105.461 -242.054)" fill="#1d1d1b"/>
    </g>
    <g id="Group_8516" data-name="Group 8516" transform="translate(50.225 52.429)">
      <path id="Path_11776" data-name="Path 11776" d="M197.383,205.1s-3.424-5.3-6.632-6.9l-4.544,8.477H170.6l-4.694-8.91c-3.21,1.6-4.914,8.252-4.914,8.252l7,4.095-.436,5.659h21.707l-.435-5.659Z" transform="translate(-160.708 -197.484)" fill="#353642"/>
      <path id="Path_11777" data-name="Path 11777" d="M187.541,214.339H165.834a.283.283,0,0,1-.282-.305l.423-5.482-6.843-4.005a.283.283,0,0,1-.131-.315,25.079,25.079,0,0,1,1.269-3.57c1.125-2.534,2.4-4.171,3.793-4.865a.283.283,0,0,1,.377.121l4.614,8.759H184.32l4.464-8.327a.283.283,0,0,1,.376-.12c3.241,1.618,6.6,6.783,6.744,7a.283.283,0,0,1-.095.4l-8.407,4.921.421,5.482a.283.283,0,0,1-.282.3Zm-21.4-.567h21.1l-.411-5.354a.283.283,0,0,1,.139-.266l8.3-4.859c-.695-1.025-3.472-4.958-6.113-6.428l-4.411,8.228a.283.283,0,0,1-.25.149H168.882a.283.283,0,0,1-.251-.151l-4.56-8.656c-2.6,1.555-4.159,6.644-4.467,7.731l6.808,3.985a.283.283,0,0,1,.139.266Z" transform="translate(-158.991 -195.767)" fill="#1d1d1b"/>
    </g>
    <path id="Path_11778" data-name="Path 11778" d="M284.832,324.858a.715.715,0,0,1-.142-.038c.007,0,.016.008.023.008A.533.533,0,0,1,284.832,324.858Z" transform="translate(-216.659 -254.11)" fill="#9898d8"/>
    <path id="Path_11779" data-name="Path 11779" d="M282.445,415.77a.991.991,0,0,0,.054.425.375.375,0,0,0,.333.235.12.12,0,0,0,.054-.016.112.112,0,0,0,.037-.054,2.152,2.152,0,0,0,.283-1.106.485.485,0,0,0-.1-.283.392.392,0,0,0-.545.031A1.569,1.569,0,0,0,282.445,415.77Z" transform="translate(-214.729 -331.409)" fill="#353642"/>
    <g id="Group_8517" data-name="Group 8517" transform="translate(54.047 88.352)">
      <path id="Path_11780" data-name="Path 11780" d="M194.6,527.66c.273-3.322-4.4-49.353-6.046-59.759s.4-16.541.405-16.541c1.829.38,1.264.827,2.735,1.336,2.708.938,8.4,1.817,9.916,5.857-.357,7.492-1.735,69.084-1.538,69.666" transform="translate(-187.641 -451.077)" fill="#fff"/>
      <path id="Path_11781" data-name="Path 11781" d="M198.4,526.786a.284.284,0,0,1-.268-.193c-.146-.431.334-22.759.547-32.339.338-15.2.786-33.323.974-37.372-1.223-3.164-5.175-4.3-8.065-5.131-.607-.175-1.181-.339-1.658-.5a3.314,3.314,0,0,1-1.231-.69,2.418,2.418,0,0,0-1.218-.58c-.347,1.2-1.776,6.951-.318,16.163,1.686,10.66,6.321,56.508,6.048,59.827a.283.283,0,1,1-.565-.047c.272-3.3-4.359-49.047-6.043-59.692-1.586-10.023.265-16.53.47-16.769a.283.283,0,0,1,.273-.093,3.2,3.2,0,0,1,1.719.758,2.763,2.763,0,0,0,1.051.588c.463.16,1.03.323,1.629.5,3.022.869,7.16,2.058,8.459,5.53a.281.281,0,0,1,.018.113c-.372,7.814-1.711,68.133-1.545,69.591a.284.284,0,0,1-.277.345Zm.268-.374c0,.008,0,.016.007.024A.2.2,0,0,0,198.673,526.412Z" transform="translate(-185.97 -449.36)" fill="#1d1d1b"/>
    </g>
    <path id="Path_11782" data-name="Path 11782" d="M217.671,983.51l-2.506,6.76a5.3,5.3,0,0,0-.456,2,1.794,1.794,0,0,0,1.033,1.652c.976.364,1.953-.479,2.657-1.248,2.266-2.482,4.635-5.136,5.309-8.432a6.508,6.508,0,0,1-6.172-.567" transform="translate(-156.589 -819.495)" fill="#608cff"/>
    <path id="Path_11783" data-name="Path 11783" d="M215.876,981.907l-1.983,5.369q-.246.663-.492,1.326a8.969,8.969,0,0,0-.407,1.275,2.654,2.654,0,0,0,.374,2.19,1.7,1.7,0,0,0,1.911.578,4.774,4.774,0,0,0,1.873-1.417,38.725,38.725,0,0,0,3.061-3.665,12.9,12.9,0,0,0,2.218-4.778.269.269,0,0,0-.39-.3,6.255,6.255,0,0,1-5.9-.567c-.283-.191-.551.268-.269.459a6.8,6.8,0,0,0,6.441.567l-.391-.3c-.612,2.946-2.561,5.347-4.533,7.53a10.947,10.947,0,0,1-1.571,1.586,1.489,1.489,0,0,1-1.8.231,1.87,1.87,0,0,1-.55-1.772,6.39,6.39,0,0,1,.348-1.218c.153-.425.309-.833.463-1.249l2.112-5.7C216.508,981.727,216,981.588,215.876,981.907Z" transform="translate(-155.051 -817.963)" fill="#1d1d1b"/>
    <g id="Group_8518" data-name="Group 8518" transform="translate(67.451 88.358)">
      <path id="Path_11784" data-name="Path 11784" d="M284.138,528.269c.2-.582-1.18-62.174-1.538-69.666,1.514-4.04,7.21-4.92,9.916-5.857,1.472-.509.908-.956,2.735-1.336.007,0,2.051,6.136.405,16.541s-6.316,56.433-6.043,59.752" transform="translate(-282.317 -451.127)" fill="#fff"/>
      <path id="Path_11785" data-name="Path 11785" d="M282.421,526.836a.284.284,0,0,1-.276-.346c.167-1.468-1.171-61.779-1.545-69.591a.285.285,0,0,1,.018-.113c1.3-3.471,5.438-4.661,8.458-5.529.6-.173,1.167-.336,1.63-.5a2.768,2.768,0,0,0,1.052-.588,3.205,3.205,0,0,1,1.719-.758.283.283,0,0,1,.273.093c.2.239,2.055,6.746.469,16.769-1.684,10.642-6.312,56.381-6.04,59.685a.283.283,0,0,1-.565.046c-.273-3.319,4.359-49.162,6.045-59.82,1.457-9.211.029-14.967-.318-16.163a2.421,2.421,0,0,0-1.218.58,3.317,3.317,0,0,1-1.232.69c-.477.165-1.051.33-1.659.505-2.888.831-6.838,1.967-8.064,5.13.32,6.869,1.771,68.977,1.521,69.712A.284.284,0,0,1,282.421,526.836Zm-.268-.375a.244.244,0,0,0-.007.024C282.148,526.477,282.15,526.469,282.153,526.461Z" transform="translate(-280.6 -449.409)" fill="#1d1d1b"/>
    </g>
    <path id="Path_11786" data-name="Path 11786" d="M295.007,983.51l2.506,6.76a5.3,5.3,0,0,1,.456,2,1.8,1.8,0,0,1-1.031,1.652c-.977.364-1.955-.479-2.657-1.248-2.266-2.482-4.635-5.136-5.311-8.432a6.508,6.508,0,0,0,6.172-.567" transform="translate(-220.333 -819.495)" fill="#608cff"/>
    <path id="Path_11787" data-name="Path 11787" d="M293.124,982.052,295,987.091c.306.823.647,1.642.9,2.482a2.489,2.489,0,0,1-.089,2.072,1.205,1.205,0,0,1-1.615.415,5.77,5.77,0,0,1-1.666-1.446,34.613,34.613,0,0,1-2.861-3.462,12.369,12.369,0,0,1-2.062-4.507l-.4.3a6.8,6.8,0,0,0,6.44-.567c.283-.19.017-.65-.268-.459a6.257,6.257,0,0,1-5.9.567.269.269,0,0,0-.391.3c.656,3.153,2.793,5.7,4.9,8.027a7.829,7.829,0,0,0,1.731,1.6,1.839,1.839,0,0,0,2.088,0,2.261,2.261,0,0,0,.8-1.874,8.488,8.488,0,0,0-.737-2.6l-2.231-6.027C293.519,981.593,293.005,981.73,293.124,982.052Z" transform="translate(-218.706 -817.967)" fill="#1d1d1b"/>
    <g id="Group_8519" data-name="Group 8519" transform="translate(53.947 84.738)">
      <path id="Path_11788" data-name="Path 11788" d="M213.938,425.85a22.047,22.047,0,0,1-25.951,0s-1.188,4.071-.543,12.644c0,0,3.8-2.351,13.44,2.731h.156c9.632-5.082,13.44-2.731,13.44-2.731C215.122,429.921,213.938,425.85,213.938,425.85Z" transform="translate(-186.971 -425.567)" fill="#353642"/>
      <path id="Path_11789" data-name="Path 11789" d="M199.332,439.792h-.156a.283.283,0,0,1-.132-.033c-9.331-4.922-13.123-2.762-13.16-2.74a.284.284,0,0,1-.43-.221,54.437,54.437,0,0,1,.03-9.587,19.659,19.659,0,0,1,.523-3.157.283.283,0,0,1,.438-.15,21.764,21.764,0,0,0,25.619,0,.283.283,0,0,1,.438.151,19.76,19.76,0,0,1,.522,3.157,54.677,54.677,0,0,1,.031,9.587.283.283,0,0,1-.431.22c-.036-.022-3.831-2.182-13.159,2.741A.283.283,0,0,1,199.332,439.792Zm-.086-.567h.016c8.01-4.211,12.04-3.342,13.257-2.876a43.164,43.164,0,0,0-.469-11.753,22.269,22.269,0,0,1-25.592,0,42.992,42.992,0,0,0-.469,11.753C187.205,435.883,191.233,435.014,199.246,439.225Z" transform="translate(-185.262 -423.85)" fill="#1d1d1b"/>
    </g>
    <g id="Group_8520" data-name="Group 8520" transform="translate(56.428 61.34)">
      <path id="Path_11790" data-name="Path 11790" d="M215,264.06a5.108,5.108,0,1,1-8.924-3.39" transform="translate(-204.497 -260.387)" fill="#353642"/>
      <path id="Path_11791" data-name="Path 11791" d="M208.171,267.74a5.391,5.391,0,0,1-4.028-8.975.283.283,0,0,1,.423.377,4.825,4.825,0,0,0,3.6,8.032h.005a4.83,4.83,0,0,0,4.819-4.83.283.283,0,0,1,.283-.284h0a.283.283,0,0,1,.283.283,5.4,5.4,0,0,1-5.385,5.4Z" transform="translate(-202.78 -258.67)" fill="#1d1d1b"/>
    </g>
    <g id="Group_8521" data-name="Group 8521" transform="translate(69.273 61.34)">
      <path id="Path_11792" data-name="Path 11792" d="M295.46,264.06a5.108,5.108,0,1,0,8.924-3.39" transform="translate(-295.177 -260.387)" fill="#353642"/>
      <path id="Path_11793" data-name="Path 11793" d="M298.851,267.74h-.006a5.391,5.391,0,0,1-5.385-5.4.283.283,0,0,1,.283-.283h0a.284.284,0,0,1,.283.284,4.825,4.825,0,0,0,4.819,4.83h.006a4.825,4.825,0,0,0,3.6-8.032.283.283,0,0,1,.423-.377,5.391,5.391,0,0,1-4.028,8.975Z" transform="translate(-293.46 -258.67)" fill="#1d1d1b"/>
    </g>
    <path id="Path_11794" data-name="Path 11794" d="M196.8,34.734a3.028,3.028,0,0,0-2.592,1.327,8.021,8.021,0,0,0-1.17,2.789,13.9,13.9,0,0,0-.874,5.461c.187,2.07,1.653,5.023,3.4,6.149-3.282.149-7.051.115-10.341.263a46.061,46.061,0,0,1-.761-7.056,15.49,15.49,0,0,1,1.4-6.9,11.636,11.636,0,0,1,5.949-5.549,6.22,6.22,0,0,1,3.32-.52,3.237,3.237,0,0,1,2.561,1.983,2.972,2.972,0,0,1,2.778-1.531,7.125,7.125,0,0,1,4.852,1.992,12.735,12.735,0,0,1,2.958,4.441c1.587,3.683,1.983,9.349,1.368,13.305-2.935-.425-6.5-.1-9.467-.166a24.39,24.39,0,0,0,3.428-7.7,7.777,7.777,0,0,0-1.187-5.983,5.534,5.534,0,0,0-5.492-2.227" transform="translate(-130.626 -1.602)" fill="#608cff"/>
    <path id="Path_11795" data-name="Path 11795" d="M195.155,32.866A3.49,3.49,0,0,0,192,34.835a8.969,8.969,0,0,0-.754,1.932c-.2.7-.4,1.394-.586,2.094a10.6,10.6,0,0,0-.394,4.02,9.746,9.746,0,0,0,1.071,3.274,7.625,7.625,0,0,0,2.441,2.934l.133-.494c-2.691.12-5.393.12-8.088.187q-1.123.027-2.247.075l.256.2c-.645-4.026-1.306-8.264,0-12.233a11.349,11.349,0,0,1,6.941-7.149,5.057,5.057,0,0,1,3.14-.193,2.863,2.863,0,0,1,1.873,1.681c.065.188.388.293.484.064a2.36,2.36,0,0,1,1.737-1.3,5.082,5.082,0,0,1,2.577.142,8.271,8.271,0,0,1,4.335,3.325,19.626,19.626,0,0,1,3.033,10.084,26.582,26.582,0,0,1-.207,5.744l.327-.186a47.159,47.159,0,0,0-7.485-.177c-.684.011-1.368.017-2.053,0l.229.4a17.124,17.124,0,0,0,1.823-3.2,24.465,24.465,0,0,0,1.445-3.769c.785-2.833.254-6.255-2.163-8.154a5.629,5.629,0,0,0-4.655-1.171c-.334.075-.193.586.142.513a5.027,5.027,0,0,1,3.914.87,6.085,6.085,0,0,1,2.342,3.519,8.279,8.279,0,0,1-.043,4.108,22.323,22.323,0,0,1-1.3,3.513,17.79,17.79,0,0,1-1.965,3.509c-.129.169.048.4.229.4,2.466.054,4.934-.135,7.4-.021.667.031,1.334.084,2,.178.129.018.3-.03.327-.186a27.028,27.028,0,0,0,.254-5.371,27.814,27.814,0,0,0-.795-5.6c-.912-3.57-2.975-7.444-6.658-8.733a5.847,5.847,0,0,0-3.094-.269,2.907,2.907,0,0,0-2.15,1.558l.484.064a3.274,3.274,0,0,0-1.7-1.833,4.606,4.606,0,0,0-2.783-.329,9.116,9.116,0,0,0-2.782,1,11.958,11.958,0,0,0-2.172,1.487,11.8,11.8,0,0,0-3.169,4.326,15.768,15.768,0,0,0-1.152,6.019,44,44,0,0,0,.768,7.508.266.266,0,0,0,.256.194c2.691-.12,5.393-.119,8.088-.186.749-.02,1.5-.043,2.247-.076a.268.268,0,0,0,.142-.494,6.708,6.708,0,0,1-2.034-2.349,9.876,9.876,0,0,1-1.157-3.05,8.82,8.82,0,0,1,.167-3.631c.152-.647.341-1.286.521-1.925a17.466,17.466,0,0,1,.6-1.926c.5-1.224,1.548-2.473,3.006-2.353.341.028.339-.5,0-.531Z" transform="translate(-128.984)" fill="#1d1d1b"/>
  </g>
</svg>
