<svg xmlns="http://www.w3.org/2000/svg" width="72" height="90" viewBox="0 0 72 90">
  <g id="Group_8899" data-name="Group 8899" transform="translate(0.483)">
    <rect id="Rectangle_6134" data-name="Rectangle 6134" width="72" height="90" transform="translate(-0.483)" fill="#fff"/>
    <g id="health_gym_treadmill_running_run_sport" data-name="health, gym, treadmill, running, run, sport" transform="translate(1 4)">
      <path id="Path_12905" data-name="Path 12905" d="M530.623,221.7a2.83,2.83,0,0,0,2.076.83c1.867.194,4.819.66,6.692.764.144.008-.13-.062,0,0,.347.167.577,0,.35.312-.843,1.148-.8,2.948-1.813,6.114a3.466,3.466,0,0,1-.808,1.415c-.267.268-.6.46-.876.72a1.181,1.181,0,0,0-.436,1,.609.609,0,0,0,.837.472l-.034.712a2.426,2.426,0,0,0,.116,1.115.842.842,0,0,0,.9.532c.368-.092.539-.66.217-.865.215.457.557.989,1.06.937a.644.644,0,0,0,.355-1.055.9.9,0,0,0,.943.777,1.183,1.183,0,0,0,1-.8.679.679,0,0,0-.046-.646c-.141-.175-.472-.2-.566,0a1.643,1.643,0,0,0,.316-1.781,1.616,1.616,0,0,1-.164-.413,1.121,1.121,0,0,1,.431-.859,13.716,13.716,0,0,0,3.593-7.749,4.8,4.8,0,0,0,0-1.186,4.379,4.379,0,0,0-2.089-2.942c-1.051-.664-1.986-.572-3.213-.787a24.228,24.228,0,0,0-5.12-.341,5.468,5.468,0,0,0-3.006.781,2.167,2.167,0,0,0-.79,2.736" transform="translate(-501.184 -199.622)" fill="#fff"/>
      <path id="Path_12906" data-name="Path 12906" d="M528.289,219.178a2.857,2.857,0,0,0,2.054.959c.816.109,1.628.238,2.441.372.937.154,1.874.306,2.814.432q.551.075,1.1.135c.254.026.719.163.95.022.181-.11.211-.377.25-.566a1.288,1.288,0,0,0,.077-.377c-.108-.37-.427.341-.478.425a7.033,7.033,0,0,0-.781,1.517c-.532,1.676-.71,3.448-1.314,5.108a3.251,3.251,0,0,1-1.138,1.531,2.277,2.277,0,0,0-.893,1.051.9.9,0,0,0,1.183,1.175l-.392-.225c-.045.871-.258,2.384.927,2.619.716.142,1.321-.8.713-1.308a.26.26,0,0,0-.407.314c.274.56.842,1.343,1.569.987a.918.918,0,0,0,.254-1.42c-.189-.217-.472.023-.436.254a1.226,1.226,0,0,0,2.223.4,1.09,1.09,0,0,0,.111-1.321.625.625,0,0,0-.983.057c-.181.236.215.54.412.319a1.969,1.969,0,0,0,.521-1.166,1.919,1.919,0,0,0-.047-.613c-.084-.339-.354-.648-.13-.991.3-.453.745-.833,1.078-1.263a14.082,14.082,0,0,0,.964-1.415,14.374,14.374,0,0,0,1.366-3.067,9.753,9.753,0,0,0,.536-3.323,4.645,4.645,0,0,0-3.793-4.088c-1.132-.2-2.3-.354-3.444-.472a22.418,22.418,0,0,0-3.93-.09,4.449,4.449,0,0,0-3.128,1.191,2.322,2.322,0,0,0-.409,2.682.225.225,0,0,0,.388-.226,1.976,1.976,0,0,1,.849-2.481,5.541,5.541,0,0,1,2.84-.66,33.887,33.887,0,0,1,6.555.554,4.1,4.1,0,0,1,3.537,3.935,12.253,12.253,0,0,1-1.83,5.781,13.48,13.48,0,0,1-.867,1.292c-.33.435-.73.811-1.062,1.242a1.052,1.052,0,0,0-.219,1.076,1.511,1.511,0,0,1-.147,1.733l.412.318a.349.349,0,0,1,.11.5l-.066.119a.882.882,0,0,1-.558.4.647.647,0,0,1-.788-.566l-.436.253a.359.359,0,0,1-.414.566c-.291-.121-.461-.5-.592-.761l-.407.314c.3.248-.118.5-.377.389a.81.81,0,0,1-.4-.613,6.189,6.189,0,0,1,.025-1.453.264.264,0,0,0-.393-.225c-.466.213-.463-.472-.365-.679a1.9,1.9,0,0,1,.6-.64,4.081,4.081,0,0,0,.884-.849,8.158,8.158,0,0,0,1-2.713,20.506,20.506,0,0,1,1.057-4.024c.233-.472.789-.955.741-1.518-.041-.472-.566-.592-.729-.139a5.906,5.906,0,0,1-.149.684s.114.034-.058-.031a1.091,1.091,0,0,0-.224-.018q-.3-.026-.6-.061c-.849-.094-1.7-.23-2.542-.351-.879-.126-1.758-.263-2.642-.363-.931-.106-2.1-.034-2.779-.788-.094-.107-.291.038-.2.157Z" transform="translate(-498.961 -197.033)"/>
      <path id="Path_12907" data-name="Path 12907" d="M344.945,468a79.155,79.155,0,0,0-16.576,29.957,2.237,2.237,0,0,0-.024,1.729,2.278,2.278,0,0,0,1.144.818,3.919,3.919,0,0,0,3.153.4A3.864,3.864,0,0,0,334,499.54l6.1-8.667a35.4,35.4,0,0,0,4.274-7.228,16.6,16.6,0,0,1,1.1-2.58c1.279-2.114,3.83-3.227,5.094-5.351a10.742,10.742,0,0,0,1.118-5.008" transform="translate(-318.111 -426.076)" fill="#fff"/>
      <path id="Path_12908" data-name="Path 12908" d="M612.93,452.421c1.181,1.4,2.017,3.06,3.119,4.528a7.259,7.259,0,0,0,4.4,3.083,6.337,6.337,0,0,0,4.461-1.192c2.107-1.434,3.684-3.6,5.288-5.545a55.123,55.123,0,0,0,4.811-6.642,6.523,6.523,0,0,0,.858-1.892,2.206,2.206,0,0,0-1.234-2.67c-1.415-.566-2.945.391-4.166,1.3l-4.057,3.019a23.567,23.567,0,0,0-4.9,4.417,15.237,15.237,0,0,1-1.39-4.332" transform="translate(-576.001 -402.457)" fill="#fff"/>
      <path id="Path_12909" data-name="Path 12909" d="M341.809,466.288a77.076,77.076,0,0,0-15.583,26.3c-.425,1.217-.827,2.443-1.182,3.679a2.987,2.987,0,0,0-.136,1.629,1.858,1.858,0,0,0,1.007,1.09,4.984,4.984,0,0,0,3.491.728c1.176-.355,1.823-1.6,2.479-2.547,1.7-2.44,3.425-4.866,5.139-7.3a41.019,41.019,0,0,0,4.335-7.05,15.513,15.513,0,0,1,1.887-3.942,24.547,24.547,0,0,1,2.8-2.562,8.063,8.063,0,0,0,2.264-2.989,11.5,11.5,0,0,0,.678-4.23c0-.407-.578-.389-.619,0a17.062,17.062,0,0,1-.6,3.751,6.876,6.876,0,0,1-1.864,2.736c-.784.745-1.65,1.4-2.422,2.159a7.9,7.9,0,0,0-1.806,2.635c-.5,1.188-.907,2.39-1.509,3.532a34.529,34.529,0,0,1-2.013,3.3c-1.527,2.258-3.127,4.471-4.7,6.7q-1.2,1.711-2.413,3.419a7.2,7.2,0,0,1-1.148,1.427,2.186,2.186,0,0,1-2.008.327,7.712,7.712,0,0,1-1.659-.638,1.32,1.32,0,0,1-.66-1.72c.3-1.186.712-2.359,1.108-3.512a79.772,79.772,0,0,1,5.967-13.288,83.294,83.294,0,0,1,9.392-13.413c.136-.158-.088-.387-.23-.23Z" transform="translate(-315.091 -424.477)"/>
      <path id="Path_12910" data-name="Path 12910" d="M611.576,449.958c2.02,2.662,3.4,6.509,6.863,7.633,3.552,1.157,6.684-1.782,8.785-4.258a67.649,67.649,0,0,0,6.876-9.2c.717-1.215,1.361-2.83.383-4.1-1.072-1.39-2.949-.956-4.254-.189a31.436,31.436,0,0,0-2.8,2l-2.8,2.085a22.756,22.756,0,0,0-4.606,4.218h.5a18.367,18.367,0,0,1-1.381-4.257c-.062-.292-.566-.233-.53.072a14.091,14.091,0,0,0,1.409,4.479.3.3,0,0,0,.5,0,19.682,19.682,0,0,1,3.793-3.571c1.472-1.123,2.967-2.216,4.452-3.322,1.226-.912,3.028-2.478,4.663-1.663s.864,2.787.175,3.953a68.457,68.457,0,0,1-6.226,8.42c-1.942,2.367-4.668,5.487-8.1,4.982-3.834-.566-5.22-4.928-7.5-7.444-.094-.107-.292.039-.2.156Z" transform="translate(-574.759 -399.929)"/>
      <path id="Path_12911" data-name="Path 12911" d="M535.84,348.7a42.431,42.431,0,0,0,6.36,13.163,1.986,1.986,0,0,0,.735.71,1.717,1.717,0,0,0,.827.1,8.21,8.21,0,0,0,5.1-2.736c1.258-1.3,2.993-3.324,2.542-5.246a27.924,27.924,0,0,0-4.037-9.224,14.579,14.579,0,0,0-5.4-5.121" transform="translate(-506.184 -310.468)" fill="#fff"/>
      <path id="Path_12912" data-name="Path 12912" d="M534.343,345.766a40.285,40.285,0,0,0,3.691,9.16,37.383,37.383,0,0,0,2.657,4.224,1.813,1.813,0,0,0,1.709.835,6.287,6.287,0,0,0,2.055-.5,10.527,10.527,0,0,0,3.53-2.6,9.136,9.136,0,0,0,2.288-3.476c.426-1.438-.189-2.974-.65-4.333a28.5,28.5,0,0,0-1.957-4.481,24.222,24.222,0,0,0-3.019-4.419,11.131,11.131,0,0,0-3.962-3.094c-.317-.129-.5.373-.227.54a15.349,15.349,0,0,1,3.316,2.558,21.163,21.163,0,0,1,2.587,3.447,27.479,27.479,0,0,1,2.069,4.064,20.712,20.712,0,0,1,1.339,4.239c.23,1.359-.649,2.686-1.464,3.687a12.7,12.7,0,0,1-2.931,2.736,7.1,7.1,0,0,1-1.927.88c-.771.212-1.669.394-2.237-.3a28.915,28.915,0,0,1-2.514-3.818,45.362,45.362,0,0,1-4.084-9.428.14.14,0,0,0-.27.075Z" transform="translate(-504.822 -307.495)"/>
      <path id="Path_12913" data-name="Path 12913" d="M466.053,350.632c.755,1.109-.109,2.573-.949,3.623l-3.226,4.035c-1.3,1.623-1.718,3.084-.177,4.717a17.767,17.767,0,0,0,4.606,3.5c1.345.716,4.028,2.225,5.566,1.4.786-.425,1.293-1.539,1.781-2.248,1.428-2.075,2.813-4.192,4.091-6.365a13.046,13.046,0,0,0,1.5-3.265,8.143,8.143,0,0,0-.791-5.826,10.886,10.886,0,0,0-4.225-4.2" transform="translate(-438.144 -315.585)" fill="#fff"/>
      <path id="Path_12914" data-name="Path 12914" d="M462.992,393.97c.732,1.356-.627,2.865-1.426,3.85-1,1.233-2.033,2.447-3,3.708a3.945,3.945,0,0,0-1.014,3.3,6.669,6.669,0,0,0,2.453,3.049,19.336,19.336,0,0,0,3.375,2.259,16.688,16.688,0,0,0,3,1.343,3.372,3.372,0,0,0,2.925-.17,4.3,4.3,0,0,0,1.062-1.231c.358-.559.71-1.118,1.084-1.668,1-1.465,1.969-2.948,2.9-4.459a19.084,19.084,0,0,0,2.294-4.572.343.343,0,0,0-.66-.183,15.209,15.209,0,0,1-1.91,3.967c-.775,1.287-1.583,2.547-2.415,3.8-.4.6-.81,1.191-1.212,1.792-.3.442-.546.913-.858,1.344a2.14,2.14,0,0,1-1.235.943,3.389,3.389,0,0,1-1.612-.125,14.485,14.485,0,0,1-2.943-1.283,19.152,19.152,0,0,1-3.152-2.052c-.958-.784-2.32-1.817-2.523-3.118-.208-1.327.869-2.462,1.621-3.417,1.009-1.28,2.1-2.528,3.026-3.868.674-.969,1.253-2.288.482-3.364a.149.149,0,0,0-.253.149Z" transform="translate(-435.207 -358.847)"/>
      <path id="Path_12915" data-name="Path 12915" d="M485.677,203.662a8.737,8.737,0,0,0-.533-2.342c-.1-.247-.5-.161-.417.115.221.759.492,1.491.66,2.264.034.16.312.128.292-.04Z" transform="translate(-459.883 -184.421)"/>
      <path id="Path_12916" data-name="Path 12916" d="M467.573,204.39a18.991,18.991,0,0,0-3.527,1.216c-.126.058-.264.132-.3.265a.453.453,0,0,0,.06.3,5.1,5.1,0,0,0,.534.887c-.179-.237-1.1,1.246-1.188,1.4-1.2,2.133-1.72,5.21-.621,7.487.58,1.2,1.725,2.082,2.209,3.325.451,1.159.314,2.593,1.178,3.491a2.725,2.725,0,0,0,2.029.739,7.74,7.74,0,0,0,2.17-.457c2.83-.909,5.74-2.085,7.594-4.394a2.158,2.158,0,0,0,.588-1.333,2.572,2.572,0,0,0-1.171-1.713,8.351,8.351,0,0,1-2.264-2.579c-.609-1.237-.639-2.682-1.152-3.962a5.614,5.614,0,0,0-2.093-2.567" transform="translate(-439.247 -187.334)" fill="#608cff"/>
      <path id="Path_12917" data-name="Path 12917" d="M464.861,202.67a17.841,17.841,0,0,0-3.291,1.007c-.292.125-.686.243-.755.6-.09.454.377,1.025.622,1.359l.435-.335c-.576-.5-1.386,1.044-1.6,1.415A9.719,9.719,0,0,0,459,211.108a6.674,6.674,0,0,0,1.309,4.475,11.733,11.733,0,0,1,1.415,1.992,13.243,13.243,0,0,1,.6,2.387,2.936,2.936,0,0,0,1.067,1.714,3.3,3.3,0,0,0,2.231.518,11.608,11.608,0,0,0,2.608-.679c.78-.265,1.553-.555,2.308-.886a13.115,13.115,0,0,0,4-2.588,4.278,4.278,0,0,0,1.321-1.922,2.011,2.011,0,0,0-.719-1.833A19.53,19.53,0,0,1,473,212.162a7.14,7.14,0,0,1-1.116-2.836c-.4-1.829-1.05-3.679-2.79-4.645-.283-.154-.62.24-.355.459a7.354,7.354,0,0,1,1.5,1.563,6.569,6.569,0,0,1,.858,2.153,16.514,16.514,0,0,0,.611,2.315,5.778,5.778,0,0,0,1.155,1.792,20.379,20.379,0,0,0,1.62,1.466c.66.574,1.144,1.241.631,2.1A8.839,8.839,0,0,1,471.8,219.4a22.907,22.907,0,0,1-4.071,1.7c-1.371.452-3.491,1.154-4.494-.358a5.294,5.294,0,0,1-.6-1.958,5.48,5.48,0,0,0-.66-1.875c-.761-1.268-1.859-2.2-2.236-3.679a8.366,8.366,0,0,1,.359-4.825,8.057,8.057,0,0,1,.8-1.65c.131-.2.266-.4.411-.6a2.79,2.79,0,0,1,.232-.283c.018-.019.067-.056.075-.078.078-.189.214.209-.141-.094.221.189.631-.064.434-.336a3.587,3.587,0,0,1-.377-.579c-.087-.189-.193-.342-.023-.5a2.219,2.219,0,0,1,.485-.221c.225-.1.449-.2.675-.292a19.952,19.952,0,0,1,2.277-.771.169.169,0,0,0-.094-.325Z" transform="translate(-436.58 -185.777)"/>
      <path id="Path_12918" data-name="Path 12918" d="M485.6,82.469a1.37,1.37,0,0,1-.581-.887.824.824,0,0,1,.16-.721.389.389,0,0,1,.619.063,1.3,1.3,0,0,1,.057-.7.753.753,0,0,1,1.049-.233,2.4,2.4,0,0,1,.779.943.6.6,0,0,1,.547-.58.884.884,0,0,1,.734.387,2.407,2.407,0,0,1,.359.818.476.476,0,0,1,.707-.144,1.161,1.161,0,0,1,.392.741,3.114,3.114,0,0,1-.008,1.245,1.648,1.648,0,0,1,.508-.283.613.613,0,0,1,.552.083.457.457,0,0,1,.129.547,1.274,1.274,0,0,1,1.529.5c.077.121.128.3.024.4a.556.556,0,0,1,.491.022.962.962,0,0,1,.566.73,1.028,1.028,0,0,1-.436.912,2.042,2.042,0,0,1-.943.329,5.755,5.755,0,0,1-1.429.017" transform="translate(-460.143 -74.563)" fill="#010101"/>
      <path id="Path_12919" data-name="Path 12919" d="M483.588,79.807a1.32,1.32,0,0,1-.423-.592.9.9,0,0,1-.065-.413c.014-.106.189-.552.358-.3.126.189.486.141.463-.125-.037-.445.094-.959.652-.735.363.146.566.559.747.882a.278.278,0,0,0,.512-.139c.071-.613.693-.162.841.074a2.367,2.367,0,0,1,.241.629.3.3,0,0,0,.537.07c.239-.383.516.359.549.53a2.889,2.889,0,0,1-.018,1.08c-.045.24.22.532.463.356a2.535,2.535,0,0,1,.244-.167c.189-.153.341-.1.472.15a.328.328,0,0,0,.4.4.963.963,0,0,1,.666-.009c.082.031.56.313.5.42a.357.357,0,0,0,.4.519c.312-.109.623.248.61.544-.015.341-.348.559-.634.656a6.827,6.827,0,0,1-1.828.132.338.338,0,0,0-.09.66c.965.248,2.59.094,3.113-.891.451-.849-.348-2.143-1.359-1.785l.4.518c.272-.452-.075-.939-.454-1.2a1.6,1.6,0,0,0-1.49-.189l.4.4a.792.792,0,0,0-.407-.985,1.237,1.237,0,0,0-1.256.283l.463.356a2.6,2.6,0,0,0-.371-2.192.8.8,0,0,0-1.276.118l.537.07c-.177-.592-.479-1.269-1.16-1.392a.9.9,0,0,0-1.038.849l.516-.143c-.326-.566-.76-1.216-1.494-1.184s-.943.679-.875,1.314l.462-.125a.652.652,0,0,0-1.171.189,1.438,1.438,0,0,0,.677,1.625c.151.094.335-.133.194-.251Z" transform="translate(-458.014 -72.015)"/>
      <path id="Path_12920" data-name="Path 12920" d="M486.78,108.536c.237-.2.234-.617.511-.755a.73.73,0,0,1,.5.008c2.317.6,4.871,1.428,6.3,3.5a.573.573,0,0,1,.138.4.56.56,0,0,1-.109.227,3.086,3.086,0,0,1-.546.584" transform="translate(-461.752 -99.802)" fill="#608cff"/>
      <path id="Path_12921" data-name="Path 12921" d="M486.4,107.811c.326-.338.292-.8.963-.7a7.76,7.76,0,0,1,1.06.3,15.937,15.937,0,0,1,2.149.782,8.49,8.49,0,0,1,1.923,1.182,6.313,6.313,0,0,1,.784.78c.218.26.532.574.356.97a2.066,2.066,0,0,1-.533.566c-.084.073.039.194.123.122.26-.225.742-.613.673-1.012a2.428,2.428,0,0,0-.682-.975,7.723,7.723,0,0,0-2.308-1.656,16.132,16.132,0,0,0-2.708-.991,2.962,2.962,0,0,0-1.217-.25c-.4.089-.409.566-.644.828C486.3,107.79,486.358,107.851,486.4,107.811Z" transform="translate(-461.339 -99.045)" fill="#a0d195"/>
      <path id="Path_12922" data-name="Path 12922" d="M485.638,106.538c.309-.3.291-.708.861-.623a8.226,8.226,0,0,1,1.057.306,15.613,15.613,0,0,1,2.109.772,8.354,8.354,0,0,1,1.887,1.158,6.247,6.247,0,0,1,.782.782c.164.2.442.464.326.761a1.832,1.832,0,0,1-.506.532c-.252.219.115.583.366.366.3-.263.791-.68.724-1.132a2.488,2.488,0,0,0-.735-1.094,7.9,7.9,0,0,0-2.344-1.677,16.352,16.352,0,0,0-2.749-1,2.807,2.807,0,0,0-1.3-.23c-.45.118-.414.6-.67.9a.134.134,0,0,0,.189.189Z" transform="translate(-460.516 -97.71)"/>
      <path id="Path_12923" data-name="Path 12923" d="M463.888,121.8a7.432,7.432,0,0,0-.948,2.236c-.189.427-.616.589-.819.98-.24.465.217.765.18,1.217-.069.839-.5,1.792-.087,2.607a2.313,2.313,0,0,0,2.076.844.267.267,0,0,0,0-.534,4.942,4.942,0,0,1-1.058-.148.89.89,0,0,1-.683-.948,5.557,5.557,0,0,1,.133-1.255,2.529,2.529,0,0,0,.128-1.038c-.033-.126-.146-.189-.189-.3-.118-.3.14-.428.33-.615a1.934,1.934,0,0,0,.442-.714c.258-.678.189-1.579.681-2.147.109-.127-.074-.313-.189-.189Z" transform="translate(-439.343 -112.494)"/>
      <path id="Path_12924" data-name="Path 12924" d="M482.311,147.841h0l-.03-.013h.008l-.027-.021.009.008-.023-.029a.039.039,0,0,0,0,.008l-.015-.036h0l.04-.149a.2.2,0,0,0-.043.072.069.069,0,0,1,0,.015l.016-.038a.114.114,0,0,1-.015.025l.025-.033-.018.018.034-.026a.094.094,0,0,1-.022.012l.041-.017h0l.189.078v0l.017.041a.049.049,0,0,1,0-.01l.007.045a.018.018,0,0,1,0-.01l-.007.046h0a.171.171,0,0,0,0-.094l-.018-.042a.164.164,0,0,0-.126-.083.168.168,0,0,0-.129.034.163.163,0,0,0-.068.137.245.245,0,0,0,.018.082.214.214,0,0,0,.045.068.166.166,0,0,0,.094.047.157.157,0,0,0,.109-.021.29.29,0,0,0,.1-.121.2.2,0,0,0,0-.189.163.163,0,0,0-.073-.063.172.172,0,0,0-.1-.008.177.177,0,0,0-.112.08.12.12,0,0,0-.006.11.124.124,0,0,0,.079.071Z" transform="translate(-457.558 -135.871)"/>
      <path id="Path_12925" data-name="Path 12925" d="M483.669,137.432a.3.3,0,0,1,.283.055c.166.138.4-.083.242-.242a.494.494,0,0,0-.66-.032c-.108.086.009.251.128.22Z" transform="translate(-458.773 -126.394)"/>
      <path id="Path_12926" data-name="Path 12926" d="M476.679,170.642a.4.4,0,0,0,.368-.075.686.686,0,0,0,.256-.269.188.188,0,0,0-.3-.227c-.065.07-.119.139-.189.2s-.17.107-.208.207a.142.142,0,0,0,.066.161Z" transform="translate(-452.537 -156.204)"/>
      <path id="Path_12927" data-name="Path 12927" d="M474.426,114.153c-.034-.171.1-.338.077-.51a.653.653,0,0,0-.143-.283,3.113,3.113,0,0,1-.572-2.02,12.386,12.386,0,0,1-2.31.686.336.336,0,0,0-.183.075.321.321,0,0,0-.068.171c-.018.094-.217.189-.235.283-.143-.225.142-.239,0-.463-.054-.085-.444.017-.367-.484.015-.094.043-.212.141-.238a.511.511,0,0,1-.082-.771,1.144,1.144,0,0,1,.821-.3,2.136,2.136,0,0,1,2.284,1.038c.4.892-.841-.5,0,0,.815.489,1.716.793,2.567,1.209a6.659,6.659,0,0,1,2.17,1.675,1.131,1.131,0,0,1,.153.215,1.085,1.085,0,0,1,.094.442,1.276,1.276,0,0,1-.057.514.524.524,0,0,1-.369.339.335.335,0,0,1-.392-.254c-.021.441-.331.488-.6.736a1.456,1.456,0,0,0-.2.312c-.456.725-1.61.437-2.148-.03-.15-.129-.552-.514-.206-.66.493-.206,1.415-1.181.609-1.617a.913.913,0,0,0-.771.059.2.2,0,0,1-.189.017c-.054-.034-.024-.147.035-.124" transform="translate(-447.051 -102.112)" fill="#010101"/>
      <path id="Path_12928" data-name="Path 12928" d="M472.4,111.752a2.681,2.681,0,0,0,.136-.554,1.415,1.415,0,0,0-.283-.587,2.994,2.994,0,0,1-.412-1.712.233.233,0,0,0-.293-.225,12.965,12.965,0,0,1-2.058.633,1.134,1.134,0,0,0-.88.691l.429.057c-.07-.17.13-.339-.042-.543-.057-.07-.522-.222-.292-.377a.24.24,0,0,0,0-.408c-.413-.283.273-.594.491-.619a4.222,4.222,0,0,1,.424-.013,2.608,2.608,0,0,1,.958.14,1.432,1.432,0,0,1,.509.329c.14.144.2.434.336.551a.156.156,0,0,0,.225-.213c-.094-.131-.076-.158-.2.009-.181.244-.081.071.029.206a1.239,1.239,0,0,0,.364.207c.245.131.5.252.748.367.527.241,1.066.458,1.581.722a6.573,6.573,0,0,1,1.341.9,4.617,4.617,0,0,1,.593.6.855.855,0,0,1,.216.526v.13c.034.21-.069.343-.308.4-.074-.214-.461-.276-.5,0-.05.369-.432.462-.64.735-.265.349-.414.566-.9.543a1.675,1.675,0,0,1-.978-.377c-.089-.074-.245-.208-.222-.267s.267-.162.32-.2a1.434,1.434,0,0,0,.69-1.331.837.837,0,0,0-.5-.548.948.948,0,0,0-.452-.067,1.375,1.375,0,0,0-.269.056,1.03,1.03,0,0,0-.128.044q-.2.044.068.259l-.189.189.047-.014a.267.267,0,0,0-.142-.515.338.338,0,0,0-.094.611c.293.189,1.219-.427,1.125.248-.1.746-1.523.837-.841,1.683a2.169,2.169,0,0,0,2.07.737c.48-.13.574-.46.873-.79.316-.347.6-.4.667-.926l-.508.069a.646.646,0,0,0,1.208.037,1.613,1.613,0,0,0-.5-1.892,7.169,7.169,0,0,0-2.057-1.454c-.842-.4-1.7-.777-2.536-1.18-.814-.39-.585.837.023.832.5,0,.208-.643.083-.855a1.981,1.981,0,0,0-1.4-.936,3.1,3.1,0,0,0-1.639.082.794.794,0,0,0-.228,1.392v-.408a.671.671,0,0,0-.125.954c.094.1.266.086.35.166-.189-.179-.156.209-.106.331a.238.238,0,0,0,.429.056,2.791,2.791,0,0,1,.258-.342c.162-.164.535-.176.76-.233a13.169,13.169,0,0,0,1.637-.538l-.294-.224a3.429,3.429,0,0,0,.246,1.481,6.57,6.57,0,0,0,.316.592,1.784,1.784,0,0,1,.151.78.164.164,0,0,0,.313,0Z" transform="translate(-444.869 -99.668)"/>
      <path id="Path_12929" data-name="Path 12929" d="M510.223,159.359a.517.517,0,0,1,.221-.162.131.131,0,1,0-.1-.241.77.77,0,0,0-.327.283.122.122,0,0,0,.043.165.124.124,0,0,0,.164-.043Z" transform="translate(-482.781 -146.172)"/>
      <path id="Path_12930" data-name="Path 12930" d="M521.887,173.033a3.52,3.52,0,0,0-1.627,3.525,2.249,2.249,0,0,0,.382,1.073,1.175,1.175,0,0,0,.988.5.8.8,0,0,0,.748-.734,1.93,1.93,0,0,0,.231,1.631,1.994,1.994,0,0,0,1.415.86,1.288,1.288,0,0,0,1.049-.3.752.752,0,0,0,.075-1.011,1.79,1.79,0,0,0,1.166,1.261,1.313,1.313,0,0,0,1.526-.632,1.483,1.483,0,0,0-.086-1.264,4.438,4.438,0,0,0-.807-1.03,1.309,1.309,0,0,0,1.6-.44,1.523,1.523,0,0,0-.189-1.365,2.064,2.064,0,0,0-.566-.72.893.893,0,0,0-.874-.132.856.856,0,0,0,.69-.26.548.548,0,0,0-.043-.611,1.291,1.291,0,0,0-.523-.384,2.843,2.843,0,0,0-1.523-.29,1.752,1.752,0,0,0-1.3.783,1.892,1.892,0,0,0-2.83.241" transform="translate(-492.046 -158.63)" fill="#010101"/>
      <path id="Path_12931" data-name="Path 12931" d="M519.174,169.4a3.7,3.7,0,0,0-1.8,3.825,1.921,1.921,0,0,0,1.2,1.67,1.132,1.132,0,0,0,1.48-.973c.038-.346-.5-.4-.591-.08a2.257,2.257,0,0,0,1.572,2.83,1.721,1.721,0,0,0,1.648-.328,1.088,1.088,0,0,0,.129-1.41c-.208-.277-.725-.134-.606.255a1.914,1.914,0,0,0,2.754,1.307,1.493,1.493,0,0,0,.691-1.472,3.294,3.294,0,0,0-1.08-1.832l-.337.578c.969.3,2.2-.116,2.142-1.3-.05-1.023-1-2.445-2.17-2.048-.377.127-.343.764.094.733.506-.036,1.047-.2,1.125-.775a1.232,1.232,0,0,0-.884-1.21,2.534,2.534,0,0,0-3.262.66l.593-.076a2.221,2.221,0,0,0-3.387.342.331.331,0,0,0,.517.4,1.65,1.65,0,0,1,2.336-.207.384.384,0,0,0,.593-.076,1.534,1.534,0,0,1,1.542-.588,2.712,2.712,0,0,1,.818.258c.08.04.26.109.3.2.132.265-.108.317-.3.333l.1.729c.66-.235,1.189.755,1.251,1.3.086.745-.693.831-1.238.665a.348.348,0,0,0-.336.577c.489.511,1.457,1.629.538,2.232-.755.5-1.546-.175-1.775-.9l-.6.255c.3.392-.061.74-.458.809a1.51,1.51,0,0,1-1.021-.221,1.65,1.65,0,0,1-.718-1.856l-.591-.08c-.042.42-.532.515-.849.357a1.215,1.215,0,0,1-.566-.709,3.427,3.427,0,0,1,1.32-3.849.182.182,0,0,0-.184-.315Z" transform="translate(-489.425 -155.159)"/>
      <path id="Path_12932" data-name="Path 12932" d="M521.512,167.966a5.3,5.3,0,0,1,2.679-1.361c.319-.059.189-.552-.134-.489a4.572,4.572,0,0,0-2.743,1.7c-.089.12.094.244.2.153Z" transform="translate(-493.007 -152.666)" fill="#608cff"/>
      <path id="Path_12933" data-name="Path 12933" d="M515.9,410.678a69.864,69.864,0,0,0,7.123-9.7.2.2,0,0,0-.174-.3l-.277-.459.1-.234c.066-.131.146-.256.22-.382l.426-.732a.231.231,0,0,0-.137-.337c-1.157-.262-1.325-1.588-1.374-2.569a.146.146,0,0,0-.292,0c.017,1.182.154,2.7,1.543,3.01l-.137-.337c-.289.5-.9,1.207-.838,1.824a.671.671,0,0,0,.813.61l-.227-.3a86.267,86.267,0,0,1-6.951,9.73c-.094.121.065.293.174.174Z" transform="translate(-487.94 -360.705)" fill="#608cff"/>
      <path id="Path_12934" data-name="Path 12934" d="M632.075,509.626c.832,1.159,1.783,2.247,2.685,3.354.158.2.439-.085.277-.278-.9-1.084-1.779-2.215-2.747-3.242C632.186,509.349,631.982,509.5,632.075,509.626Z" transform="translate(-593.319 -463.588)" fill="#608cff"/>
      <path id="Path_12935" data-name="Path 12935" d="M328.59,751.94l.675-2.646a.306.306,0,0,1,.087-.172.288.288,0,0,1,.159-.045,3.071,3.071,0,0,1,1.006.138,17.048,17.048,0,0,1,3.742,1.71,6.212,6.212,0,0,1,1.641,1.159.372.372,0,0,1,.108.18.385.385,0,0,1-.114.283c-.314.4-.66.785-1,1.164l-1.525,1.677c-.193.214-1.554,1.53-1.792,1.69" transform="translate(-318.486 -680.634)" fill="#608cff"/>
      <path id="Path_12936" data-name="Path 12936" d="M326.965,749.235c.232-.816.484-1.629.7-2.453.059-.227.017-.189.217-.193a2.708,2.708,0,0,1,.755.156,9.619,9.619,0,0,1,1.2.458c.677.309,1.329.674,1.974,1.046.328.189.66.377.982.577a2.9,2.9,0,0,1,.9.686c.149.094.147.137,0,.117l-.108.133a5.1,5.1,0,0,0-.445.518c-.249.283-.5.558-.755.837-.411.456-.812.926-1.241,1.366a14.4,14.4,0,0,0-1.679,1.67.35.35,0,0,0,.391.508,1.957,1.957,0,0,0,.772-.553q.489-.455.963-.924c.882-.871,1.725-1.822,2.523-2.771.4-.477.71-.908.223-1.434a6.248,6.248,0,0,0-1.683-1.148,15.759,15.759,0,0,0-4.028-1.7c-.5-.106-1.214-.269-1.415.334-.283.849-.406,1.792-.6,2.665a.182.182,0,0,0,.352.094Z" transform="translate(-316.686 -677.877)" fill="#a0d195"/>
      <path id="Path_12937" data-name="Path 12937" d="M326.965,749.235c.232-.816.484-1.629.7-2.453.059-.227.017-.189.217-.193a2.708,2.708,0,0,1,.755.156,9.619,9.619,0,0,1,1.2.458c.677.309,1.329.674,1.974,1.046.328.189.66.377.982.577a2.9,2.9,0,0,1,.9.686c.149.094.147.137,0,.117l-.108.133a5.1,5.1,0,0,0-.445.518c-.249.283-.5.558-.755.837-.411.456-.812.926-1.241,1.366a14.4,14.4,0,0,0-1.679,1.67.35.35,0,0,0,.391.508,1.957,1.957,0,0,0,.772-.553q.489-.455.963-.924c.882-.871,1.725-1.822,2.523-2.771.4-.477.71-.908.223-1.434a6.248,6.248,0,0,0-1.683-1.148,15.759,15.759,0,0,0-4.028-1.7c-.5-.106-1.214-.269-1.415.334-.283.849-.406,1.792-.6,2.665a.182.182,0,0,0,.352.094Z" transform="translate(-316.686 -677.877)"/>
      <path id="Path_12938" data-name="Path 12938" d="M235.739,768.417a17.1,17.1,0,0,0-.515-2.489,1.783,1.783,0,0,0-1.981-1.218.755.755,0,0,0-.418.293,1.026,1.026,0,0,0-.05.755,7.271,7.271,0,0,0,.72,1.953,3.84,3.84,0,0,0-2.43.424,21.528,21.528,0,0,1-4,.849,4.617,4.617,0,0,0-1.792.56,1.631,1.631,0,0,0-.809,1.58c.151.808,1.038,1.226,1.809,1.52l5.148,1.948c.619.234,1.392.443,1.881,0a.624.624,0,0,0,.1.858,1.827,1.827,0,0,0,.885.361l1.854.4a1,1,0,0,0,.536.015c.267-.094.4-.39.494-.654l2.409-6.45a4.49,4.49,0,0,0-3.791-.373" transform="translate(-224.167 -694.745)" fill="#010101"/>
      <path id="Path_12939" data-name="Path 12939" d="M233.188,766.058c-.264-1.388-.189-3.709-2.082-3.956a1.062,1.062,0,0,0-1.308.943,5.52,5.52,0,0,0,.792,2.47l.29-.377a3.377,3.377,0,0,0-2.1.216,15.152,15.152,0,0,1-2.372.66c-.8.15-1.618.252-2.423.4a3.7,3.7,0,0,0-1.85.766,1.751,1.751,0,0,0,.16,2.846,7.6,7.6,0,0,0,1.727.792l2.4.907c.865.327,1.729.712,2.616.975a1.865,1.865,0,0,0,1.792-.213l-.479-.37a.911.911,0,0,0,.023,1.074,1.766,1.766,0,0,0,1.148.589q.885.194,1.771.377a1.1,1.1,0,0,0,1.147-.213,3.912,3.912,0,0,0,.594-1.312l.718-1.915,1.433-3.833a.3.3,0,0,0-.139-.34,4.893,4.893,0,0,0-4.026-.417c-.383.129-.217.741.167.608a4.245,4.245,0,0,1,3.556.329l-.138-.34q-.993,2.656-1.981,5.312a11.214,11.214,0,0,1-.488,1.29c-.252.479-.755.239-1.188.146-.366-.078-2.6-.347-2.067-1.049.226-.3-.233-.566-.479-.369-.573.451-1.524-.058-2.1-.276l-2.4-.91c-.781-.3-1.57-.579-2.346-.89-.542-.217-1.269-.523-1.447-1.141-.255-.885.712-1.484,1.424-1.683a21.789,21.789,0,0,1,2.34-.411,14.726,14.726,0,0,0,2.414-.59,4.225,4.225,0,0,1,2.453-.519.259.259,0,0,0,.29-.377,7.145,7.145,0,0,1-.66-1.734c-.094-.4-.111-.837.385-.93a1.186,1.186,0,0,1,.887.246c1.05.741.979,2.17,1.282,3.292a.138.138,0,0,0,.265-.073Z" transform="translate(-221.485 -692.421)"/>
      <path id="Path_12940" data-name="Path 12940" d="M233.188,766.058c-.264-1.388-.189-3.709-2.082-3.956a1.062,1.062,0,0,0-1.308.943,5.52,5.52,0,0,0,.792,2.47l.29-.377a3.377,3.377,0,0,0-2.1.216,15.152,15.152,0,0,1-2.372.66c-.8.15-1.618.252-2.423.4a3.7,3.7,0,0,0-1.85.766,1.751,1.751,0,0,0,.16,2.846,7.6,7.6,0,0,0,1.727.792l2.4.907c.865.327,1.729.712,2.616.975a1.865,1.865,0,0,0,1.792-.213l-.479-.37a.911.911,0,0,0,.023,1.074,1.766,1.766,0,0,0,1.148.589q.885.194,1.771.377a1.1,1.1,0,0,0,1.147-.213,3.912,3.912,0,0,0,.594-1.312l.718-1.915,1.433-3.833a.3.3,0,0,0-.139-.34,4.893,4.893,0,0,0-4.026-.417c-.383.129-.217.741.167.608a4.245,4.245,0,0,1,3.556.329l-.138-.34q-.993,2.656-1.981,5.312a11.214,11.214,0,0,1-.488,1.29c-.252.479-.755.239-1.188.146-.366-.078-2.6-.347-2.067-1.049.226-.3-.233-.566-.479-.369-.573.451-1.524-.058-2.1-.276l-2.4-.91c-.781-.3-1.57-.579-2.346-.89-.542-.217-1.269-.523-1.447-1.141-.255-.885.712-1.484,1.424-1.683a21.789,21.789,0,0,1,2.34-.411,14.726,14.726,0,0,0,2.414-.59,4.225,4.225,0,0,1,2.453-.519.259.259,0,0,0,.29-.377,7.145,7.145,0,0,1-.66-1.734c-.094-.4-.111-.837.385-.93a1.186,1.186,0,0,1,.887.246c1.05.741.979,2.17,1.282,3.292a.138.138,0,0,0,.265-.073Z" transform="translate(-221.485 -692.421)"/>
      <path id="Path_12941" data-name="Path 12941" d="M235.3,829.8q2.069.566,4.081,1.313c.66.248,1.321.52,1.981.768a1.9,1.9,0,0,0,1.548.054l-.32-.13a1.541,1.541,0,0,0,1.39,1,10.612,10.612,0,0,1,1.3.215,13.469,13.469,0,0,1,1.339.472c.223.086.319-.273.094-.357a10.721,10.721,0,0,0-1.941-.609c-.62-.111-1.557-.077-1.765-.827a.218.218,0,0,0-.267-.152c-.625.263-1.321-.147-1.9-.377s-1.171-.435-1.765-.627c-1.218-.394-2.453-.723-3.7-1a.138.138,0,0,0-.074.265Z" transform="translate(-233.907 -753.503)" fill="#608cff"/>
      <path id="Path_12942" data-name="Path 12942" d="M277.865,799.537c0-.146-.214-1.011.087-.924.183.053.36-.208.2-.338a.451.451,0,0,0-.7.216,1.633,1.633,0,0,0,.172,1.111.133.133,0,0,0,.245-.066Z" transform="translate(-272.128 -725.109)" fill="#608cff"/>
      <path id="Path_12943" data-name="Path 12943" d="M287.661,795.636c-.037-.189-.079-.377-.1-.566-.006-.046-.041-.669.062-.606.218.136.389-.189.2-.334-.283-.213-.6.041-.66.333a2.03,2.03,0,0,0,.278,1.269.125.125,0,0,0,.225-.094Z" transform="translate(-280.94 -721.367)" fill="#608cff"/>
      <path id="Path_12944" data-name="Path 12944" d="M297.387,792.049a1.19,1.19,0,0,1-.036-.6,1.377,1.377,0,0,1,.294-.5c.121-.161-.107-.356-.258-.258a1.087,1.087,0,0,0-.247,1.467c.085.115.291.053.246-.1Z" transform="translate(-289.839 -718.295)" fill="#608cff"/>
      <path id="Path_12945" data-name="Path 12945" d="M308.891,793.625a1.316,1.316,0,0,1,.059-.792c.063-.178-.227-.3-.308-.13a1.335,1.335,0,0,0-.043,1,.152.152,0,0,0,.292-.08Z" transform="translate(-300.31 -720.071)" fill="#608cff"/>
      <path id="Path_12946" data-name="Path 12946" d="M791.7,434.671l-1.487,2.141a.29.29,0,0,1-.136.125.271.271,0,0,1-.157-.012,2.911,2.911,0,0,1-.849-.455,16.1,16.1,0,0,1-2.774-2.766,5.967,5.967,0,0,1-1.078-1.577.362.362,0,0,1-.035-.2.37.37,0,0,1,.194-.211c.416-.258.849-.483,1.286-.709l1.927-1c.244-.127,1.9-.855,2.17-.918" transform="translate(-732 -390.836)" fill="#608cff"/>
      <path id="Path_12947" data-name="Path 12947" d="M787.646,431.26l-.775,1.052-.333.451c-.094.123-.208.377-.332.451-.37.207-.831-.269-1.08-.472a10.017,10.017,0,0,1-.779-.717c-.479-.485-.923-1.007-1.357-1.532-.23-.278-.465-.554-.683-.842-.121-.159-.583-.68-.566-.9-.079.025-.074.016.015-.028.069-.043.14-.085.21-.125.141-.082.283-.161.427-.24.324-.175.651-.343.977-.514.546-.283,1.087-.587,1.642-.854a14.375,14.375,0,0,0,2.021-.912.35.35,0,0,0-.175-.645,1.929,1.929,0,0,0-.908.265c-.4.168-.8.34-1.193.52a36.017,36.017,0,0,0-3.28,1.706c-.453.265-.741.56-.519,1.1a6.059,6.059,0,0,0,1.159,1.645,15.567,15.567,0,0,0,2.9,2.736c.408.274,1.087.739,1.487.256a23.818,23.818,0,0,0,1.451-2.217c.131-.2-.178-.369-.315-.189Z" transform="translate(-728.107 -387.517)" fill="#a0d195"/>
      <path id="Path_12948" data-name="Path 12948" d="M787.646,431.26l-.775,1.052-.333.451c-.094.123-.208.377-.332.451-.37.207-.831-.269-1.08-.472a10.017,10.017,0,0,1-.779-.717c-.479-.485-.923-1.007-1.357-1.532-.23-.278-.465-.554-.683-.842-.121-.159-.583-.68-.566-.9-.079.025-.074.016.015-.028.069-.043.14-.085.21-.125.141-.082.283-.161.427-.24.324-.175.651-.343.977-.514.546-.283,1.087-.587,1.642-.854a14.375,14.375,0,0,0,2.021-.912.35.35,0,0,0-.175-.645,1.929,1.929,0,0,0-.908.265c-.4.168-.8.34-1.193.52a36.017,36.017,0,0,0-3.28,1.706c-.453.265-.741.56-.519,1.1a6.059,6.059,0,0,0,1.159,1.645,15.567,15.567,0,0,0,2.9,2.736c.408.274,1.087.739,1.487.256a23.818,23.818,0,0,0,1.451-2.217c.131-.2-.178-.369-.315-.189Z" transform="translate(-728.107 -387.517)"/>
      <path id="Path_12949" data-name="Path 12949" d="M818.031,390.764a17.01,17.01,0,0,0-.377,2.394,1.689,1.689,0,0,0,1.363,1.742.718.718,0,0,0,.472-.125.966.966,0,0,0,.3-.655,6.878,6.878,0,0,0,.01-1.981,3.648,3.648,0,0,0,2.313.423,20.728,20.728,0,0,1,3.855.558,4.461,4.461,0,0,0,1.792.094,1.555,1.555,0,0,0,1.25-1.144c.136-.773-.515-1.439-1.109-1.956l-3.948-3.444c-.472-.413-1.1-.855-1.68-.62a.59.59,0,0,0,.2-.8,1.742,1.742,0,0,0-.67-.615l-1.524-.968a.9.9,0,0,0-.472-.189.963.963,0,0,0-.66.421l-4.308,4.962a4.269,4.269,0,0,0,3.263,1.585" transform="translate(-758.854 -349.529)" fill="#010101"/>
      <path id="Path_12950" data-name="Path 12950" d="M815.065,387.913c-.231,1.321-1.057,3.283.448,4.208a1.1,1.1,0,0,0,1.484-.168,2.139,2.139,0,0,0,.255-1.007,7.357,7.357,0,0,0-.028-1.624l-.388.223a2.835,2.835,0,0,0,1.578.481,22.783,22.783,0,0,1,2.282.135c.763.113,1.509.283,2.264.428a4.591,4.591,0,0,0,2.17.074,1.7,1.7,0,0,0,1.167-2.408,4.746,4.746,0,0,0-1.226-1.365l-1.9-1.657c-.666-.579-1.321-1.183-2-1.738a1.943,1.943,0,0,0-1.809-.554l.235.558c.762-.493.339-1.375-.255-1.792-.464-.327-.962-.614-1.442-.919-.369-.234-.742-.524-1.2-.377-.442.144-.742.622-1.031.955l-1.29,1.491-2.585,2.977a.309.309,0,0,0,0,.425,4.664,4.664,0,0,0,3.475,1.687.315.315,0,0,0,0-.63,4.026,4.026,0,0,1-3.05-1.482v.425q1.752-2.022,3.506-4.042c.283-.325.555-.66.849-.973a.507.507,0,0,1,.615-.2,2.722,2.722,0,0,1,.492.31c.226.143,2.24,1.219,1.614,1.619-.283.18-.108.665.235.558.765-.238,1.509.65,2.016,1.1l1.9,1.659c.576.5,1.177.984,1.725,1.516.449.439,1,1.122.554,1.753a2.1,2.1,0,0,1-2.139.514c-.762-.125-1.509-.315-2.274-.435a13.188,13.188,0,0,0-2.162-.178,3.256,3.256,0,0,1-2.041-.354.258.258,0,0,0-.387.222,6.062,6.062,0,0,1-.015,2.039c-.169.764-.958.454-1.289-.008-.725-1.009-.175-2.291-.071-3.4.015-.153-.242-.189-.27-.036Z" transform="translate(-756.021 -346.714)"/>
      <path id="Path_12951" data-name="Path 12951" d="M815.065,387.913c-.231,1.321-1.057,3.283.448,4.208a1.1,1.1,0,0,0,1.484-.168,2.139,2.139,0,0,0,.255-1.007,7.357,7.357,0,0,0-.028-1.624l-.388.223a2.835,2.835,0,0,0,1.578.481,22.783,22.783,0,0,1,2.282.135c.763.113,1.509.283,2.264.428a4.591,4.591,0,0,0,2.17.074,1.7,1.7,0,0,0,1.167-2.408,4.746,4.746,0,0,0-1.226-1.365l-1.9-1.657c-.666-.579-1.321-1.183-2-1.738a1.943,1.943,0,0,0-1.809-.554l.235.558c.762-.493.339-1.375-.255-1.792-.464-.327-.962-.614-1.442-.919-.369-.234-.742-.524-1.2-.377-.442.144-.742.622-1.031.955l-1.29,1.491-2.585,2.977a.309.309,0,0,0,0,.425,4.664,4.664,0,0,0,3.475,1.687.315.315,0,0,0,0-.63,4.026,4.026,0,0,1-3.05-1.482v.425q1.752-2.022,3.506-4.042c.283-.325.555-.66.849-.973a.507.507,0,0,1,.615-.2,2.722,2.722,0,0,1,.492.31c.226.143,2.24,1.219,1.614,1.619-.283.18-.108.665.235.558.765-.238,1.509.65,2.016,1.1l1.9,1.659c.576.5,1.177.984,1.725,1.516.449.439,1,1.122.554,1.753a2.1,2.1,0,0,1-2.139.514c-.762-.125-1.509-.315-2.274-.435a13.188,13.188,0,0,0-2.162-.178,3.256,3.256,0,0,1-2.041-.354.258.258,0,0,0-.387.222,6.062,6.062,0,0,1-.015,2.039c-.169.764-.958.454-1.289-.008-.725-1.009-.175-2.291-.071-3.4.015-.153-.242-.189-.27-.036Z" transform="translate(-756.021 -346.714)"/>
      <path id="Path_12952" data-name="Path 12952" d="M866.343,403.587q-1.685-1.209-3.257-2.575c-.477-.415-.943-.849-1.422-1.26a1.854,1.854,0,0,0-1.365-.589l.217.218a1.5,1.5,0,0,0-.975-1.371,10.27,10.27,0,0,1-2.044-1.427c-.178-.158-.442.1-.262.262a11.467,11.467,0,0,0,1.425,1.125c.546.347,1.483.609,1.423,1.41a.219.219,0,0,0,.217.217c.649-.028,1.153.609,1.594,1,.458.408.933.794,1.415,1.172.932.729,1.9,1.408,2.894,2.047.151.094.283-.136.139-.237Z" transform="translate(-797.204 -361.351)" fill="#608cff"/>
      <path id="Path_12953" data-name="Path 12953" d="M899.983,473.166c-.052.135-.129.97-.389.77-.17-.132-.365.115-.276.276a.443.443,0,0,0,.718.008.828.828,0,0,0,.157-.4,2.339,2.339,0,0,0,.05-.615.133.133,0,0,0-.26-.035Z" transform="translate(-835.351 -430.671)" fill="#608cff"/>
      <path id="Path_12954" data-name="Path 12954" d="M890.156,470.94c-.03.2-.061.4-.109.588-.018.074-.163.589-.25.476-.136-.174-.42.051-.3.235a.425.425,0,0,0,.741-.072,2,2,0,0,0,.161-1.226.125.125,0,0,0-.238,0Z" transform="translate(-826.448 -428.66)" fill="#608cff"/>
      <path id="Path_12955" data-name="Path 12955" d="M880.7,472.851a1.155,1.155,0,0,1-.162.522,1.244,1.244,0,0,1-.413.346.189.189,0,0,0,.145.343,1.042,1.042,0,0,0,.694-1.247.135.135,0,0,0-.264.036Z" transform="translate(-817.906 -430.349)" fill="#608cff"/>
      <path id="Path_12956" data-name="Path 12956" d="M873.294,471.017a1.214,1.214,0,0,1-.3.651c-.137.163.081.391.239.238a1.275,1.275,0,0,0,.363-.889C873.6,470.819,873.314,470.829,873.294,471.017Z" transform="translate(-811.493 -428.677)" fill="#608cff"/>
      <path id="Path_12957" data-name="Path 12957" d="M699.013,526.8c-.134-.37-.331-.71-.48-1.074a11.824,11.824,0,0,1-.37-1.132.27.27,0,0,0-.521.143,9.6,9.6,0,0,0,1.058,2.193.172.172,0,0,0,.312-.132Z" transform="translate(-652.714 -477.16)"/>
      <path id="Path_12958" data-name="Path 12958" d="M327.5,205.65a3.447,3.447,0,0,0-2.3,1.439c-1.52,1.684-4.076,4.234-5.515,5.987-.111.136.155-.083,0,0-.411.221-.412.566-.557.121-.536-1.641-2.345-2.879-4.754-6.119a4.229,4.229,0,0,1-.827-1.8c-.075-.45-.027-.913-.089-1.366a1.435,1.435,0,0,0-.674-1.132c-.41-.2-1.029.027-1.058.483l-.678-.543a3.034,3.034,0,0,0-1.185-.679,1.022,1.022,0,0,0-1.166.5c-.172.425.274,1,.7.827-.6-.115-1.374-.16-1.68.369a.783.783,0,0,0,.791,1.1,1.1,1.1,0,0,0-1.439.367,1.422,1.422,0,0,0,.076,1.543.843.843,0,0,0,.672.415c.275-.008.53-.318.4-.559a2.01,2.01,0,0,0,1.537,1.575,2,2,0,0,1,.525.133,1.351,1.351,0,0,1,.542,1.032,16.653,16.653,0,0,0,5.1,9.018,5.879,5.879,0,0,0,1.175.839,5.37,5.37,0,0,0,4.394.055c1.4-.555,1.981-1.532,3.063-2.576a29,29,0,0,0,3.976-4.744,6.533,6.533,0,0,0,1.366-3.491,2.644,2.644,0,0,0-2.145-2.719" transform="translate(-298.819 -185.184)" fill="#fff"/>
      <path id="Path_12959" data-name="Path 12959" d="M325.013,202.939a3.812,3.812,0,0,0-2.6,1.574c-.685.72-1.4,1.415-2.1,2.113-.779.769-1.557,1.541-2.312,2.333-.323.339-.642.681-.953,1.032-.183.208-.579.5-.507.821.055.234.326.452.481.619.068.073.459.576.343.025-.011-.055-.146-.172-.183-.232a2.548,2.548,0,0,1-.189-.4,6.939,6.939,0,0,0-.906-1.742c-1.27-1.685-2.849-3.113-4.064-4.848a3.843,3.843,0,0,1-.747-2.05,3.272,3.272,0,0,0-.358-1.764c-.458-.689-1.767-.815-1.934.189l.437-.116c-.8-.642-1.981-1.848-3.081-1.087-.77.533-.339,1.88.637,1.627.236-.061.258-.454,0-.5-.69-.124-1.729-.2-2.034.619a1.053,1.053,0,0,0,1.076,1.357c.238-.025.377-.353.131-.486a1.408,1.408,0,0,0-2,1.572,1.427,1.427,0,0,0,1.038,1.226.7.7,0,0,0,.79-.879.263.263,0,0,0-.507.14,2.289,2.289,0,0,0,.818,1.321,2.244,2.244,0,0,0,.652.362c.339.119.727.075.943.413a2.372,2.372,0,0,1,.22.787c.072.348.154.693.249,1.038a16.386,16.386,0,0,0,.688,1.973,15.469,15.469,0,0,0,4.758,6.436,5.6,5.6,0,0,0,7.1-.711,40,40,0,0,0,5.51-6.423,5.59,5.59,0,0,0,1.2-4.062,2.778,2.778,0,0,0-2.338-2.3c-.291-.029-.283.414,0,.449a2.429,2.429,0,0,1,1.882,2.494,6.507,6.507,0,0,1-1.425,3.491,43.742,43.742,0,0,1-5.061,5.828,5.071,5.071,0,0,1-6.852.561,15.709,15.709,0,0,1-4.245-5.892,15.99,15.99,0,0,1-.694-1.981,14.2,14.2,0,0,0-.444-1.778c-.222-.518-.575-.635-1.088-.755a1.777,1.777,0,0,1-1.353-1.39l-.507.14-.454.094-.094-.1a1.049,1.049,0,0,1-.222-.426,1.164,1.164,0,0,1,.008-.73.849.849,0,0,1,1.174-.453l.132-.486c-.476.049-.849-.566-.394-.877a1.725,1.725,0,0,1,1.215-.076v-.5c-.444.115-.482-.519-.189-.716a.977.977,0,0,1,.91-.028,6.6,6.6,0,0,1,1.491,1.074c.136.108.4.1.437-.115a.47.47,0,0,1,.639-.34,1,1,0,0,1,.534.718c.167.6.041,1.252.189,1.863a7.519,7.519,0,0,0,1.751,2.875c.66.809,1.357,1.58,2.052,2.359a11.658,11.658,0,0,1,1.372,1.724c.34.566.421,1.333.881,1.817.353.372,1.158.218.782-.352a3.414,3.414,0,0,0-.566-.628.653.653,0,0,1-.094-.127l.013.143.142-.168c.153-.179.309-.356.472-.531.677-.747,1.387-1.464,2.1-2.182.81-.822,1.627-1.64,2.413-2.485s1.592-2.114,2.841-2.227c.162-.015.169-.26,0-.259Z" transform="translate(-296.335 -182.602)"/>
      <path id="Path_12964" data-name="Path 12964" d="M344.1,402.617a32.068,32.068,0,0,0-1.974,9.078,22.394,22.394,0,0,0,.71,8.019,11.82,11.82,0,0,0,1.576,3.331,6.441,6.441,0,0,0,2.728,2.453,2.392,2.392,0,0,0,2.83-.949,4.358,4.358,0,0,0,.32-3.749,1.972,1.972,0,0,0-.8-1.338,1.346,1.346,0,0,0-1.327.137c-1.008.668-.981,2.292-1.028,3.357a9.674,9.674,0,0,0,2.453,7.453c1.65,1.626,4.556,2.591,6.17.387a3.5,3.5,0,0,0,.349-3.367c-.168-.412-.492-1.155-1-1.249-.462-.088-.729.359-.841.74a6.458,6.458,0,0,0,2.4,6.7c2.246,1.712,5.183,1.981,7.91,1.792.812-.058,1.621-.16,2.427-.263.307-.039.315-.524,0-.489a18.639,18.639,0,0,1-7.469-.2,6.691,6.691,0,0,1-4.664-4.308,5.22,5.22,0,0,1-.05-3.214c.189-.45.425.012.558.236a3.239,3.239,0,0,1,.321.731,3.072,3.072,0,0,1,.03,1.709,2.692,2.692,0,0,1-2.379,1.954,4.605,4.605,0,0,1-3.027-1.22,8.413,8.413,0,0,1-2.683-6.1,9.971,9.971,0,0,1,.265-3.519c.167-.494.641-1.064,1.236-.908s.741,1.174.849,1.674a3.209,3.209,0,0,1-.927,3.353c-1.075.785-2.264.124-3.106-.667a11,11,0,0,1-2.985-5.488,24.031,24.031,0,0,1-.443-7.619,32.5,32.5,0,0,1,1.814-8.4c.055-.154-.189-.218-.243-.067Z" transform="translate(-330.674 -366.781)" fill="#608cff"/>
      <path id="Path_12965" data-name="Path 12965" d="M695.388,392.935l-.021-.032-.048.182c.234-.166.79.835.874.993.232.437.448.885.646,1.338a19.414,19.414,0,0,1,.976,2.846.185.185,0,0,0,.358-.094c-.168-.627-1.988-6.171-3.019-5.289a.136.136,0,0,0,0,.189l.024.03c.094.117.289-.035.207-.159Z" transform="translate(-650.434 -357.956)" fill="#608cff"/>
      <path id="Path_12966" data-name="Path 12966" d="M721.121,380.521c1.372,1.226,1.784,3.092,2.136,4.822.044.216.377.125.33-.094-.377-1.784-.82-3.693-2.273-4.925-.133-.113-.326.075-.193.193Z" transform="translate(-673.945 -346.639)" fill="#608cff"/>
      <path id="Path_12967" data-name="Path 12967" d="M401.845,75.072a16.038,16.038,0,0,0,2.531,2c.161.1.311-.155.15-.257a15.644,15.644,0,0,1-2.487-1.94C401.912,74.756,401.718,74.948,401.845,75.072Z" transform="translate(-384.792 -70.005)" fill="#a0d195"/>
      <path id="Path_12968" data-name="Path 12968" d="M447.6,38.977a10.576,10.576,0,0,0,1.038,2.566.164.164,0,0,0,.283-.167,10.29,10.29,0,0,1-1.063-2.471.135.135,0,0,0-.259.072Z" transform="translate(-426.26 -37.38)" fill="#a0d195"/>
      <path id="Path_12969" data-name="Path 12969" d="M499.278,23.733l-.133,1.97c-.015.215.328.218.336,0l.072-1.97C499.56,23.556,499.291,23.559,499.278,23.733Z" transform="translate(-472.951 -23.601)" fill="#a0d195"/>
      <path id="Path_12970" data-name="Path 12970" d="M552.347,31.933a20.45,20.45,0,0,0-1.226,2.53c-.071.181.241.315.319.134.364-.849.743-1.687,1.189-2.5a.164.164,0,0,0-.283-.164Z" transform="translate(-520.013 -31.075)" fill="#a0d195"/>
      <path id="Path_12971" data-name="Path 12971" d="M599.265,82.674a2.465,2.465,0,0,1,1.06-.706.188.188,0,0,0-.1-.363,2.434,2.434,0,0,0-1.234.794C598.83,82.588,599.1,82.863,599.265,82.674Z" transform="translate(-563.332 -76.127)" fill="#a0d195"/>
      <path id="Path_12972" data-name="Path 12972" d="M542.9,311.2c.58,1.577,1.18,3.147,1.858,4.686.166.377.377.755.522,1.142a.639.639,0,0,1,.1.4.728.728,0,0,0-.07.229.3.3,0,0,0,.031.164c.16.33.532.175.609-.108a.087.087,0,1,0-.168-.046c-.236.031-.319-.013-.251-.134a.5.5,0,0,0,.045-.174.669.669,0,0,0-.009-.094,2.454,2.454,0,0,0-.291-.649c-.268-.566-.525-1.141-.775-1.716-.533-1.226-1.029-2.475-1.524-3.72-.02-.05-.1-.029-.081.022Z" transform="translate(-512.578 -284.029)" fill="#fff"/>
      <path id="Path_12973" data-name="Path 12973" d="M492.751,218.374a1.3,1.3,0,0,0,.558,1.238c.058.04.11-.054.055-.094a1.281,1.281,0,0,1-.534-1.132c0-.043-.073-.056-.079-.01Z" transform="translate(-467.151 -199.975)" fill="#fff"/>
      <path id="Path_12974" data-name="Path 12974" d="M501.655,216.475a.923.923,0,0,0,.521.984c.066.029.125-.067.058-.094a.854.854,0,0,1-.492-.874c0-.048-.078-.06-.086-.011Z" transform="translate(-475.213 -198.255)" fill="#fff"/>
      <path id="Path_12975" data-name="Path 12975" d="M510.907,212.536a1.064,1.064,0,0,0,.418,1.047c.054.04.125-.052.072-.094a1.007,1.007,0,0,1-.394-.943c.007-.054-.087-.067-.094-.012Z" transform="translate(-483.588 -194.677)" fill="#fff"/>
      <path id="Path_12976" data-name="Path 12976" d="M494.3,223.727a18.417,18.417,0,0,0,2.191-.933c.085-.042.01-.172-.075-.128a22.032,22.032,0,0,1-2.141.967C494.22,223.655,494.243,223.746,494.3,223.727Z" transform="translate(-468.512 -203.878)" fill="#fff"/>
      <path id="Path_12977" data-name="Path 12977" d="M343.718,760.62a2.17,2.17,0,0,0-.341.807c-.014.067.094.094.1.028a2.082,2.082,0,0,1,.309-.793C343.818,760.616,343.749,760.577,343.718,760.62Z" transform="translate(-331.877 -691.073)" fill="#fff"/>
      <path id="Path_12978" data-name="Path 12978" d="M348.527,764.742c-.25-.066-.383.43-.457.579a14.271,14.271,0,0,0-.646,1.5c-.026.075.094.106.12.033.149-.377.3-.755.464-1.126.076-.168.325-.91.508-.9a.043.043,0,0,0,.011-.086Z" transform="translate(-335.539 -694.818)" fill="#fff"/>
      <path id="Path_12979" data-name="Path 12979" d="M355.307,769.128a13.96,13.96,0,0,0-1.441,2.5c-.035.075.078.142.113.066a18.475,18.475,0,0,1,1.4-2.526c.029-.045-.041-.083-.072-.042Z" transform="translate(-341.372 -698.779)" fill="#fff"/>
      <path id="Path_12980" data-name="Path 12980" d="M365.678,773.394c-.472.687-.911,1.415-1.342,2.124-.043.073.068.137.113.066.447-.7.9-1.415,1.3-2.149a.041.041,0,0,0-.071-.041Z" transform="translate(-350.85 -702.645)" fill="#fff"/>
      <path id="Path_12981" data-name="Path 12981" d="M377.6,780.99c-.29-.024-.472.37-.627.566q-.449.566-.893,1.132a.066.066,0,1,0,.1.081l.638-.832c.152-.2.509-.866.778-.862.052,0,.05-.075,0-.08Z" transform="translate(-361.48 -709.537)" fill="#fff"/>
      <path id="Path_12982" data-name="Path 12982" d="M797.854,454.861q.641-.643,1.279-1.29a.049.049,0,0,0-.07-.07q-.636.65-1.267,1.3A.041.041,0,0,0,797.854,454.861Z" transform="translate(-743.417 -412.931)" fill="#fff"/>
      <path id="Path_12983" data-name="Path 12983" d="M806.343,459.641a22.265,22.265,0,0,1,1.674-1.727c.052-.048-.026-.126-.078-.078a19.452,19.452,0,0,0-1.655,1.748C806.251,459.623,806.308,459.678,806.343,459.641Z" transform="translate(-751.105 -416.856)" fill="#fff"/>
      <path id="Path_12984" data-name="Path 12984" d="M814.356,464.881a16.873,16.873,0,0,1,2.41-2.425c.056-.046-.024-.123-.08-.079a13.39,13.39,0,0,0-2.4,2.453c-.03.039.038.094.069.053Z" transform="translate(-758.356 -420.971)" fill="#fff"/>
      <path id="Path_12985" data-name="Path 12985" d="M825.261,482.8a11.2,11.2,0,0,1,1.25-1.6c.049-.052-.029-.13-.077-.078a10.077,10.077,0,0,0-1.243,1.637c-.027.045.042.086.071.042Z" transform="translate(-768.231 -437.939)" fill="#fff"/>
      <path id="Path_12986" data-name="Path 12986" d="M834.64,498.273l.3-.42c.037-.054-.05-.1-.088-.051-.1.139-.2.283-.3.421C834.517,498.275,834.6,498.324,834.64,498.273Z" transform="translate(-776.709 -453.047)" fill="#fff"/>
      <path id="Path_12987" data-name="Path 12987" d="M342.648,243.088a.235.235,0,0,0-.313.176.542.542,0,0,0,.108.392,1.415,1.415,0,0,1,.2.363,1.465,1.465,0,0,1,0,.472.539.539,0,0,0,.129.441.607.607,0,0,0,.3.114.261.261,0,0,0,.132,0c.075-.025.112-.108.143-.181a4.769,4.769,0,0,1,1.61-1.792,4.107,4.107,0,0,1,1.73-.884.455.455,0,0,0,.274-.1.283.283,0,0,0,.033-.3.958.958,0,0,0-.189-.259,5.166,5.166,0,0,1-.707-.98.574.574,0,0,0-.179-.226.421.421,0,0,0-.175-.052,1.584,1.584,0,0,0-.714.125,4.286,4.286,0,0,0-2.608,2.867" transform="translate(-330.931 -219.822)"/>
      <path id="Path_12988" data-name="Path 12988" d="M340.517,240.074a.433.433,0,0,0-.619.472c.029.334.29.551.283.9a1.1,1.1,0,0,0,.094.676.667.667,0,0,0,1.049.109c.2-.277.313-.6.545-.868a5.66,5.66,0,0,1,.784-.727,4.742,4.742,0,0,1,1.829-1.025c.426-.094.788-.368.559-.86a5.933,5.933,0,0,0-.616-.791c-.17-.241-.289-.587-.538-.755-.407-.283-1.015-.051-1.415.125a4.6,4.6,0,0,0-2.547,2.972.3.3,0,0,0,.575.158,4.045,4.045,0,0,1,1.846-2.39,3.142,3.142,0,0,1,.763-.334c.1-.025.332-.106.436-.04.083.052.189.3.239.383a5.589,5.589,0,0,0,.4.551c.034.042.324.336.314.377a1.74,1.74,0,0,1-.319.068,5.984,5.984,0,0,0-2.51,1.66,4.367,4.367,0,0,0-.482.58c-.082.12-.226.542-.357.559-.189.025-.106-.556-.118-.654a.888.888,0,0,0-.107-.342c-.032-.06-.366-.514-.163-.526a.15.15,0,0,0,.075-.277Z" transform="translate(-328.725 -216.936)"/>
    </g>
  </g>
</svg>
